<?xml version="1.0" encoding="UTF-8"?>
<svg xmlns="http://www.w3.org/2000/svg" version="1.1" width="400" height="400" viewBox="0 0 400 400"><rect x="0" y="0" width="400" height="400" fill="#ffffff"/><g transform="scale(13.793)"><g transform="translate(0,0)"><path fill-rule="evenodd" d="M10 0L10 2L11 2L11 0ZM12 0L12 1L13 1L13 2L12 2L12 4L13 4L13 3L14 3L14 4L17 4L17 5L20 5L20 4L21 4L21 2L19 2L19 1L21 1L21 0L18 0L18 1L16 1L16 0L15 0L15 1L14 1L14 0ZM8 1L8 2L9 2L9 1ZM14 2L14 3L18 3L18 2ZM8 3L8 4L9 4L9 5L8 5L8 7L9 7L9 8L6 8L6 9L10 9L10 11L11 11L11 9L12 9L12 10L13 10L13 11L12 11L12 13L13 13L13 12L14 12L14 13L15 13L15 12L16 12L16 13L19 13L19 14L17 14L17 15L19 15L19 14L20 14L20 16L16 16L16 14L15 14L15 15L14 15L14 16L16 16L16 17L19 17L19 18L20 18L20 19L18 19L18 18L17 18L17 19L18 19L18 20L16 20L16 18L15 18L15 17L12 17L12 15L13 15L13 14L9 14L9 13L11 13L11 12L9 12L9 11L8 11L8 10L6 10L6 11L5 11L5 12L4 12L4 10L5 10L5 8L0 8L0 9L1 9L1 14L0 14L0 16L1 16L1 15L2 15L2 16L3 16L3 15L4 15L4 20L2 20L2 21L4 21L4 20L6 20L6 21L7 21L7 20L8 20L8 23L9 23L9 24L8 24L8 29L9 29L9 28L11 28L11 27L9 27L9 26L10 26L10 25L9 25L9 24L10 24L10 23L11 23L11 25L12 25L12 26L13 26L13 27L12 27L12 29L13 29L13 28L14 28L14 29L19 29L19 28L21 28L21 29L24 29L24 28L25 28L25 26L24 26L24 25L25 25L25 24L26 24L26 25L27 25L27 26L26 26L26 27L27 27L27 28L26 28L26 29L27 29L27 28L28 28L28 26L29 26L29 25L27 25L27 24L28 24L28 22L29 22L29 20L25 20L25 19L26 19L26 18L27 18L27 19L28 19L28 18L29 18L29 16L25 16L25 17L24 17L24 16L23 16L23 17L22 17L22 16L21 16L21 14L22 14L22 15L23 15L23 13L24 13L24 15L25 15L25 13L24 13L24 12L26 12L26 13L28 13L28 14L26 14L26 15L28 15L28 14L29 14L29 12L26 12L26 11L28 11L28 10L29 10L29 9L28 9L28 8L27 8L27 9L28 9L28 10L26 10L26 11L24 11L24 10L25 10L25 9L26 9L26 8L25 8L25 9L24 9L24 8L23 8L23 9L22 9L22 8L21 8L21 6L20 6L20 7L19 7L19 6L18 6L18 7L19 7L19 8L20 8L20 9L18 9L18 8L15 8L15 6L16 6L16 7L17 7L17 6L16 6L16 5L15 5L15 6L14 6L14 8L15 8L15 9L12 9L12 7L13 7L13 5L11 5L11 6L10 6L10 4L11 4L11 3ZM19 3L19 4L20 4L20 3ZM9 6L9 7L10 7L10 6ZM11 6L11 7L12 7L12 6ZM10 8L10 9L11 9L11 8ZM2 9L2 10L4 10L4 9ZM15 9L15 10L16 10L16 12L18 12L18 11L19 11L19 12L21 12L21 11L22 11L22 13L23 13L23 12L24 12L24 11L23 11L23 10L24 10L24 9L23 9L23 10L22 10L22 9L20 9L20 10L18 10L18 9ZM2 11L2 14L3 14L3 13L4 13L4 12L3 12L3 11ZM6 11L6 12L5 12L5 14L4 14L4 15L6 15L6 16L7 16L7 17L6 17L6 18L7 18L7 17L8 17L8 20L10 20L10 21L9 21L9 22L10 22L10 21L11 21L11 22L13 22L13 23L12 23L12 25L15 25L15 26L16 26L16 25L17 25L17 27L16 27L16 28L19 28L19 26L20 26L20 27L22 27L22 28L23 28L23 27L24 27L24 26L23 26L23 25L22 25L22 26L20 26L20 23L17 23L17 22L18 22L18 21L20 21L20 20L21 20L21 19L22 19L22 20L23 20L23 18L24 18L24 17L23 17L23 18L22 18L22 17L21 17L21 16L20 16L20 18L21 18L21 19L20 19L20 20L18 20L18 21L16 21L16 20L15 20L15 19L14 19L14 20L13 20L13 21L12 21L12 19L13 19L13 18L12 18L12 17L11 17L11 15L10 15L10 17L8 17L8 16L7 16L7 15L6 15L6 14L7 14L7 13L6 13L6 12L7 12L7 11ZM14 11L14 12L15 12L15 11ZM8 12L8 13L9 13L9 12ZM20 13L20 14L21 14L21 13ZM0 17L0 21L1 21L1 17ZM2 17L2 18L3 18L3 17ZM25 17L25 18L26 18L26 17ZM27 17L27 18L28 18L28 17ZM9 18L9 19L10 19L10 20L11 20L11 18ZM6 19L6 20L7 20L7 19ZM14 20L14 21L15 21L15 20ZM21 21L21 24L24 24L24 21ZM25 21L25 23L26 23L26 24L27 24L27 22L28 22L28 21ZM15 22L15 23L14 23L14 24L15 24L15 25L16 25L16 24L15 24L15 23L16 23L16 22ZM22 22L22 23L23 23L23 22ZM17 24L17 25L19 25L19 24ZM22 26L22 27L23 27L23 26ZM14 27L14 28L15 28L15 27ZM0 0L0 7L7 7L7 0ZM1 1L1 6L6 6L6 1ZM2 2L2 5L5 5L5 2ZM22 0L22 7L29 7L29 0ZM23 1L23 6L28 6L28 1ZM24 2L24 5L27 5L27 2ZM0 22L0 29L7 29L7 22ZM1 23L1 28L6 28L6 23ZM2 24L2 27L5 27L5 24Z" fill="#000000"/></g></g></svg>
