<?xml version="1.0" encoding="UTF-8"?>
<svg xmlns="http://www.w3.org/2000/svg" version="1.1" width="400" height="400" viewBox="0 0 400 400"><rect x="0" y="0" width="400" height="400" fill="#ffffff"/><g transform="scale(13.793)"><g transform="translate(0,0)"><path fill-rule="evenodd" d="M10 0L10 2L11 2L11 0ZM12 0L12 1L13 1L13 2L12 2L12 4L13 4L13 3L14 3L14 4L16 4L16 5L15 5L15 6L14 6L14 8L15 8L15 9L12 9L12 7L13 7L13 5L11 5L11 6L10 6L10 4L11 4L11 3L8 3L8 4L9 4L9 5L8 5L8 7L9 7L9 8L6 8L6 9L7 9L7 10L6 10L6 11L5 11L5 8L0 8L0 9L2 9L2 10L0 10L0 12L2 12L2 14L3 14L3 15L4 15L4 16L6 16L6 17L3 17L3 16L2 16L2 17L0 17L0 21L1 21L1 18L2 18L2 20L3 20L3 21L5 21L5 20L6 20L6 21L8 21L8 23L10 23L10 21L11 21L11 19L10 19L10 18L8 18L8 19L10 19L10 21L8 21L8 20L6 20L6 19L7 19L7 18L6 18L6 17L7 17L7 16L10 16L10 15L11 15L11 17L12 17L12 18L13 18L13 19L12 19L12 21L13 21L13 20L14 20L14 21L16 21L16 22L15 22L15 23L14 23L14 24L15 24L15 25L12 25L12 23L13 23L13 22L11 22L11 25L12 25L12 26L13 26L13 27L12 27L12 29L13 29L13 28L14 28L14 29L16 29L16 28L17 28L17 29L18 29L18 28L17 28L17 27L16 27L16 26L15 26L15 25L18 25L18 26L19 26L19 27L20 27L20 28L19 28L19 29L20 29L20 28L22 28L22 29L24 29L24 28L25 28L25 26L24 26L24 25L26 25L26 26L27 26L27 28L26 28L26 29L27 29L27 28L28 28L28 26L29 26L29 25L27 25L27 24L28 24L28 22L29 22L29 20L25 20L25 18L26 18L26 17L28 17L28 18L27 18L27 19L28 19L28 18L29 18L29 16L26 16L26 14L29 14L29 13L28 13L28 12L29 12L29 11L28 11L28 10L29 10L29 9L28 9L28 8L27 8L27 9L28 9L28 10L27 10L27 12L25 12L25 11L24 11L24 12L25 12L25 13L22 13L22 12L21 12L21 13L19 13L19 12L17 12L17 11L16 11L16 10L15 10L15 9L18 9L18 11L19 11L19 10L20 10L20 11L21 11L21 10L20 10L20 9L22 9L22 10L23 10L23 9L24 9L24 10L25 10L25 9L26 9L26 8L25 8L25 9L24 9L24 8L23 8L23 9L22 9L22 8L20 8L20 9L18 9L18 8L15 8L15 6L16 6L16 7L17 7L17 6L16 6L16 5L20 5L20 4L21 4L21 3L20 3L20 2L19 2L19 3L17 3L17 2L16 2L16 0L15 0L15 1L14 1L14 0ZM18 0L18 1L21 1L21 0ZM8 1L8 2L9 2L9 1ZM14 2L14 3L15 3L15 2ZM16 3L16 4L17 4L17 3ZM19 3L19 4L20 4L20 3ZM9 6L9 7L10 7L10 6ZM11 6L11 7L12 7L12 6ZM18 6L18 7L19 7L19 6ZM20 6L20 7L21 7L21 6ZM10 8L10 9L9 9L9 10L7 10L7 11L6 11L6 12L5 12L5 11L4 11L4 9L3 9L3 10L2 10L2 11L3 11L3 12L5 12L5 13L4 13L4 15L5 15L5 13L6 13L6 14L7 14L7 15L6 15L6 16L7 16L7 15L10 15L10 14L13 14L13 15L12 15L12 17L15 17L15 18L16 18L16 19L14 19L14 20L16 20L16 21L17 21L17 22L18 22L18 23L15 23L15 24L18 24L18 25L19 25L19 26L20 26L20 27L21 27L21 26L23 26L23 27L22 27L22 28L23 28L23 27L24 27L24 26L23 26L23 25L20 25L20 23L19 23L19 22L18 22L18 21L20 21L20 20L18 20L18 19L20 19L20 18L21 18L21 19L22 19L22 20L24 20L24 17L26 17L26 16L24 16L24 15L25 15L25 14L26 14L26 13L25 13L25 14L23 14L23 15L22 15L22 14L21 14L21 16L20 16L20 14L19 14L19 13L17 13L17 12L16 12L16 13L14 13L14 12L15 12L15 11L14 11L14 12L13 12L13 13L12 13L12 11L13 11L13 10L12 10L12 9L11 9L11 8ZM10 9L10 11L11 11L11 9ZM7 11L7 12L6 12L6 13L7 13L7 14L10 14L10 13L11 13L11 12L9 12L9 11ZM8 12L8 13L9 13L9 12ZM16 13L16 14L15 14L15 15L14 15L14 16L15 16L15 17L19 17L19 18L20 18L20 16L17 16L17 15L16 15L16 14L17 14L17 13ZM18 14L18 15L19 15L19 14ZM0 15L0 16L1 16L1 15ZM15 15L15 16L16 16L16 15ZM21 16L21 17L22 17L22 18L23 18L23 17L24 17L24 16L23 16L23 17L22 17L22 16ZM3 18L3 19L4 19L4 20L5 20L5 19L6 19L6 18ZM17 18L17 19L18 19L18 18ZM17 20L17 21L18 21L18 20ZM21 21L21 24L24 24L24 21ZM25 21L25 24L27 24L27 23L26 23L26 22L28 22L28 21ZM22 22L22 23L23 23L23 22ZM18 23L18 24L19 24L19 23ZM8 24L8 29L11 29L11 28L9 28L9 27L11 27L11 26L10 26L10 24ZM14 27L14 28L16 28L16 27ZM0 0L0 7L7 7L7 0ZM1 1L1 6L6 6L6 1ZM2 2L2 5L5 5L5 2ZM22 0L22 7L29 7L29 0ZM23 1L23 6L28 6L28 1ZM24 2L24 5L27 5L27 2ZM0 22L0 29L7 29L7 22ZM1 23L1 28L6 28L6 23ZM2 24L2 27L5 27L5 24Z" fill="#000000"/></g></g></svg>
