<?xml version="1.0" encoding="UTF-8"?>
<svg xmlns="http://www.w3.org/2000/svg" version="1.1" width="400" height="400" viewBox="0 0 400 400"><rect x="0" y="0" width="400" height="400" fill="#ffffff"/><g transform="scale(13.793)"><g transform="translate(0,0)"><path fill-rule="evenodd" d="M8 0L8 1L9 1L9 2L8 2L8 5L9 5L9 4L11 4L11 5L10 5L10 10L9 10L9 12L8 12L8 13L7 13L7 12L6 12L6 13L7 13L7 14L6 14L6 15L8 15L8 16L9 16L9 17L8 17L8 19L7 19L7 18L5 18L5 17L4 17L4 16L5 16L5 15L4 15L4 16L3 16L3 15L2 15L2 14L5 14L5 13L4 13L4 12L5 12L5 10L3 10L3 9L4 9L4 8L0 8L0 11L1 11L1 12L2 12L2 11L3 11L3 13L2 13L2 14L0 14L0 15L2 15L2 16L3 16L3 17L1 17L1 18L0 18L0 19L1 19L1 18L3 18L3 17L4 17L4 19L2 19L2 20L1 20L1 21L2 21L2 20L4 20L4 21L5 21L5 20L4 20L4 19L7 19L7 20L6 20L6 21L8 21L8 22L9 22L9 23L11 23L11 24L9 24L9 25L8 25L8 29L9 29L9 28L10 28L10 26L9 26L9 25L11 25L11 26L12 26L12 28L11 28L11 29L12 29L12 28L14 28L14 27L15 27L15 28L16 28L16 29L17 29L17 28L16 28L16 27L18 27L18 26L22 26L22 25L23 25L23 28L22 28L22 29L23 29L23 28L24 28L24 29L25 29L25 27L24 27L24 26L27 26L27 24L26 24L26 23L27 23L27 22L25 22L25 21L27 21L27 20L28 20L28 17L29 17L29 16L28 16L28 17L27 17L27 19L26 19L26 17L25 17L25 16L26 16L26 15L24 15L24 10L26 10L26 11L25 11L25 13L28 13L28 14L27 14L27 15L29 15L29 13L28 13L28 12L29 12L29 11L27 11L27 10L26 10L26 9L27 9L27 8L24 8L24 10L23 10L23 9L22 9L22 8L19 8L19 6L20 6L20 7L21 7L21 3L20 3L20 2L19 2L19 1L20 1L20 0L19 0L19 1L18 1L18 2L19 2L19 3L17 3L17 1L16 1L16 0L15 0L15 1L16 1L16 2L15 2L15 3L14 3L14 5L13 5L13 3L12 3L12 4L11 4L11 2L14 2L14 0L12 0L12 1L11 1L11 0L10 0L10 1L9 1L9 0ZM16 3L16 4L17 4L17 7L16 7L16 5L14 5L14 6L13 6L13 5L12 5L12 6L11 6L11 8L12 8L12 6L13 6L13 8L14 8L14 9L15 9L15 10L14 10L14 11L11 11L11 13L10 13L10 14L8 14L8 15L10 15L10 14L11 14L11 13L12 13L12 12L13 12L13 14L12 14L12 16L10 16L10 18L9 18L9 19L10 19L10 22L11 22L11 23L14 23L14 22L15 22L15 24L12 24L12 26L13 26L13 27L14 27L14 26L15 26L15 27L16 27L16 26L17 26L17 25L16 25L16 26L15 26L15 24L16 24L16 23L17 23L17 24L19 24L19 25L20 25L20 23L18 23L18 21L17 21L17 22L16 22L16 19L15 19L15 21L13 21L13 18L14 18L14 15L16 15L16 16L15 16L15 17L16 17L16 16L17 16L17 19L18 19L18 20L19 20L19 19L20 19L20 18L21 18L21 20L25 20L25 17L24 17L24 18L23 18L23 14L22 14L22 13L23 13L23 12L22 12L22 11L23 11L23 10L22 10L22 9L20 9L20 10L18 10L18 9L17 9L17 7L18 7L18 5L19 5L19 4L20 4L20 3L19 3L19 4L17 4L17 3ZM8 6L8 7L9 7L9 6ZM14 6L14 7L15 7L15 6ZM6 8L6 9L7 9L7 8ZM8 8L8 9L9 9L9 8ZM15 8L15 9L16 9L16 8ZM28 8L28 10L29 10L29 8ZM1 9L1 10L2 10L2 9ZM11 9L11 10L12 10L12 9ZM6 10L6 11L7 11L7 10ZM17 10L17 11L15 11L15 12L14 12L14 14L13 14L13 15L14 15L14 14L18 14L18 16L19 16L19 17L18 17L18 19L19 19L19 17L21 17L21 18L22 18L22 17L21 17L21 15L22 15L22 14L21 14L21 13L22 13L22 12L20 12L20 11L21 11L21 10L20 10L20 11L18 11L18 10ZM17 11L17 12L16 12L16 13L17 13L17 12L18 12L18 14L19 14L19 12L18 12L18 11ZM26 11L26 12L27 12L27 11ZM19 15L19 16L20 16L20 15ZM6 16L6 17L7 17L7 16ZM12 16L12 17L13 17L13 16ZM10 18L10 19L11 19L11 20L12 20L12 19L11 19L11 18ZM8 20L8 21L9 21L9 20ZM19 21L19 22L20 22L20 21ZM21 21L21 24L24 24L24 21ZM28 21L28 22L29 22L29 21ZM22 22L22 23L23 23L23 22ZM28 23L28 24L29 24L29 23ZM13 25L13 26L14 26L14 25ZM28 25L28 27L27 27L27 29L28 29L28 27L29 27L29 25ZM19 27L19 28L20 28L20 29L21 29L21 27ZM0 0L0 7L7 7L7 0ZM1 1L1 6L6 6L6 1ZM2 2L2 5L5 5L5 2ZM22 0L22 7L29 7L29 0ZM23 1L23 6L28 6L28 1ZM24 2L24 5L27 5L27 2ZM0 22L0 29L7 29L7 22ZM1 23L1 28L6 28L6 23ZM2 24L2 27L5 27L5 24Z" fill="#000000"/></g></g></svg>
