<?xml version="1.0" encoding="UTF-8"?>
<svg xmlns="http://www.w3.org/2000/svg" version="1.1" width="400" height="400" viewBox="0 0 400 400"><rect x="0" y="0" width="400" height="400" fill="#ffffff"/><g transform="scale(13.793)"><g transform="translate(0,0)"><path fill-rule="evenodd" d="M8 0L8 1L9 1L9 2L10 2L10 3L11 3L11 1L13 1L13 0L11 0L11 1L9 1L9 0ZM14 0L14 1L17 1L17 2L16 2L16 3L17 3L17 4L18 4L18 5L17 5L17 6L16 6L16 7L17 7L17 6L18 6L18 7L19 7L19 9L18 9L18 8L17 8L17 9L15 9L15 11L16 11L16 10L17 10L17 12L15 12L15 13L14 13L14 7L15 7L15 6L14 6L14 7L13 7L13 5L12 5L12 4L13 4L13 2L12 2L12 4L11 4L11 5L10 5L10 4L9 4L9 5L10 5L10 8L9 8L9 6L8 6L8 8L9 8L9 9L7 9L7 8L6 8L6 9L5 9L5 8L3 8L3 10L2 10L2 8L0 8L0 10L2 10L2 11L8 11L8 12L4 12L4 14L2 14L2 13L3 13L3 12L2 12L2 13L1 13L1 14L0 14L0 15L1 15L1 14L2 14L2 16L0 16L0 21L2 21L2 20L3 20L3 21L5 21L5 20L6 20L6 21L8 21L8 22L9 22L9 21L10 21L10 22L11 22L11 20L9 20L9 19L12 19L12 21L14 21L14 24L13 24L13 25L12 25L12 26L13 26L13 25L15 25L15 26L14 26L14 27L12 27L12 28L11 28L11 29L13 29L13 28L15 28L15 27L16 27L16 29L17 29L17 27L16 27L16 24L18 24L18 25L23 25L23 26L24 26L24 27L21 27L21 28L20 28L20 27L19 27L19 26L18 26L18 29L19 29L19 28L20 28L20 29L21 29L21 28L25 28L25 27L26 27L26 28L27 28L27 27L28 27L28 28L29 28L29 23L28 23L28 19L29 19L29 18L28 18L28 19L27 19L27 18L26 18L26 16L27 16L27 17L28 17L28 16L29 16L29 12L27 12L27 15L26 15L26 13L24 13L24 14L23 14L23 12L25 12L25 11L28 11L28 9L29 9L29 8L28 8L28 9L26 9L26 10L25 10L25 9L24 9L24 11L21 11L21 13L20 13L20 14L19 14L19 13L18 13L18 14L17 14L17 12L18 12L18 10L22 10L22 9L23 9L23 8L22 8L22 9L21 9L21 8L20 8L20 7L21 7L21 5L20 5L20 4L21 4L21 3L20 3L20 4L19 4L19 2L21 2L21 1L19 1L19 0ZM18 1L18 2L17 2L17 3L18 3L18 2L19 2L19 1ZM14 4L14 5L15 5L15 4ZM11 5L11 7L12 7L12 9L10 9L10 10L8 10L8 11L10 11L10 10L12 10L12 11L13 11L13 10L12 10L12 9L13 9L13 7L12 7L12 5ZM18 5L18 6L19 6L19 7L20 7L20 5ZM4 9L4 10L5 10L5 9ZM6 9L6 10L7 10L7 9ZM17 9L17 10L18 10L18 9ZM10 12L10 14L9 14L9 13L5 13L5 14L4 14L4 15L3 15L3 16L2 16L2 18L3 18L3 19L4 19L4 20L5 20L5 19L6 19L6 20L7 20L7 19L6 19L6 18L7 18L7 17L8 17L8 16L10 16L10 17L9 17L9 18L10 18L10 17L14 17L14 16L15 16L15 17L16 17L16 15L17 15L17 17L18 17L18 18L17 18L17 19L16 19L16 20L18 20L18 19L19 19L19 17L18 17L18 15L17 15L17 14L16 14L16 15L15 15L15 14L14 14L14 15L12 15L12 16L11 16L11 15L10 15L10 14L13 14L13 13L11 13L11 12ZM21 13L21 15L19 15L19 16L21 16L21 15L23 15L23 16L22 16L22 18L21 18L21 17L20 17L20 18L21 18L21 20L24 20L24 19L25 19L25 20L26 20L26 19L25 19L25 18L24 18L24 17L25 17L25 16L26 16L26 15L25 15L25 14L24 14L24 15L23 15L23 14L22 14L22 13ZM6 14L6 15L7 15L7 16L5 16L5 15L4 15L4 16L5 16L5 18L4 18L4 17L3 17L3 18L4 18L4 19L5 19L5 18L6 18L6 17L7 17L7 16L8 16L8 14ZM24 15L24 16L23 16L23 17L24 17L24 16L25 16L25 15ZM12 18L12 19L13 19L13 20L14 20L14 19L15 19L15 18ZM22 18L22 19L24 19L24 18ZM8 20L8 21L9 21L9 20ZM19 20L19 21L16 21L16 23L15 23L15 24L16 24L16 23L17 23L17 22L19 22L19 21L20 21L20 20ZM21 21L21 24L24 24L24 21ZM25 21L25 22L26 22L26 23L25 23L25 25L24 25L24 26L26 26L26 27L27 27L27 26L28 26L28 23L27 23L27 22L26 22L26 21ZM12 22L12 23L13 23L13 22ZM22 22L22 23L23 23L23 22ZM10 23L10 25L11 25L11 23ZM18 23L18 24L20 24L20 23ZM8 24L8 26L9 26L9 27L8 27L8 29L10 29L10 28L9 28L9 27L10 27L10 26L9 26L9 24ZM26 25L26 26L27 26L27 25ZM0 0L0 7L7 7L7 0ZM1 1L1 6L6 6L6 1ZM2 2L2 5L5 5L5 2ZM22 0L22 7L29 7L29 0ZM23 1L23 6L28 6L28 1ZM24 2L24 5L27 5L27 2ZM0 22L0 29L7 29L7 22ZM1 23L1 28L6 28L6 23ZM2 24L2 27L5 27L5 24Z" fill="#000000"/></g></g></svg>
