<?xml version="1.0" encoding="UTF-8"?>
<svg xmlns="http://www.w3.org/2000/svg" version="1.1" width="400" height="400" viewBox="0 0 400 400"><rect x="0" y="0" width="400" height="400" fill="#ffffff"/><g transform="scale(13.793)"><g transform="translate(0,0)"><path fill-rule="evenodd" d="M8 0L8 1L9 1L9 2L8 2L8 5L9 5L9 4L11 4L11 5L10 5L10 10L8 10L8 11L7 11L7 10L5 10L5 9L4 9L4 8L0 8L0 9L3 9L3 11L4 11L4 12L5 12L5 13L7 13L7 12L8 12L8 11L9 11L9 13L8 13L8 15L7 15L7 14L6 14L6 15L3 15L3 16L4 16L4 17L3 17L3 18L2 18L2 20L1 20L1 21L2 21L2 20L3 20L3 19L4 19L4 20L5 20L5 21L8 21L8 22L9 22L9 23L10 23L10 21L11 21L11 20L12 20L12 19L9 19L9 18L8 18L8 19L7 19L7 18L6 18L6 17L9 17L9 16L10 16L10 15L9 15L9 13L11 13L11 16L12 16L12 17L13 17L13 16L12 16L12 14L13 14L13 15L14 15L14 18L13 18L13 21L15 21L15 20L16 20L16 22L17 22L17 21L18 21L18 23L19 23L19 24L15 24L15 22L14 22L14 23L11 23L11 24L10 24L10 25L11 25L11 26L9 26L9 25L8 25L8 29L9 29L9 27L10 27L10 29L12 29L12 28L14 28L14 27L15 27L15 28L16 28L16 29L17 29L17 28L16 28L16 27L15 27L15 26L16 26L16 25L18 25L18 26L19 26L19 27L18 27L18 28L20 28L20 29L23 29L23 28L24 28L24 29L25 29L25 27L27 27L27 29L28 29L28 27L29 27L29 25L28 25L28 27L27 27L27 24L26 24L26 23L25 23L25 20L24 20L24 19L26 19L26 21L27 21L27 20L28 20L28 19L26 19L26 18L23 18L23 20L21 20L21 18L22 18L22 17L21 17L21 15L22 15L22 14L23 14L23 15L24 15L24 17L26 17L26 16L25 16L25 15L26 15L26 14L24 14L24 11L25 11L25 13L27 13L27 14L28 14L28 15L29 15L29 13L28 13L28 12L26 12L26 11L27 11L27 10L25 10L25 9L27 9L27 8L24 8L24 10L23 10L23 9L22 9L22 8L21 8L21 6L20 6L20 5L21 5L21 0L18 0L18 1L20 1L20 2L18 2L18 3L17 3L17 1L16 1L16 0L15 0L15 1L16 1L16 2L15 2L15 3L14 3L14 5L13 5L13 3L12 3L12 4L11 4L11 2L14 2L14 0L12 0L12 1L11 1L11 0L10 0L10 1L9 1L9 0ZM16 3L16 4L17 4L17 5L14 5L14 6L13 6L13 5L12 5L12 6L11 6L11 8L12 8L12 6L13 6L13 8L14 8L14 9L15 9L15 10L14 10L14 11L11 11L11 13L12 13L12 12L13 12L13 14L14 14L14 15L15 15L15 17L16 17L16 15L17 15L17 18L16 18L16 20L17 20L17 18L19 18L19 19L18 19L18 20L19 20L19 19L20 19L20 18L21 18L21 17L18 17L18 16L20 16L20 15L19 15L19 14L18 14L18 15L17 15L17 13L16 13L16 14L14 14L14 12L16 12L16 10L17 10L17 12L19 12L19 11L20 11L20 12L22 12L22 13L21 13L21 14L22 14L22 13L23 13L23 10L22 10L22 9L20 9L20 10L19 10L19 11L18 11L18 9L17 9L17 7L18 7L18 5L19 5L19 4L20 4L20 3L19 3L19 4L17 4L17 3ZM8 6L8 7L9 7L9 6ZM14 6L14 7L15 7L15 8L16 8L16 7L17 7L17 6L16 6L16 7L15 7L15 6ZM19 6L19 8L20 8L20 6ZM6 8L6 9L7 9L7 8ZM8 8L8 9L9 9L9 8ZM28 8L28 10L29 10L29 8ZM11 9L11 10L12 10L12 9ZM0 10L0 11L1 11L1 10ZM4 10L4 11L5 11L5 12L7 12L7 11L5 11L5 10ZM20 10L20 11L21 11L21 10ZM1 12L1 13L0 13L0 14L2 14L2 12ZM3 13L3 14L4 14L4 13ZM0 15L0 16L1 16L1 15ZM6 15L6 16L5 16L5 17L4 17L4 18L5 18L5 17L6 17L6 16L7 16L7 15ZM10 17L10 18L11 18L11 17ZM0 18L0 19L1 19L1 18ZM5 19L5 20L7 20L7 19ZM8 19L8 21L9 21L9 19ZM21 21L21 24L24 24L24 21ZM28 21L28 22L29 22L29 21ZM22 22L22 23L23 23L23 22ZM28 23L28 24L29 24L29 23ZM12 24L12 26L11 26L11 28L12 28L12 26L13 26L13 27L14 27L14 26L15 26L15 24ZM19 24L19 26L20 26L20 24ZM13 25L13 26L14 26L14 25ZM22 25L22 26L21 26L21 27L22 27L22 28L23 28L23 25ZM25 25L25 26L24 26L24 27L25 27L25 26L26 26L26 25ZM0 0L0 7L7 7L7 0ZM1 1L1 6L6 6L6 1ZM2 2L2 5L5 5L5 2ZM22 0L22 7L29 7L29 0ZM23 1L23 6L28 6L28 1ZM24 2L24 5L27 5L27 2ZM0 22L0 29L7 29L7 22ZM1 23L1 28L6 28L6 23ZM2 24L2 27L5 27L5 24Z" fill="#000000"/></g></g></svg>
