<?xml version="1.0" encoding="UTF-8"?>
<svg xmlns="http://www.w3.org/2000/svg" version="1.1" width="400" height="400" viewBox="0 0 400 400"><rect x="0" y="0" width="400" height="400" fill="#ffffff"/><g transform="scale(13.793)"><g transform="translate(0,0)"><path fill-rule="evenodd" d="M10 0L10 2L11 2L11 0ZM12 0L12 1L13 1L13 2L12 2L12 4L13 4L13 3L14 3L14 4L17 4L17 5L15 5L15 6L14 6L14 8L16 8L16 9L17 9L17 10L15 10L15 9L12 9L12 7L13 7L13 5L11 5L11 6L10 6L10 4L11 4L11 3L8 3L8 4L9 4L9 5L8 5L8 7L9 7L9 8L6 8L6 9L8 9L8 12L5 12L5 11L7 11L7 10L5 10L5 11L3 11L3 12L5 12L5 13L11 13L11 12L9 12L9 9L10 9L10 11L11 11L11 9L12 9L12 10L13 10L13 11L12 11L12 13L13 13L13 12L14 12L14 13L18 13L18 14L15 14L15 15L14 15L14 16L15 16L15 17L12 17L12 15L13 15L13 14L11 14L11 15L10 15L10 16L8 16L8 17L7 17L7 16L5 16L5 15L9 15L9 14L4 14L4 13L2 13L2 12L1 12L1 11L2 11L2 10L0 10L0 12L1 12L1 14L0 14L0 21L1 21L1 17L2 17L2 19L3 19L3 18L5 18L5 19L4 19L4 20L2 20L2 21L4 21L4 20L5 20L5 21L8 21L8 23L9 23L9 24L8 24L8 29L11 29L11 28L9 28L9 27L10 27L10 26L9 26L9 24L11 24L11 25L12 25L12 26L13 26L13 27L12 27L12 29L13 29L13 28L14 28L14 29L19 29L19 28L21 28L21 29L22 29L22 28L21 28L21 27L18 27L18 28L14 28L14 27L17 27L17 26L15 26L15 25L18 25L18 26L19 26L19 25L18 25L18 24L19 24L19 23L20 23L20 25L21 25L21 26L22 26L22 27L23 27L23 29L24 29L24 28L25 28L25 26L24 26L24 25L26 25L26 26L27 26L27 28L26 28L26 29L27 29L27 28L28 28L28 26L29 26L29 25L27 25L27 24L28 24L28 22L29 22L29 20L25 20L25 17L27 17L27 18L26 18L26 19L27 19L27 18L29 18L29 17L28 17L28 16L25 16L25 15L24 15L24 14L25 14L25 13L28 13L28 14L26 14L26 15L28 15L28 14L29 14L29 13L28 13L28 12L29 12L29 11L27 11L27 10L29 10L29 9L28 9L28 8L27 8L27 10L26 10L26 11L27 11L27 12L25 12L25 11L24 11L24 10L25 10L25 9L26 9L26 8L25 8L25 9L24 9L24 8L23 8L23 9L22 9L22 8L21 8L21 9L19 9L19 8L16 8L16 7L17 7L17 5L20 5L20 7L21 7L21 5L20 5L20 4L21 4L21 2L20 2L20 4L19 4L19 3L14 3L14 2L16 2L16 0L15 0L15 1L14 1L14 0ZM19 0L19 1L18 1L18 2L19 2L19 1L20 1L20 0ZM8 1L8 2L9 2L9 1ZM9 6L9 7L10 7L10 6ZM11 6L11 7L12 7L12 6ZM15 6L15 7L16 7L16 6ZM18 6L18 7L19 7L19 6ZM0 8L0 9L5 9L5 8ZM10 8L10 9L11 9L11 8ZM18 9L18 10L17 10L17 12L18 12L18 13L19 13L19 12L21 12L21 10L22 10L22 13L25 13L25 12L24 12L24 11L23 11L23 10L24 10L24 9L23 9L23 10L22 10L22 9L21 9L21 10L19 10L19 9ZM18 10L18 12L19 12L19 10ZM14 11L14 12L16 12L16 11ZM20 13L20 14L19 14L19 15L16 15L16 17L15 17L15 18L16 18L16 17L17 17L17 20L18 20L18 18L19 18L19 19L20 19L20 20L19 20L19 21L18 21L18 22L17 22L17 21L14 21L14 20L16 20L16 19L14 19L14 20L13 20L13 21L12 21L12 19L13 19L13 18L12 18L12 17L11 17L11 16L10 16L10 19L9 19L9 20L8 20L8 21L9 21L9 22L13 22L13 23L12 23L12 25L15 25L15 24L14 24L14 23L15 23L15 22L17 22L17 23L16 23L16 24L18 24L18 22L19 22L19 21L20 21L20 20L21 20L21 19L22 19L22 20L24 20L24 18L22 18L22 17L25 17L25 16L24 16L24 15L22 15L22 14L21 14L21 13ZM20 14L20 16L17 16L17 17L19 17L19 18L20 18L20 19L21 19L21 18L20 18L20 16L21 16L21 17L22 17L22 16L21 16L21 14ZM1 15L1 16L3 16L3 17L5 17L5 16L3 16L3 15ZM6 17L6 18L7 18L7 19L5 19L5 20L7 20L7 19L8 19L8 18L9 18L9 17L8 17L8 18L7 18L7 17ZM9 20L9 21L11 21L11 20ZM21 21L21 24L24 24L24 21ZM25 21L25 22L26 22L26 23L25 23L25 24L27 24L27 22L28 22L28 21L27 21L27 22L26 22L26 21ZM22 22L22 23L23 23L23 22ZM22 25L22 26L23 26L23 27L24 27L24 26L23 26L23 25ZM0 0L0 7L7 7L7 0ZM1 1L1 6L6 6L6 1ZM2 2L2 5L5 5L5 2ZM22 0L22 7L29 7L29 0ZM23 1L23 6L28 6L28 1ZM24 2L24 5L27 5L27 2ZM0 22L0 29L7 29L7 22ZM1 23L1 28L6 28L6 23ZM2 24L2 27L5 27L5 24Z" fill="#000000"/></g></g></svg>
