<?xml version="1.0" encoding="UTF-8"?>
<svg xmlns="http://www.w3.org/2000/svg" version="1.1" width="400" height="400" viewBox="0 0 400 400"><rect x="0" y="0" width="400" height="400" fill="#ffffff"/><g transform="scale(9.756)"><g transform="translate(0,0)"><path fill-rule="evenodd" d="M9 0L9 1L8 1L8 2L9 2L9 3L8 3L8 4L9 4L9 5L8 5L8 7L9 7L9 5L10 5L10 7L11 7L11 8L10 8L10 9L9 9L9 8L6 8L6 9L8 9L8 11L9 11L9 12L10 12L10 10L12 10L12 9L13 9L13 11L11 11L11 13L12 13L12 14L13 14L13 15L12 15L12 16L13 16L13 17L7 17L7 16L6 16L6 15L7 15L7 14L6 14L6 13L8 13L8 16L9 16L9 15L10 15L10 14L9 14L9 13L8 13L8 12L6 12L6 11L7 11L7 10L6 10L6 11L5 11L5 12L3 12L3 13L2 13L2 14L3 14L3 16L2 16L2 15L1 15L1 16L0 16L0 20L2 20L2 19L3 19L3 18L1 18L1 16L2 16L2 17L4 17L4 20L3 20L3 21L0 21L0 23L1 23L1 24L0 24L0 26L1 26L1 29L0 29L0 33L1 33L1 29L2 29L2 28L4 28L4 29L3 29L3 30L2 30L2 31L3 31L3 30L4 30L4 31L5 31L5 33L7 33L7 32L8 32L8 30L9 30L9 29L10 29L10 31L9 31L9 32L10 32L10 33L8 33L8 35L9 35L9 36L8 36L8 41L9 41L9 39L10 39L10 41L16 41L16 40L15 40L15 39L16 39L16 38L17 38L17 39L18 39L18 40L17 40L17 41L19 41L19 38L20 38L20 40L22 40L22 41L23 41L23 38L25 38L25 37L26 37L26 38L27 38L27 39L26 39L26 40L24 40L24 41L28 41L28 40L27 40L27 39L28 39L28 38L27 38L27 37L28 37L28 36L29 36L29 37L31 37L31 36L29 36L29 34L30 34L30 35L32 35L32 38L33 38L33 39L32 39L32 40L34 40L34 39L39 39L39 40L35 40L35 41L39 41L39 40L40 40L40 39L39 39L39 38L34 38L34 37L40 37L40 38L41 38L41 35L40 35L40 34L41 34L41 32L40 32L40 31L39 31L39 30L38 30L38 31L36 31L36 30L37 30L37 29L36 29L36 28L38 28L38 29L40 29L40 30L41 30L41 29L40 29L40 28L41 28L41 27L40 27L40 26L41 26L41 23L40 23L40 22L41 22L41 20L38 20L38 17L40 17L40 18L39 18L39 19L40 19L40 18L41 18L41 17L40 17L40 16L41 16L41 15L39 15L39 16L37 16L37 17L36 17L36 15L38 15L38 13L39 13L39 14L41 14L41 12L38 12L38 11L37 11L37 10L38 10L38 8L37 8L37 9L36 9L36 8L35 8L35 11L37 11L37 12L38 12L38 13L36 13L36 12L35 12L35 13L33 13L33 12L34 12L34 10L33 10L33 9L34 9L34 8L33 8L33 6L32 6L32 8L33 8L33 9L31 9L31 8L29 8L29 6L30 6L30 7L31 7L31 5L32 5L32 4L33 4L33 3L32 3L32 4L31 4L31 3L29 3L29 2L30 2L30 1L27 1L27 0L26 0L26 1L25 1L25 2L23 2L23 1L24 1L24 0L23 0L23 1L21 1L21 0L18 0L18 1L21 1L21 3L22 3L22 2L23 2L23 3L24 3L24 4L23 4L23 5L22 5L22 4L18 4L18 3L17 3L17 4L16 4L16 3L15 3L15 2L16 2L16 1L17 1L17 0L16 0L16 1L15 1L15 0L14 0L14 1L15 1L15 2L14 2L14 3L15 3L15 4L14 4L14 7L15 7L15 5L17 5L17 6L16 6L16 10L14 10L14 9L15 9L15 8L13 8L13 6L12 6L12 5L11 5L11 4L13 4L13 3L11 3L11 1L12 1L12 0L11 0L11 1L10 1L10 0ZM31 0L31 1L32 1L32 2L33 2L33 1L32 1L32 0ZM19 2L19 3L20 3L20 2ZM25 2L25 3L26 3L26 4L25 4L25 8L26 8L26 9L24 9L24 8L20 8L20 6L21 6L21 7L22 7L22 6L21 6L21 5L19 5L19 9L18 9L18 10L17 10L17 11L16 11L16 14L17 14L17 16L15 16L15 15L13 15L13 16L15 16L15 17L13 17L13 21L12 21L12 20L10 20L10 21L11 21L11 22L13 22L13 23L12 23L12 24L14 24L14 21L15 21L15 22L16 22L16 23L15 23L15 24L18 24L18 25L17 25L17 26L16 26L16 25L15 25L15 26L16 26L16 27L14 27L14 28L13 28L13 27L12 27L12 26L11 26L11 24L9 24L9 23L10 23L10 22L9 22L9 23L8 23L8 21L9 21L9 19L12 19L12 18L8 18L8 20L7 20L7 19L6 19L6 18L7 18L7 17L6 17L6 16L5 16L5 15L6 15L6 14L4 14L4 16L5 16L5 17L6 17L6 18L5 18L5 21L4 21L4 24L1 24L1 26L2 26L2 27L3 27L3 26L2 26L2 25L5 25L5 26L4 26L4 27L6 27L6 28L9 28L9 27L10 27L10 29L11 29L11 31L10 31L10 32L11 32L11 33L10 33L10 34L9 34L9 35L10 35L10 34L11 34L11 36L12 36L12 35L13 35L13 37L10 37L10 36L9 36L9 38L13 38L13 37L15 37L15 38L16 38L16 36L14 36L14 35L15 35L15 34L16 34L16 35L17 35L17 36L18 36L18 37L17 37L17 38L19 38L19 37L20 37L20 38L21 38L21 37L22 37L22 38L23 38L23 37L25 37L25 36L26 36L26 37L27 37L27 36L26 36L26 35L27 35L27 34L29 34L29 32L32 32L32 30L33 30L33 31L34 31L34 32L35 32L35 30L36 30L36 29L35 29L35 26L33 26L33 25L35 25L35 24L36 24L36 25L37 25L37 24L40 24L40 23L39 23L39 22L38 22L38 20L36 20L36 19L37 19L37 18L33 18L33 17L35 17L35 16L34 16L34 14L33 14L33 13L32 13L32 14L31 14L31 15L30 15L30 13L31 13L31 12L33 12L33 11L32 11L32 10L31 10L31 9L30 9L30 10L29 10L29 11L28 11L28 12L27 12L27 10L28 10L28 9L29 9L29 8L28 8L28 6L29 6L29 5L30 5L30 4L27 4L27 2ZM17 4L17 5L18 5L18 4ZM26 4L26 8L27 8L27 9L28 9L28 8L27 8L27 6L28 6L28 5L27 5L27 4ZM23 5L23 7L24 7L24 5ZM11 6L11 7L12 7L12 6ZM17 6L17 8L18 8L18 6ZM0 8L0 9L1 9L1 10L0 10L0 12L2 12L2 9L3 9L3 10L4 10L4 9L5 9L5 8ZM11 8L11 9L12 9L12 8ZM39 8L39 9L40 9L40 10L39 10L39 11L40 11L40 10L41 10L41 9L40 9L40 8ZM19 9L19 10L22 10L22 9ZM23 9L23 10L24 10L24 11L23 11L23 12L22 12L22 11L20 11L20 12L22 12L22 14L21 14L21 13L18 13L18 12L19 12L19 11L18 11L18 12L17 12L17 13L18 13L18 16L17 16L17 17L16 17L16 18L15 18L15 19L14 19L14 20L15 20L15 21L16 21L16 22L17 22L17 23L18 23L18 24L19 24L19 25L18 25L18 26L17 26L17 27L18 27L18 28L17 28L17 29L18 29L18 30L20 30L20 29L21 29L21 30L22 30L22 31L21 31L21 32L24 32L24 33L19 33L19 32L20 32L20 31L18 31L18 32L17 32L17 33L18 33L18 34L21 34L21 36L22 36L22 37L23 37L23 36L25 36L25 35L26 35L26 34L27 34L27 33L26 33L26 32L25 32L25 31L27 31L27 32L29 32L29 29L31 29L31 30L30 30L30 31L31 31L31 30L32 30L32 29L34 29L34 30L35 30L35 29L34 29L34 28L32 28L32 27L31 27L31 28L29 28L29 26L25 26L25 25L30 25L30 26L32 26L32 25L30 25L30 24L31 24L31 22L32 22L32 21L33 21L33 23L32 23L32 24L33 24L33 23L35 23L35 21L33 21L33 20L32 20L32 19L31 19L31 18L32 18L32 17L33 17L33 15L32 15L32 17L31 17L31 16L28 16L28 14L29 14L29 13L30 13L30 12L29 12L29 13L28 13L28 14L26 14L26 13L27 13L27 12L24 12L24 11L26 11L26 10L24 10L24 9ZM14 11L14 12L12 12L12 13L14 13L14 14L15 14L15 13L14 13L14 12L15 12L15 11ZM23 12L23 13L24 13L24 12ZM35 13L35 14L36 14L36 13ZM19 14L19 15L20 15L20 16L18 16L18 17L20 17L20 18L19 18L19 19L18 19L18 18L16 18L16 20L18 20L18 21L17 21L17 22L18 22L18 23L20 23L20 24L21 24L21 25L20 25L20 26L18 26L18 27L21 27L21 26L22 26L22 27L23 27L23 28L24 28L24 29L25 29L25 30L23 30L23 31L25 31L25 30L28 30L28 29L29 29L29 28L27 28L27 27L25 27L25 26L22 26L22 25L25 25L25 24L27 24L27 23L26 23L26 21L27 21L27 22L28 22L28 23L29 23L29 24L30 24L30 22L31 22L31 21L32 21L32 20L31 20L31 21L30 21L30 22L29 22L29 21L27 21L27 20L28 20L28 19L27 19L27 20L26 20L26 17L27 17L27 18L31 18L31 17L28 17L28 16L26 16L26 14L25 14L25 16L23 16L23 17L22 17L22 16L21 16L21 14ZM23 14L23 15L24 15L24 14ZM20 16L20 17L21 17L21 18L20 18L20 19L19 19L19 20L22 20L22 21L21 21L21 24L25 24L25 23L22 23L22 22L24 22L24 21L26 21L26 20L25 20L25 19L24 19L24 20L22 20L22 19L23 19L23 18L25 18L25 17L26 17L26 16L25 16L25 17L23 17L23 18L22 18L22 17L21 17L21 16ZM29 19L29 20L30 20L30 19ZM6 20L6 21L5 21L5 22L6 22L6 23L7 23L7 22L6 22L6 21L7 21L7 20ZM19 21L19 22L20 22L20 21ZM36 21L36 22L37 22L37 21ZM36 23L36 24L37 24L37 23ZM6 24L6 25L7 25L7 24ZM8 24L8 26L6 26L6 27L8 27L8 26L10 26L10 25L9 25L9 24ZM39 25L39 26L37 26L37 27L38 27L38 28L39 28L39 26L40 26L40 25ZM14 28L14 29L16 29L16 28ZM18 28L18 29L20 29L20 28ZM21 28L21 29L22 29L22 28ZM25 28L25 29L27 29L27 28ZM5 29L5 31L6 31L6 32L7 32L7 31L6 31L6 30L7 30L7 29ZM12 29L12 30L13 30L13 31L12 31L12 33L11 33L11 34L12 34L12 33L13 33L13 31L14 31L14 30L13 30L13 29ZM15 30L15 32L14 32L14 34L15 34L15 32L16 32L16 31L17 31L17 30ZM38 31L38 32L37 32L37 34L38 34L38 36L39 36L39 34L38 34L38 32L39 32L39 33L40 33L40 32L39 32L39 31ZM3 32L3 33L4 33L4 32ZM25 33L25 34L22 34L22 36L23 36L23 35L25 35L25 34L26 34L26 33ZM30 33L30 34L31 34L31 33ZM33 33L33 36L36 36L36 33ZM34 34L34 35L35 35L35 34ZM19 35L19 36L20 36L20 35ZM30 38L30 39L31 39L31 38ZM12 39L12 40L14 40L14 39ZM29 40L29 41L30 41L30 40ZM0 0L0 7L7 7L7 0ZM1 1L1 6L6 6L6 1ZM2 2L2 5L5 5L5 2ZM34 0L34 7L41 7L41 0ZM35 1L35 6L40 6L40 1ZM36 2L36 5L39 5L39 2ZM0 34L0 41L7 41L7 34ZM1 35L1 40L6 40L6 35ZM2 36L2 39L5 39L5 36Z" fill="#000000"/></g></g></svg>
