<?xml version="1.0" encoding="UTF-8"?>
<svg xmlns="http://www.w3.org/2000/svg" version="1.1" width="400" height="400" viewBox="0 0 400 400"><rect x="0" y="0" width="400" height="400" fill="#ffffff"/><g transform="scale(12.121)"><g transform="translate(0,0)"><path fill-rule="evenodd" d="M9 0L9 1L8 1L8 2L9 2L9 3L8 3L8 4L10 4L10 7L11 7L11 4L12 4L12 5L13 5L13 6L12 6L12 9L14 9L14 8L13 8L13 6L14 6L14 7L15 7L15 9L16 9L16 10L15 10L15 12L12 12L12 11L14 11L14 10L11 10L11 11L10 11L10 9L11 9L11 8L6 8L6 9L5 9L5 8L0 8L0 9L5 9L5 11L7 11L7 12L6 12L6 13L7 13L7 12L8 12L8 14L5 14L5 12L4 12L4 11L3 11L3 10L2 10L2 11L1 11L1 12L0 12L0 17L2 17L2 18L4 18L4 17L5 17L5 16L6 16L6 17L7 17L7 18L6 18L6 19L4 19L4 20L2 20L2 19L1 19L1 18L0 18L0 25L1 25L1 22L6 22L6 23L7 23L7 24L5 24L5 23L4 23L4 24L5 24L5 25L7 25L7 24L9 24L9 23L10 23L10 22L9 22L9 23L8 23L8 22L6 22L6 21L8 21L8 19L7 19L7 18L10 18L10 19L11 19L11 20L10 20L10 21L11 21L11 22L14 22L14 23L15 23L15 24L13 24L13 23L12 23L12 24L10 24L10 25L8 25L8 27L9 27L9 28L8 28L8 33L9 33L9 32L10 32L10 33L11 33L11 32L10 32L10 31L9 31L9 29L10 29L10 30L12 30L12 29L10 29L10 28L13 28L13 29L14 29L14 30L13 30L13 31L15 31L15 32L12 32L12 33L21 33L21 32L24 32L24 33L25 33L25 32L26 32L26 31L27 31L27 30L29 30L29 31L28 31L28 33L32 33L32 32L31 32L31 31L32 31L32 30L29 30L29 29L30 29L30 28L31 28L31 27L32 27L32 26L33 26L33 23L31 23L31 21L29 21L29 20L31 20L31 19L32 19L32 20L33 20L33 19L32 19L32 18L33 18L33 17L32 17L32 16L31 16L31 15L32 15L32 14L33 14L33 13L32 13L32 10L33 10L33 9L32 9L32 8L31 8L31 9L32 9L32 10L30 10L30 8L29 8L29 10L28 10L28 8L27 8L27 9L26 9L26 8L25 8L25 5L24 5L24 4L25 4L25 3L24 3L24 4L19 4L19 3L22 3L22 2L18 2L18 1L25 1L25 0L18 0L18 1L15 1L15 4L14 4L14 3L13 3L13 4L12 4L12 2L14 2L14 1L11 1L11 2L10 2L10 0ZM17 2L17 3L16 3L16 4L15 4L15 5L14 5L14 6L15 6L15 7L16 7L16 8L18 8L18 6L19 6L19 7L20 7L20 8L19 8L19 9L17 9L17 10L19 10L19 12L18 12L18 11L16 11L16 12L15 12L15 13L13 13L13 14L12 14L12 13L11 13L11 12L10 12L10 13L9 13L9 14L8 14L8 16L7 16L7 15L6 15L6 16L7 16L7 17L8 17L8 16L9 16L9 17L10 17L10 18L11 18L11 19L12 19L12 18L13 18L13 20L14 20L14 18L16 18L16 19L15 19L15 20L16 20L16 21L14 21L14 22L16 22L16 23L17 23L17 24L15 24L15 25L14 25L14 26L13 26L13 24L12 24L12 26L11 26L11 27L12 27L12 26L13 26L13 28L14 28L14 27L15 27L15 28L16 28L16 29L15 29L15 30L18 30L18 31L16 31L16 32L18 32L18 31L19 31L19 32L21 32L21 30L25 30L25 31L24 31L24 32L25 32L25 31L26 31L26 30L27 30L27 29L26 29L26 30L25 30L25 29L24 29L24 27L23 27L23 26L22 26L22 25L24 25L24 24L27 24L27 23L29 23L29 21L27 21L27 20L29 20L29 19L31 19L31 18L32 18L32 17L31 17L31 16L30 16L30 17L31 17L31 18L29 18L29 17L28 17L28 19L27 19L27 18L26 18L26 17L27 17L27 15L26 15L26 14L25 14L25 15L26 15L26 17L25 17L25 16L24 16L24 14L23 14L23 15L22 15L22 16L20 16L20 14L21 14L21 13L23 13L23 12L25 12L25 13L28 13L28 14L32 14L32 13L31 13L31 12L29 12L29 13L28 13L28 12L26 12L26 11L27 11L27 10L26 10L26 9L24 9L24 8L21 8L21 7L22 7L22 6L23 6L23 7L24 7L24 5L22 5L22 6L21 6L21 5L19 5L19 4L17 4L17 3L18 3L18 2ZM10 3L10 4L11 4L11 3ZM16 4L16 5L15 5L15 6L16 6L16 7L17 7L17 6L18 6L18 5L17 5L17 4ZM8 5L8 7L9 7L9 5ZM16 5L16 6L17 6L17 5ZM20 6L20 7L21 7L21 6ZM20 8L20 9L19 9L19 10L20 10L20 11L21 11L21 12L19 12L19 13L18 13L18 12L16 12L16 14L14 14L14 15L15 15L15 16L13 16L13 17L16 17L16 18L18 18L18 20L17 20L17 22L18 22L18 24L17 24L17 25L18 25L18 26L17 26L17 27L19 27L19 26L21 26L21 28L20 28L20 29L19 29L19 28L17 28L17 29L19 29L19 30L20 30L20 29L21 29L21 28L23 28L23 27L22 27L22 26L21 26L21 25L18 25L18 24L20 24L20 23L19 23L19 22L21 22L21 24L22 24L22 23L23 23L23 24L24 24L24 23L26 23L26 22L27 22L27 21L24 21L24 20L26 20L26 19L24 19L24 20L22 20L22 19L21 19L21 20L22 20L22 21L19 21L19 20L20 20L20 19L19 19L19 18L20 18L20 16L19 16L19 14L20 14L20 13L21 13L21 12L23 12L23 10L24 10L24 9L23 9L23 10L20 10L20 9L21 9L21 8ZM6 9L6 10L7 10L7 11L8 11L8 12L9 12L9 10L8 10L8 9ZM29 10L29 11L30 11L30 10ZM2 12L2 14L1 14L1 16L2 16L2 14L3 14L3 12ZM10 13L10 14L9 14L9 16L10 16L10 17L11 17L11 18L12 18L12 16L10 16L10 15L11 15L11 13ZM17 13L17 14L16 14L16 15L17 15L17 16L18 16L18 15L17 15L17 14L18 14L18 13ZM4 14L4 15L3 15L3 16L5 16L5 14ZM28 15L28 16L29 16L29 15ZM22 16L22 17L21 17L21 18L22 18L22 17L23 17L23 18L25 18L25 17L24 17L24 16ZM18 17L18 18L19 18L19 17ZM6 19L6 20L7 20L7 19ZM4 20L4 21L5 21L5 20ZM11 20L11 21L12 21L12 20ZM18 21L18 22L19 22L19 21ZM22 21L22 22L23 22L23 23L24 23L24 22L23 22L23 21ZM32 21L32 22L33 22L33 21ZM2 23L2 24L3 24L3 23ZM30 24L30 25L29 25L29 27L31 27L31 26L30 26L30 25L32 25L32 24ZM25 25L25 28L28 28L28 25ZM15 26L15 27L16 27L16 26ZM26 26L26 27L27 27L27 26ZM32 28L32 29L33 29L33 28ZM0 0L0 7L7 7L7 0ZM1 1L1 6L6 6L6 1ZM2 2L2 5L5 5L5 2ZM26 0L26 7L33 7L33 0ZM27 1L27 6L32 6L32 1ZM28 2L28 5L31 5L31 2ZM0 26L0 33L7 33L7 26ZM1 27L1 32L6 32L6 27ZM2 28L2 31L5 31L5 28Z" fill="#000000"/></g></g></svg>
