<?xml version="1.0" encoding="UTF-8"?>
<svg xmlns="http://www.w3.org/2000/svg" version="1.1" width="400" height="400" viewBox="0 0 400 400"><rect x="0" y="0" width="400" height="400" fill="#ffffff"/><g transform="scale(4.494)"><g transform="translate(0,0)"><path fill-rule="evenodd" d="M9 0L9 1L8 1L8 2L9 2L9 3L8 3L8 4L9 4L9 5L8 5L8 7L9 7L9 6L10 6L10 8L11 8L11 6L10 6L10 5L11 5L11 4L12 4L12 7L13 7L13 8L12 8L12 9L13 9L13 8L14 8L14 10L11 10L11 11L13 11L13 12L14 12L14 13L15 13L15 14L14 14L14 15L13 15L13 16L11 16L11 15L12 15L12 14L13 14L13 13L12 13L12 12L11 12L11 13L10 13L10 17L9 17L9 16L6 16L6 17L8 17L8 19L7 19L7 18L5 18L5 19L4 19L4 15L2 15L2 12L1 12L1 11L2 11L2 9L4 9L4 14L5 14L5 11L7 11L7 12L6 12L6 13L9 13L9 12L10 12L10 9L9 9L9 8L6 8L6 9L7 9L7 10L5 10L5 8L0 8L0 10L1 10L1 11L0 11L0 13L1 13L1 15L0 15L0 17L1 17L1 18L2 18L2 20L1 20L1 19L0 19L0 20L1 20L1 21L0 21L0 23L1 23L1 24L0 24L0 27L1 27L1 28L0 28L0 29L1 29L1 30L0 30L0 31L1 31L1 30L2 30L2 29L4 29L4 31L3 31L3 32L0 32L0 34L3 34L3 35L7 35L7 36L4 36L4 38L3 38L3 36L2 36L2 37L1 37L1 38L0 38L0 39L1 39L1 38L3 38L3 39L2 39L2 40L1 40L1 41L0 41L0 42L1 42L1 43L0 43L0 45L1 45L1 47L2 47L2 49L3 49L3 50L2 50L2 51L3 51L3 50L4 50L4 49L5 49L5 54L4 54L4 56L3 56L3 58L2 58L2 56L1 56L1 55L2 55L2 54L3 54L3 53L4 53L4 52L1 52L1 51L0 51L0 53L1 53L1 55L0 55L0 56L1 56L1 58L0 58L0 60L2 60L2 61L0 61L0 62L4 62L4 61L7 61L7 62L5 62L5 63L8 63L8 64L4 64L4 63L3 63L3 64L2 64L2 65L1 65L1 64L0 64L0 65L1 65L1 66L0 66L0 68L1 68L1 71L0 71L0 73L1 73L1 74L0 74L0 75L1 75L1 74L2 74L2 75L4 75L4 76L3 76L3 79L4 79L4 80L3 80L3 81L4 81L4 80L6 80L6 81L8 81L8 83L9 83L9 84L8 84L8 89L9 89L9 88L10 88L10 89L11 89L11 86L12 86L12 88L13 88L13 86L12 86L12 85L11 85L11 86L10 86L10 87L9 87L9 85L10 85L10 84L11 84L11 83L13 83L13 85L14 85L14 86L16 86L16 85L17 85L17 86L18 86L18 85L20 85L20 84L21 84L21 85L24 85L24 87L23 87L23 89L25 89L25 88L26 88L26 89L28 89L28 87L25 87L25 85L26 85L26 86L29 86L29 88L33 88L33 89L35 89L35 88L34 88L34 87L35 87L35 86L39 86L39 83L40 83L40 84L41 84L41 86L43 86L43 88L42 88L42 87L39 87L39 89L40 89L40 88L42 88L42 89L43 89L43 88L46 88L46 89L50 89L50 87L51 87L51 88L54 88L54 89L56 89L56 88L57 88L57 89L58 89L58 88L57 88L57 87L58 87L58 86L55 86L55 85L59 85L59 84L60 84L60 83L59 83L59 82L60 82L60 81L59 81L59 80L61 80L61 81L62 81L62 82L61 82L61 85L60 85L60 86L61 86L61 87L59 87L59 88L62 88L62 89L67 89L67 88L69 88L69 87L68 87L68 86L67 86L67 85L66 85L66 86L65 86L65 85L64 85L64 84L63 84L63 85L64 85L64 88L62 88L62 86L61 86L61 85L62 85L62 83L65 83L65 84L68 84L68 85L69 85L69 86L70 86L70 85L69 85L69 84L70 84L70 83L71 83L71 84L72 84L72 83L71 83L71 80L72 80L72 81L74 81L74 82L73 82L73 84L74 84L74 86L73 86L73 87L70 87L70 89L71 89L71 88L73 88L73 87L74 87L74 88L75 88L75 89L77 89L77 87L78 87L78 89L80 89L80 87L78 87L78 86L79 86L79 84L77 84L77 85L78 85L78 86L77 86L77 87L76 87L76 86L75 86L75 85L76 85L76 84L75 84L75 83L80 83L80 86L81 86L81 85L87 85L87 88L85 88L85 86L82 86L82 87L81 87L81 88L83 88L83 89L84 89L84 88L85 88L85 89L87 89L87 88L88 88L88 85L87 85L87 84L86 84L86 81L87 81L87 82L89 82L89 81L88 81L88 80L89 80L89 79L87 79L87 80L86 80L86 78L85 78L85 77L84 77L84 79L83 79L83 80L81 80L81 79L82 79L82 78L83 78L83 77L82 77L82 76L81 76L81 77L79 77L79 74L80 74L80 75L81 75L81 74L80 74L80 73L82 73L82 75L83 75L83 76L84 76L84 75L85 75L85 76L86 76L86 77L87 77L87 78L89 78L89 77L87 77L87 76L89 76L89 75L88 75L88 74L89 74L89 73L88 73L88 72L89 72L89 71L88 71L88 70L89 70L89 69L88 69L88 66L89 66L89 65L88 65L88 64L89 64L89 59L87 59L87 58L86 58L86 57L87 57L87 56L88 56L88 55L87 55L87 56L86 56L86 55L85 55L85 54L86 54L86 53L87 53L87 54L89 54L89 52L86 52L86 51L85 51L85 50L86 50L86 49L88 49L88 50L87 50L87 51L88 51L88 50L89 50L89 49L88 49L88 48L86 48L86 49L85 49L85 48L84 48L84 47L83 47L83 48L82 48L82 47L81 47L81 46L82 46L82 45L83 45L83 46L85 46L85 44L86 44L86 47L88 47L88 46L89 46L89 45L88 45L88 42L89 42L89 40L88 40L88 39L87 39L87 40L86 40L86 37L87 37L87 36L88 36L88 35L87 35L87 36L86 36L86 34L87 34L87 32L86 32L86 31L87 31L87 30L89 30L89 29L88 29L88 28L86 28L86 27L88 27L88 26L89 26L89 24L88 24L88 23L87 23L87 26L86 26L86 27L84 27L84 26L85 26L85 25L86 25L86 23L84 23L84 22L85 22L85 21L87 21L87 22L89 22L89 21L88 21L88 18L89 18L89 15L88 15L88 14L89 14L89 11L88 11L88 13L87 13L87 12L86 12L86 11L84 11L84 12L83 12L83 11L81 11L81 10L80 10L80 13L81 13L81 14L80 14L80 16L79 16L79 14L75 14L75 15L74 15L74 14L73 14L73 13L72 13L72 14L70 14L70 13L69 13L69 14L70 14L70 15L68 15L68 13L66 13L66 12L72 12L72 11L66 11L66 10L64 10L64 8L66 8L66 9L67 9L67 10L68 10L68 9L67 9L67 8L69 8L69 10L73 10L73 11L74 11L74 12L75 12L75 13L76 13L76 12L75 12L75 11L78 11L78 13L79 13L79 9L80 9L80 7L81 7L81 6L80 6L80 4L81 4L81 3L80 3L80 4L79 4L79 3L78 3L78 4L79 4L79 6L78 6L78 5L77 5L77 2L76 2L76 0L75 0L75 2L74 2L74 1L73 1L73 3L75 3L75 4L74 4L74 5L73 5L73 4L72 4L72 5L71 5L71 6L70 6L70 7L69 7L69 5L70 5L70 4L69 4L69 5L68 5L68 7L67 7L67 6L66 6L66 5L67 5L67 3L68 3L68 2L69 2L69 3L70 3L70 2L71 2L71 3L72 3L72 2L71 2L71 1L72 1L72 0L71 0L71 1L70 1L70 0L69 0L69 1L68 1L68 0L66 0L66 1L65 1L65 0L62 0L62 1L60 1L60 2L59 2L59 3L58 3L58 2L56 2L56 3L57 3L57 4L54 4L54 3L53 3L53 2L52 2L52 1L54 1L54 2L55 2L55 1L56 1L56 0L55 0L55 1L54 1L54 0L51 0L51 1L50 1L50 2L49 2L49 0L48 0L48 1L45 1L45 0L41 0L41 1L42 1L42 4L40 4L40 7L39 7L39 5L38 5L38 4L39 4L39 3L38 3L38 4L37 4L37 3L36 3L36 4L37 4L37 5L36 5L36 7L35 7L35 6L34 6L34 5L35 5L35 1L36 1L36 2L39 2L39 1L38 1L38 0L35 0L35 1L34 1L34 3L33 3L33 1L32 1L32 0L31 0L31 2L28 2L28 1L29 1L29 0L27 0L27 1L26 1L26 0L24 0L24 3L23 3L23 1L22 1L22 3L23 3L23 4L21 4L21 5L19 5L19 3L20 3L20 1L19 1L19 0L12 0L12 1L15 1L15 2L13 2L13 3L15 3L15 4L14 4L14 7L13 7L13 4L12 4L12 2L11 2L11 0ZM57 0L57 1L58 1L58 0ZM77 0L77 1L79 1L79 2L80 2L80 1L81 1L81 0ZM17 1L17 2L16 2L16 4L15 4L15 5L16 5L16 6L15 6L15 11L14 11L14 12L15 12L15 13L17 13L17 11L20 11L20 10L22 10L22 13L21 13L21 14L22 14L22 13L23 13L23 14L25 14L25 15L26 15L26 16L25 16L25 17L27 17L27 18L25 18L25 19L24 19L24 17L23 17L23 16L22 16L22 17L21 17L21 16L20 16L20 17L19 17L19 16L18 16L18 17L16 17L16 20L13 20L13 19L12 19L12 17L11 17L11 18L9 18L9 22L7 22L7 21L6 21L6 20L7 20L7 19L6 19L6 20L4 20L4 19L3 19L3 20L2 20L2 24L1 24L1 27L2 27L2 26L4 26L4 28L7 28L7 27L8 27L8 26L9 26L9 33L5 33L5 34L8 34L8 35L9 35L9 36L8 36L8 37L11 37L11 38L10 38L10 39L8 39L8 38L7 38L7 37L6 37L6 38L7 38L7 39L6 39L6 40L5 40L5 41L4 41L4 39L3 39L3 41L1 41L1 42L3 42L3 41L4 41L4 42L5 42L5 41L6 41L6 42L7 42L7 41L6 41L6 40L8 40L8 42L9 42L9 44L8 44L8 45L6 45L6 46L7 46L7 47L5 47L5 46L4 46L4 47L3 47L3 48L4 48L4 47L5 47L5 49L6 49L6 50L7 50L7 49L8 49L8 47L12 47L12 49L11 49L11 48L10 48L10 49L9 49L9 50L8 50L8 51L6 51L6 52L7 52L7 53L6 53L6 54L7 54L7 53L9 53L9 51L10 51L10 50L12 50L12 53L13 53L13 54L14 54L14 53L17 53L17 54L15 54L15 55L17 55L17 56L18 56L18 54L19 54L19 56L20 56L20 57L19 57L19 59L18 59L18 61L17 61L17 59L16 59L16 58L15 58L15 57L16 57L16 56L14 56L14 55L12 55L12 54L11 54L11 53L10 53L10 54L9 54L9 59L6 59L6 60L9 60L9 61L8 61L8 63L9 63L9 62L10 62L10 63L11 63L11 64L10 64L10 66L11 66L11 68L9 68L9 67L8 67L8 65L9 65L9 64L8 64L8 65L6 65L6 66L5 66L5 65L4 65L4 64L3 64L3 66L1 66L1 68L4 68L4 70L3 70L3 71L4 71L4 72L2 72L2 73L5 73L5 74L4 74L4 75L5 75L5 76L4 76L4 79L6 79L6 80L7 80L7 79L8 79L8 78L9 78L9 80L8 80L8 81L9 81L9 82L10 82L10 83L11 83L11 81L12 81L12 80L13 80L13 81L14 81L14 83L15 83L15 84L17 84L17 85L18 85L18 84L17 84L17 83L19 83L19 82L22 82L22 81L21 81L21 80L20 80L20 81L18 81L18 82L17 82L17 79L18 79L18 80L19 80L19 77L20 77L20 78L21 78L21 77L20 77L20 76L21 76L21 74L22 74L22 76L23 76L23 75L24 75L24 77L22 77L22 78L25 78L25 79L22 79L22 80L25 80L25 81L23 81L23 82L25 82L25 81L26 81L26 82L27 82L27 84L26 84L26 85L27 85L27 84L28 84L28 82L27 82L27 80L29 80L29 79L30 79L30 78L29 78L29 77L30 77L30 76L31 76L31 78L33 78L33 79L32 79L32 80L34 80L34 82L35 82L35 83L34 83L34 85L32 85L32 87L33 87L33 86L35 86L35 84L37 84L37 85L38 85L38 84L37 84L37 83L38 83L38 82L39 82L39 81L41 81L41 80L40 80L40 79L41 79L41 78L39 78L39 77L41 77L41 76L42 76L42 75L43 75L43 78L42 78L42 79L43 79L43 80L44 80L44 82L40 82L40 83L41 83L41 84L42 84L42 85L44 85L44 86L48 86L48 85L47 85L47 84L49 84L49 83L47 83L47 82L49 82L49 81L48 81L48 80L50 80L50 83L51 83L51 80L50 80L50 79L48 79L48 78L47 78L47 77L48 77L48 76L52 76L52 77L53 77L53 78L52 78L52 79L54 79L54 80L52 80L52 81L53 81L53 82L52 82L52 83L53 83L53 84L52 84L52 86L51 86L51 84L50 84L50 85L49 85L49 87L48 87L48 88L49 88L49 87L50 87L50 86L51 86L51 87L53 87L53 86L54 86L54 87L55 87L55 86L54 86L54 85L53 85L53 84L54 84L54 80L55 80L55 79L56 79L56 76L55 76L55 77L53 77L53 76L52 76L52 75L54 75L54 74L55 74L55 75L56 75L56 74L55 74L55 73L58 73L58 74L60 74L60 72L62 72L62 73L61 73L61 74L62 74L62 75L63 75L63 76L64 76L64 77L63 77L63 79L61 79L61 78L62 78L62 77L61 77L61 75L60 75L60 76L59 76L59 77L58 77L58 76L57 76L57 77L58 77L58 79L59 79L59 78L60 78L60 79L61 79L61 80L62 80L62 81L63 81L63 80L64 80L64 81L65 81L65 82L66 82L66 81L65 81L65 80L64 80L64 79L65 79L65 78L66 78L66 79L67 79L67 78L68 78L68 80L67 80L67 81L68 81L68 80L70 80L70 79L71 79L71 78L72 78L72 77L73 77L73 78L75 78L75 80L74 80L74 79L73 79L73 80L74 80L74 81L75 81L75 82L74 82L74 83L75 83L75 82L78 82L78 80L79 80L79 81L80 81L80 79L81 79L81 78L82 78L82 77L81 77L81 78L79 78L79 77L77 77L77 78L76 78L76 77L75 77L75 76L76 76L76 75L75 75L75 74L79 74L79 73L80 73L80 71L81 71L81 70L82 70L82 71L84 71L84 70L82 70L82 69L83 69L83 68L84 68L84 69L85 69L85 72L82 72L82 73L86 73L86 76L87 76L87 74L88 74L88 73L86 73L86 72L88 72L88 71L86 71L86 70L88 70L88 69L86 69L86 68L87 68L87 66L88 66L88 65L86 65L86 66L82 66L82 67L81 67L81 66L78 66L78 65L77 65L77 66L76 66L76 67L73 67L73 66L74 66L74 65L75 65L75 64L78 64L78 63L76 63L76 62L78 62L78 61L81 61L81 62L82 62L82 61L86 61L86 63L85 63L85 64L84 64L84 65L85 65L85 64L87 64L87 61L88 61L88 60L87 60L87 59L86 59L86 58L85 58L85 59L86 59L86 60L81 60L81 59L80 59L80 56L79 56L79 55L80 55L80 54L81 54L81 52L83 52L83 53L82 53L82 54L83 54L83 53L84 53L84 52L85 52L85 53L86 53L86 52L85 52L85 51L84 51L84 50L85 50L85 49L81 49L81 47L80 47L80 46L81 46L81 45L82 45L82 44L83 44L83 43L82 43L82 44L81 44L81 43L79 43L79 40L77 40L77 38L78 38L78 37L77 37L77 36L79 36L79 35L80 35L80 37L79 37L79 39L80 39L80 42L81 42L81 40L83 40L83 39L84 39L84 40L85 40L85 42L86 42L86 44L87 44L87 42L88 42L88 40L87 40L87 41L86 41L86 40L85 40L85 38L83 38L83 37L82 37L82 36L83 36L83 35L84 35L84 34L83 34L83 33L82 33L82 34L83 34L83 35L82 35L82 36L81 36L81 35L80 35L80 34L81 34L81 33L79 33L79 35L75 35L75 33L74 33L74 32L76 32L76 33L77 33L77 34L78 34L78 33L77 33L77 32L78 32L78 31L79 31L79 32L80 32L80 29L79 29L79 30L78 30L78 29L76 29L76 30L75 30L75 29L72 29L72 28L76 28L76 27L77 27L77 28L82 28L82 27L83 27L83 28L84 28L84 27L83 27L83 24L84 24L84 25L85 25L85 24L84 24L84 23L83 23L83 20L82 20L82 19L83 19L83 17L85 17L85 18L84 18L84 19L85 19L85 20L87 20L87 18L88 18L88 17L85 17L85 16L88 16L88 15L87 15L87 14L86 14L86 15L85 15L85 14L84 14L84 13L86 13L86 12L84 12L84 13L82 13L82 14L81 14L81 15L85 15L85 16L80 16L80 17L79 17L79 20L78 20L78 21L77 21L77 20L76 20L76 19L77 19L77 18L78 18L78 17L77 17L77 18L75 18L75 16L78 16L78 15L75 15L75 16L74 16L74 17L73 17L73 18L72 18L72 16L73 16L73 15L72 15L72 16L71 16L71 15L70 15L70 16L69 16L69 17L70 17L70 18L68 18L68 20L67 20L67 22L68 22L68 21L69 21L69 19L70 19L70 18L72 18L72 19L73 19L73 18L74 18L74 20L76 20L76 21L77 21L77 22L78 22L78 23L76 23L76 22L75 22L75 21L73 21L73 20L70 20L70 22L69 22L69 23L68 23L68 24L67 24L67 23L66 23L66 24L65 24L65 23L62 23L62 24L61 24L61 23L60 23L60 22L59 22L59 23L58 23L58 22L54 22L54 21L57 21L57 20L56 20L56 18L55 18L55 19L54 19L54 20L51 20L51 19L50 19L50 18L54 18L54 17L53 17L53 16L55 16L55 17L58 17L58 18L59 18L59 19L60 19L60 20L59 20L59 21L60 21L60 20L62 20L62 19L63 19L63 20L64 20L64 17L63 17L63 16L64 16L64 15L65 15L65 18L66 18L66 19L67 19L67 18L66 18L66 16L67 16L67 17L68 17L68 16L67 16L67 14L66 14L66 13L65 13L65 11L64 11L64 10L63 10L63 8L64 8L64 6L65 6L65 7L66 7L66 6L65 6L65 5L66 5L66 4L64 4L64 5L63 5L63 8L62 8L62 6L61 6L61 7L60 7L60 6L59 6L59 7L60 7L60 8L59 8L59 9L58 9L58 10L55 10L55 11L56 11L56 12L54 12L54 11L53 11L53 10L54 10L54 8L52 8L52 5L54 5L54 4L53 4L53 3L52 3L52 5L51 5L51 2L50 2L50 3L49 3L49 2L47 2L47 3L44 3L44 2L45 2L45 1L44 1L44 2L43 2L43 3L44 3L44 6L43 6L43 5L41 5L41 7L42 7L42 8L39 8L39 7L38 7L38 5L37 5L37 9L38 9L38 10L37 10L37 11L36 11L36 12L37 12L37 11L38 11L38 10L39 10L39 12L38 12L38 13L37 13L37 15L36 15L36 13L35 13L35 11L31 11L31 9L30 9L30 12L31 12L31 13L29 13L29 11L28 11L28 5L25 5L25 4L28 4L28 2L27 2L27 3L26 3L26 1L25 1L25 3L24 3L24 4L23 4L23 5L21 5L21 7L22 7L22 6L23 6L23 7L24 7L24 8L25 8L25 9L23 9L23 8L22 8L22 9L21 9L21 8L20 8L20 10L18 10L18 9L16 9L16 8L17 8L17 7L18 7L18 8L19 8L19 7L20 7L20 6L19 6L19 5L17 5L17 3L19 3L19 2L18 2L18 1ZM62 1L62 2L60 2L60 3L59 3L59 4L60 4L60 5L62 5L62 2L63 2L63 3L64 3L64 2L65 2L65 3L66 3L66 2L65 2L65 1L64 1L64 2L63 2L63 1ZM67 1L67 2L68 2L68 1ZM69 1L69 2L70 2L70 1ZM10 2L10 3L9 3L9 4L11 4L11 2ZM40 2L40 3L41 3L41 2ZM75 2L75 3L76 3L76 2ZM29 3L29 4L30 4L30 3ZM32 3L32 4L33 4L33 5L34 5L34 4L33 4L33 3ZM47 3L47 4L48 4L48 5L46 5L46 7L45 7L45 6L44 6L44 8L42 8L42 10L43 10L43 9L44 9L44 11L43 11L43 12L41 12L41 9L40 9L40 12L41 12L41 13L39 13L39 15L40 15L40 16L42 16L42 15L40 15L40 14L41 14L41 13L42 13L42 14L44 14L44 13L43 13L43 12L45 12L45 13L47 13L47 12L46 12L46 11L45 11L45 9L47 9L47 11L49 11L49 12L48 12L48 13L49 13L49 14L50 14L50 15L49 15L49 16L48 16L48 17L49 17L49 18L50 18L50 17L49 17L49 16L50 16L50 15L51 15L51 14L52 14L52 16L53 16L53 13L51 13L51 14L50 14L50 11L52 11L52 12L53 12L53 11L52 11L52 10L53 10L53 9L52 9L52 10L50 10L50 9L51 9L51 8L50 8L50 7L51 7L51 5L50 5L50 7L49 7L49 3ZM75 4L75 5L76 5L76 4ZM24 5L24 7L25 7L25 8L26 8L26 7L27 7L27 6L26 6L26 7L25 7L25 5ZM29 5L29 8L32 8L32 5ZM55 5L55 8L58 8L58 5ZM16 6L16 7L17 7L17 6ZM18 6L18 7L19 7L19 6ZM30 6L30 7L31 7L31 6ZM33 6L33 9L32 9L32 10L36 10L36 9L35 9L35 7L34 7L34 6ZM42 6L42 7L43 7L43 6ZM47 6L47 7L46 7L46 8L47 8L47 9L48 9L48 8L49 8L49 9L50 9L50 8L49 8L49 7L48 7L48 6ZM53 6L53 7L54 7L54 6ZM56 6L56 7L57 7L57 6ZM71 6L71 7L72 7L72 8L70 8L70 9L72 9L72 8L73 8L73 10L74 10L74 11L75 11L75 10L78 10L78 9L77 9L77 7L78 7L78 6L77 6L77 7L76 7L76 6L75 6L75 8L73 8L73 7L74 7L74 6L73 6L73 7L72 7L72 6ZM79 6L79 7L80 7L80 6ZM47 7L47 8L48 8L48 7ZM38 8L38 9L39 9L39 8ZM44 8L44 9L45 9L45 8ZM60 8L60 11L59 11L59 10L58 10L58 11L57 11L57 12L56 12L56 13L54 13L54 14L56 14L56 15L57 15L57 14L58 14L58 15L59 15L59 16L58 16L58 17L59 17L59 18L60 18L60 19L62 19L62 18L63 18L63 17L62 17L62 18L60 18L60 17L61 17L61 15L62 15L62 16L63 16L63 15L64 15L64 12L63 12L63 15L62 15L62 14L61 14L61 15L60 15L60 13L59 13L59 12L60 12L60 11L63 11L63 10L61 10L61 9L62 9L62 8ZM75 8L75 9L74 9L74 10L75 10L75 9L76 9L76 8ZM81 8L81 9L82 9L82 10L84 10L84 8L83 8L83 9L82 9L82 8ZM85 8L85 10L87 10L87 9L88 9L88 10L89 10L89 9L88 9L88 8L87 8L87 9L86 9L86 8ZM25 9L25 10L26 10L26 11L27 11L27 12L26 12L26 13L27 13L27 14L26 14L26 15L29 15L29 14L28 14L28 13L27 13L27 12L28 12L28 11L27 11L27 10L26 10L26 9ZM49 10L49 11L50 11L50 10ZM8 11L8 12L9 12L9 11ZM15 11L15 12L16 12L16 11ZM23 11L23 13L25 13L25 11ZM58 11L58 12L59 12L59 11ZM18 12L18 14L17 14L17 15L19 15L19 13L20 13L20 12ZM33 12L33 13L31 13L31 14L30 14L30 15L31 15L31 16L30 16L30 17L29 17L29 16L28 16L28 18L30 18L30 19L27 19L27 21L29 21L29 22L28 22L28 23L26 23L26 25L25 25L25 24L23 24L23 25L24 25L24 26L26 26L26 25L27 25L27 26L29 26L29 27L30 27L30 25L33 25L33 26L32 26L32 27L33 27L33 28L28 28L28 27L26 27L26 28L27 28L27 29L25 29L25 30L26 30L26 31L24 31L24 30L22 30L22 29L24 29L24 28L25 28L25 27L24 27L24 28L22 28L22 27L23 27L23 26L21 26L21 25L22 25L22 24L21 24L21 23L19 23L19 19L18 19L18 22L17 22L17 20L16 20L16 22L15 22L15 24L14 24L14 23L13 23L13 22L11 22L11 23L8 23L8 25L7 25L7 24L4 24L4 23L3 23L3 24L2 24L2 25L3 25L3 24L4 24L4 26L6 26L6 27L7 27L7 26L8 26L8 25L9 25L9 26L11 26L11 25L12 25L12 26L13 26L13 28L12 28L12 27L11 27L11 28L10 28L10 30L12 30L12 31L14 31L14 32L13 32L13 34L11 34L11 33L10 33L10 34L9 34L9 35L10 35L10 34L11 34L11 37L12 37L12 38L11 38L11 39L10 39L10 40L9 40L9 41L10 41L10 42L11 42L11 43L10 43L10 44L9 44L9 46L10 46L10 44L11 44L11 46L12 46L12 47L13 47L13 48L14 48L14 47L13 47L13 46L15 46L15 47L16 47L16 48L17 48L17 53L18 53L18 51L19 51L19 52L21 52L21 49L24 49L24 50L22 50L22 52L24 52L24 51L25 51L25 52L26 52L26 51L27 51L27 50L26 50L26 49L29 49L29 50L28 50L28 53L25 53L25 54L23 54L23 53L20 53L20 54L21 54L21 55L20 55L20 56L21 56L21 57L22 57L22 58L23 58L23 57L25 57L25 58L26 58L26 59L28 59L28 60L26 60L26 61L27 61L27 62L24 62L24 63L25 63L25 64L22 64L22 63L23 63L23 61L24 61L24 60L25 60L25 59L24 59L24 60L23 60L23 59L22 59L22 60L19 60L19 61L18 61L18 62L16 62L16 59L15 59L15 58L14 58L14 56L13 56L13 58L14 58L14 59L15 59L15 60L13 60L13 59L12 59L12 60L11 60L11 59L9 59L9 60L10 60L10 62L11 62L11 63L12 63L12 65L11 65L11 66L12 66L12 68L11 68L11 69L10 69L10 70L9 70L9 68L8 68L8 67L7 67L7 66L6 66L6 67L5 67L5 69L7 69L7 70L6 70L6 71L5 71L5 72L6 72L6 73L7 73L7 72L6 72L6 71L8 71L8 70L9 70L9 71L10 71L10 72L9 72L9 73L10 73L10 74L6 74L6 75L8 75L8 76L6 76L6 77L8 77L8 76L9 76L9 77L10 77L10 78L11 78L11 80L12 80L12 78L11 78L11 77L10 77L10 76L11 76L11 73L10 73L10 72L11 72L11 70L12 70L12 71L13 71L13 70L14 70L14 69L15 69L15 71L14 71L14 72L12 72L12 73L13 73L13 74L14 74L14 75L13 75L13 76L12 76L12 77L13 77L13 76L14 76L14 78L13 78L13 80L14 80L14 78L15 78L15 79L17 79L17 78L18 78L18 77L19 77L19 76L20 76L20 75L18 75L18 73L16 73L16 72L15 72L15 71L16 71L16 70L18 70L18 69L20 69L20 67L21 67L21 65L24 65L24 66L22 66L22 67L25 67L25 66L27 66L27 67L26 67L26 68L29 68L29 69L28 69L28 71L29 71L29 74L28 74L28 72L26 72L26 73L25 73L25 72L23 72L23 73L25 73L25 74L24 74L24 75L25 75L25 74L26 74L26 77L25 77L25 78L26 78L26 79L29 79L29 78L27 78L27 77L28 77L28 76L30 76L30 75L33 75L33 76L32 76L32 77L33 77L33 78L34 78L34 77L33 77L33 76L34 76L34 75L35 75L35 76L36 76L36 77L35 77L35 78L36 78L36 79L37 79L37 80L35 80L35 79L34 79L34 80L35 80L35 82L36 82L36 83L37 83L37 82L38 82L38 81L37 81L37 80L38 80L38 79L39 79L39 78L38 78L38 77L39 77L39 76L41 76L41 74L40 74L40 73L39 73L39 72L42 72L42 74L45 74L45 75L44 75L44 76L45 76L45 77L44 77L44 80L46 80L46 79L47 79L47 80L48 80L48 79L47 79L47 78L46 78L46 77L47 77L47 76L48 76L48 73L49 73L49 74L50 74L50 75L52 75L52 74L53 74L53 73L52 73L52 72L54 72L54 73L55 73L55 72L56 72L56 71L57 71L57 72L58 72L58 73L59 73L59 70L61 70L61 71L63 71L63 70L64 70L64 71L66 71L66 72L65 72L65 73L66 73L66 72L68 72L68 75L66 75L66 74L65 74L65 75L64 75L64 74L63 74L63 73L64 73L64 72L63 72L63 73L62 73L62 74L63 74L63 75L64 75L64 76L65 76L65 77L64 77L64 78L65 78L65 77L66 77L66 76L68 76L68 77L69 77L69 78L70 78L70 76L71 76L71 75L69 75L69 74L70 74L70 73L69 73L69 72L70 72L70 71L71 71L71 72L73 72L73 73L74 73L74 72L73 72L73 71L77 71L77 73L79 73L79 70L80 70L80 69L81 69L81 67L80 67L80 69L78 69L78 70L77 70L77 69L76 69L76 68L77 68L77 67L78 67L78 68L79 68L79 67L78 67L78 66L77 66L77 67L76 67L76 68L75 68L75 70L73 70L73 69L74 69L74 68L73 68L73 67L71 67L71 66L73 66L73 65L70 65L70 63L66 63L66 62L67 62L67 61L66 61L66 62L64 62L64 60L63 60L63 62L62 62L62 65L63 65L63 67L64 67L64 66L65 66L65 67L66 67L66 68L65 68L65 69L64 69L64 68L63 68L63 69L62 69L62 68L61 68L61 67L62 67L62 66L61 66L61 63L59 63L59 64L58 64L58 63L57 63L57 62L56 62L56 61L52 61L52 60L56 60L56 59L57 59L57 60L58 60L58 59L59 59L59 60L60 60L60 61L61 61L61 60L60 60L60 59L65 59L65 60L66 60L66 59L67 59L67 60L68 60L68 59L67 59L67 58L68 58L68 57L67 57L67 56L68 56L68 53L67 53L67 52L68 52L68 51L69 51L69 54L70 54L70 53L71 53L71 55L69 55L69 58L70 58L70 57L71 57L71 58L73 58L73 59L74 59L74 60L73 60L73 61L72 61L72 62L73 62L73 63L71 63L71 64L74 64L74 62L75 62L75 61L76 61L76 60L75 60L75 59L74 59L74 58L76 58L76 57L78 57L78 58L77 58L77 60L78 60L78 59L79 59L79 56L77 56L77 55L78 55L78 54L77 54L77 55L76 55L76 54L75 54L75 53L77 53L77 52L78 52L78 53L79 53L79 54L80 54L80 52L78 52L78 50L80 50L80 51L82 51L82 50L80 50L80 47L79 47L79 48L78 48L78 46L77 46L77 43L78 43L78 45L79 45L79 46L80 46L80 44L79 44L79 43L78 43L78 42L77 42L77 43L76 43L76 42L75 42L75 43L74 43L74 42L73 42L73 41L74 41L74 40L75 40L75 41L76 41L76 40L75 40L75 39L76 39L76 38L75 38L75 39L74 39L74 38L73 38L73 39L71 39L71 36L72 36L72 35L74 35L74 36L73 36L73 37L74 37L74 36L75 36L75 37L76 37L76 36L75 36L75 35L74 35L74 34L71 34L71 33L70 33L70 32L72 32L72 33L73 33L73 31L75 31L75 30L72 30L72 31L71 31L71 30L70 30L70 29L68 29L68 30L69 30L69 33L68 33L68 34L67 34L67 33L66 33L66 34L65 34L65 32L63 32L63 31L66 31L66 30L65 30L65 29L64 29L64 28L66 28L66 29L67 29L67 28L68 28L68 27L69 27L69 28L72 28L72 26L73 26L73 27L74 27L74 26L77 26L77 27L80 27L80 26L79 26L79 25L80 25L80 24L83 24L83 23L80 23L80 24L79 24L79 23L78 23L78 24L75 24L75 22L74 22L74 23L73 23L73 22L70 22L70 23L69 23L69 24L68 24L68 27L67 27L67 26L65 26L65 27L64 27L64 28L63 28L63 27L62 27L62 26L61 26L61 25L60 25L60 26L59 26L59 25L58 25L58 24L57 24L57 23L56 23L56 24L55 24L55 23L54 23L54 22L53 22L53 23L52 23L52 22L50 22L50 21L51 21L51 20L50 20L50 21L49 21L49 20L48 20L48 19L47 19L47 18L45 18L45 17L47 17L47 16L45 16L45 15L44 15L44 16L45 16L45 17L44 17L44 18L45 18L45 19L44 19L44 20L45 20L45 21L48 21L48 22L45 22L45 24L46 24L46 25L47 25L47 26L44 26L44 24L43 24L43 25L42 25L42 26L44 26L44 28L42 28L42 27L39 27L39 26L41 26L41 25L39 25L39 24L42 24L42 23L39 23L39 22L38 22L38 19L39 19L39 20L42 20L42 21L40 21L40 22L43 22L43 23L44 23L44 21L43 21L43 20L42 20L42 18L43 18L43 17L40 17L40 18L38 18L38 17L39 17L39 16L36 16L36 15L35 15L35 14L33 14L33 13L34 13L34 12ZM56 13L56 14L57 14L57 13ZM6 14L6 15L7 15L7 14ZM15 14L15 15L14 15L14 16L13 16L13 17L14 17L14 16L16 16L16 14ZM31 14L31 15L32 15L32 14ZM65 14L65 15L66 15L66 14ZM33 15L33 17L30 17L30 18L31 18L31 21L32 21L32 22L30 22L30 24L31 24L31 23L32 23L32 24L34 24L34 26L35 26L35 24L37 24L37 25L36 25L36 27L34 27L34 28L33 28L33 29L34 29L34 30L33 30L33 32L34 32L34 33L33 33L33 34L32 34L32 33L31 33L31 34L30 34L30 35L29 35L29 36L31 36L31 37L33 37L33 38L32 38L32 40L31 40L31 38L29 38L29 37L28 37L28 34L29 34L29 33L28 33L28 32L27 32L27 31L26 31L26 32L25 32L25 33L23 33L23 31L21 31L21 32L20 32L20 33L19 33L19 31L18 31L18 30L17 30L17 31L16 31L16 32L15 32L15 33L14 33L14 35L16 35L16 37L14 37L14 38L13 38L13 40L12 40L12 39L11 39L11 40L12 40L12 41L11 41L11 42L12 42L12 44L13 44L13 45L12 45L12 46L13 46L13 45L15 45L15 46L17 46L17 44L18 44L18 43L20 43L20 45L19 45L19 47L20 47L20 48L21 48L21 47L20 47L20 46L23 46L23 45L27 45L27 43L28 43L28 44L30 44L30 45L28 45L28 46L27 46L27 47L30 47L30 48L29 48L29 49L30 49L30 50L29 50L29 53L28 53L28 54L29 54L29 53L31 53L31 54L32 54L32 53L33 53L33 54L34 54L34 55L33 55L33 56L34 56L34 58L36 58L36 59L29 59L29 60L28 60L28 61L29 61L29 65L27 65L27 64L28 64L28 63L27 63L27 64L25 64L25 65L27 65L27 66L28 66L28 67L29 67L29 68L31 68L31 71L30 71L30 73L32 73L32 72L31 72L31 71L34 71L34 70L35 70L35 72L37 72L37 71L38 71L38 70L39 70L39 71L42 71L42 72L43 72L43 71L44 71L44 73L45 73L45 74L47 74L47 73L46 73L46 71L45 71L45 68L44 68L44 70L39 70L39 69L43 69L43 68L39 68L39 67L40 67L40 66L41 66L41 67L46 67L46 68L47 68L47 69L46 69L46 70L48 70L48 71L47 71L47 72L49 72L49 73L50 73L50 74L51 74L51 72L52 72L52 71L51 71L51 72L50 72L50 71L49 71L49 70L48 70L48 68L49 68L49 67L48 67L48 66L49 66L49 65L50 65L50 66L51 66L51 67L54 67L54 68L51 68L51 69L50 69L50 70L51 70L51 69L52 69L52 70L53 70L53 71L54 71L54 70L53 70L53 69L58 69L58 70L59 70L59 69L60 69L60 68L59 68L59 67L60 67L60 64L59 64L59 65L58 65L58 64L57 64L57 63L56 63L56 64L55 64L55 63L54 63L54 62L52 62L52 63L54 63L54 64L51 64L51 63L50 63L50 64L49 64L49 63L45 63L45 64L44 64L44 62L47 62L47 61L48 61L48 60L49 60L49 61L50 61L50 62L51 62L51 60L52 60L52 58L53 58L53 59L54 59L54 58L53 58L53 56L54 56L54 54L57 54L57 53L56 53L56 51L54 51L54 52L52 52L52 51L53 51L53 50L57 50L57 49L56 49L56 48L58 48L58 49L60 49L60 52L59 52L59 51L57 51L57 52L59 52L59 55L60 55L60 54L63 54L63 55L61 55L61 58L63 58L63 57L62 57L62 56L67 56L67 53L65 53L65 54L64 54L64 53L62 53L62 52L64 52L64 50L66 50L66 49L67 49L67 50L69 50L69 51L72 51L72 52L71 52L71 53L72 53L72 54L74 54L74 51L75 51L75 52L76 52L76 51L77 51L77 50L78 50L78 49L75 49L75 50L74 50L74 48L71 48L71 49L70 49L70 50L69 50L69 47L68 47L68 46L69 46L69 43L70 43L70 44L71 44L71 46L72 46L72 47L73 47L73 46L74 46L74 45L73 45L73 44L71 44L71 43L72 43L72 41L73 41L73 40L74 40L74 39L73 39L73 40L71 40L71 39L70 39L70 38L69 38L69 35L70 35L70 36L71 36L71 35L70 35L70 34L69 34L69 35L68 35L68 36L66 36L66 35L64 35L64 34L63 34L63 36L62 36L62 35L60 35L60 36L59 36L59 34L62 34L62 33L63 33L63 32L62 32L62 31L61 31L61 30L62 30L62 29L63 29L63 28L62 28L62 27L61 27L61 26L60 26L60 27L58 27L58 26L57 26L57 25L56 25L56 26L55 26L55 27L53 27L53 28L52 28L52 29L51 29L51 28L50 28L50 30L48 30L48 31L45 31L45 30L47 30L47 29L48 29L48 28L49 28L49 27L50 27L50 26L54 26L54 25L55 25L55 24L54 24L54 23L53 23L53 24L52 24L52 23L51 23L51 24L50 24L50 26L49 26L49 27L48 27L48 26L47 26L47 27L46 27L46 29L45 29L45 28L44 28L44 29L43 29L43 30L41 30L41 29L42 29L42 28L39 28L39 27L37 27L37 25L38 25L38 26L39 26L39 25L38 25L38 24L39 24L39 23L36 23L36 22L35 22L35 21L36 21L36 20L34 20L34 19L33 19L33 18L36 18L36 19L38 19L38 18L37 18L37 17L34 17L34 15ZM59 16L59 17L60 17L60 16ZM20 17L20 20L21 20L21 21L20 21L20 22L21 22L21 21L22 21L22 20L23 20L23 18L21 18L21 17ZM14 18L14 19L15 19L15 18ZM40 18L40 19L41 19L41 18ZM81 18L81 19L80 19L80 20L79 20L79 21L80 21L80 22L82 22L82 20L81 20L81 19L82 19L82 18ZM85 18L85 19L86 19L86 18ZM10 19L10 20L12 20L12 19ZM25 19L25 20L24 20L24 21L25 21L25 22L24 22L24 23L25 23L25 22L26 22L26 21L25 21L25 20L26 20L26 19ZM46 19L46 20L47 20L47 19ZM3 20L3 22L6 22L6 23L7 23L7 22L6 22L6 21L4 21L4 20ZM29 20L29 21L30 21L30 20ZM32 20L32 21L33 21L33 23L35 23L35 22L34 22L34 20ZM80 20L80 21L81 21L81 20ZM61 21L61 22L66 22L66 21ZM16 22L16 24L15 24L15 27L14 27L14 29L13 29L13 30L14 30L14 29L15 29L15 30L16 30L16 29L18 29L18 28L17 28L17 27L16 27L16 26L17 26L17 22ZM49 22L49 23L48 23L48 24L49 24L49 23L50 23L50 22ZM46 23L46 24L47 24L47 23ZM59 23L59 24L60 24L60 23ZM70 23L70 24L69 24L69 25L70 25L70 26L69 26L69 27L71 27L71 26L72 26L72 24L73 24L73 26L74 26L74 25L75 25L75 24L73 24L73 23L72 23L72 24L71 24L71 23ZM12 24L12 25L13 25L13 26L14 26L14 25L13 25L13 24ZM19 24L19 26L18 26L18 27L19 27L19 29L20 29L20 30L21 30L21 29L20 29L20 28L21 28L21 26L20 26L20 25L21 25L21 24ZM28 24L28 25L29 25L29 24ZM51 24L51 25L52 25L52 24ZM63 24L63 26L64 26L64 25L65 25L65 24ZM70 24L70 25L71 25L71 24ZM6 25L6 26L7 26L7 25ZM77 25L77 26L78 26L78 25ZM15 27L15 28L16 28L16 27ZM47 27L47 28L48 28L48 27ZM55 27L55 28L54 28L54 30L53 30L53 31L52 31L52 30L50 30L50 31L49 31L49 32L47 32L47 33L49 33L49 34L48 34L48 35L47 35L47 36L48 36L48 37L49 37L49 38L48 38L48 39L47 39L47 38L45 38L45 37L46 37L46 34L45 34L45 33L44 33L44 34L45 34L45 35L43 35L43 36L42 36L42 35L40 35L40 34L43 34L43 33L39 33L39 34L38 34L38 31L40 31L40 29L39 29L39 30L37 30L37 29L38 29L38 28L36 28L36 29L35 29L35 30L36 30L36 31L34 31L34 32L35 32L35 34L33 34L33 35L32 35L32 34L31 34L31 35L32 35L32 36L33 36L33 37L34 37L34 36L35 36L35 35L36 35L36 33L37 33L37 34L38 34L38 35L37 35L37 36L36 36L36 37L35 37L35 38L33 38L33 40L32 40L32 41L31 41L31 40L30 40L30 39L29 39L29 42L32 42L32 41L33 41L33 40L35 40L35 41L37 41L37 42L38 42L38 43L36 43L36 44L34 44L34 43L35 43L35 42L33 42L33 45L30 45L30 46L33 46L33 47L32 47L32 48L33 48L33 49L31 49L31 50L30 50L30 52L33 52L33 53L34 53L34 54L36 54L36 55L37 55L37 54L38 54L38 55L39 55L39 54L38 54L38 53L40 53L40 52L41 52L41 54L43 54L43 53L44 53L44 54L45 54L45 55L44 55L44 56L45 56L45 57L47 57L47 56L48 56L48 57L49 57L49 58L47 58L47 59L46 59L46 58L45 58L45 59L44 59L44 58L43 58L43 55L40 55L40 56L42 56L42 57L41 57L41 58L43 58L43 59L44 59L44 60L42 60L42 61L39 61L39 66L38 66L38 65L37 65L37 64L38 64L38 62L37 62L37 61L38 61L38 60L35 60L35 61L36 61L36 62L34 62L34 61L33 61L33 60L32 60L32 62L31 62L31 60L29 60L29 61L30 61L30 63L31 63L31 64L30 64L30 65L29 65L29 67L31 67L31 68L32 68L32 69L33 69L33 68L34 68L34 69L35 69L35 70L36 70L36 71L37 71L37 70L38 70L38 69L39 69L39 68L37 68L37 66L38 66L38 67L39 67L39 66L40 66L40 64L42 64L42 65L41 65L41 66L46 66L46 67L47 67L47 66L48 66L48 65L49 65L49 64L48 64L48 65L47 65L47 66L46 66L46 65L44 65L44 64L42 64L42 63L40 63L40 62L43 62L43 61L44 61L44 60L45 60L45 61L46 61L46 60L47 60L47 59L49 59L49 60L51 60L51 58L52 58L52 56L53 56L53 53L52 53L52 52L51 52L51 54L48 54L48 55L47 55L47 54L46 54L46 53L44 53L44 52L45 52L45 51L44 51L44 52L43 52L43 51L41 51L41 50L39 50L39 52L38 52L38 48L39 48L39 47L40 47L40 48L41 48L41 47L42 47L42 48L43 48L43 49L42 49L42 50L45 50L45 49L46 49L46 48L47 48L47 49L49 49L49 48L50 48L50 47L52 47L52 48L51 48L51 49L52 49L52 48L53 48L53 49L55 49L55 47L58 47L58 48L60 48L60 47L67 47L67 48L68 48L68 47L67 47L67 46L63 46L63 45L64 45L64 44L65 44L65 43L66 43L66 45L67 45L67 44L68 44L68 42L67 42L67 43L66 43L66 42L65 42L65 43L64 43L64 40L66 40L66 41L67 41L67 39L66 39L66 38L64 38L64 36L63 36L63 39L62 39L62 38L61 38L61 37L60 37L60 38L59 38L59 36L56 36L56 37L57 37L57 38L55 38L55 39L56 39L56 40L57 40L57 41L58 41L58 42L52 42L52 41L51 41L51 42L50 42L50 40L48 40L48 39L49 39L49 38L50 38L50 39L51 39L51 40L53 40L53 41L55 41L55 40L54 40L54 38L53 38L53 37L51 37L51 38L50 38L50 37L49 37L49 36L53 36L53 35L54 35L54 37L55 37L55 35L56 35L56 34L57 34L57 35L58 35L58 34L57 34L57 33L59 33L59 32L61 32L61 31L59 31L59 30L61 30L61 29L62 29L62 28L60 28L60 29L59 29L59 28L58 28L58 27L57 27L57 28L56 28L56 27ZM66 27L66 28L67 28L67 27ZM1 28L1 29L2 29L2 28ZM85 28L85 30L87 30L87 29L86 29L86 28ZM5 29L5 32L8 32L8 29ZM27 29L27 30L28 30L28 29ZM29 29L29 32L32 32L32 29ZM55 29L55 32L58 32L58 29ZM81 29L81 32L84 32L84 29ZM6 30L6 31L7 31L7 30ZM30 30L30 31L31 31L31 30ZM43 30L43 31L42 31L42 32L45 32L45 31L44 31L44 30ZM56 30L56 31L57 31L57 30ZM77 30L77 31L78 31L78 30ZM82 30L82 31L83 31L83 30ZM36 31L36 32L37 32L37 31ZM50 31L50 34L51 34L51 33L54 33L54 35L55 35L55 34L56 34L56 33L54 33L54 31L53 31L53 32L52 32L52 31ZM67 31L67 32L68 32L68 31ZM17 32L17 33L18 33L18 32ZM21 32L21 33L22 33L22 35L20 35L20 36L17 36L17 37L16 37L16 38L18 38L18 40L17 40L17 41L20 41L20 40L21 40L21 41L22 41L22 42L21 42L21 43L22 43L22 42L23 42L23 44L25 44L25 42L28 42L28 41L27 41L27 40L26 40L26 41L25 41L25 40L24 40L24 38L25 38L25 39L26 39L26 38L27 38L27 37L26 37L26 36L27 36L27 32L26 32L26 34L24 34L24 35L23 35L23 33L22 33L22 32ZM3 33L3 34L4 34L4 33ZM15 33L15 34L16 34L16 33ZM85 33L85 34L86 34L86 33ZM52 34L52 35L53 35L53 34ZM0 35L0 36L1 36L1 35ZM12 35L12 36L13 36L13 35ZM22 35L22 36L23 36L23 35ZM48 35L48 36L49 36L49 35ZM20 36L20 37L19 37L19 40L20 40L20 39L21 39L21 38L22 38L22 41L23 41L23 42L24 42L24 41L23 41L23 38L24 38L24 37L25 37L25 38L26 38L26 37L25 37L25 36L24 36L24 37L23 37L23 38L22 38L22 37L21 37L21 36ZM37 36L37 37L38 37L38 36ZM40 36L40 37L39 37L39 38L37 38L37 39L35 39L35 40L37 40L37 39L39 39L39 38L42 38L42 39L43 39L43 42L40 42L40 43L38 43L38 44L36 44L36 45L33 45L33 46L36 46L36 47L37 47L37 48L38 48L38 47L37 47L37 45L38 45L38 46L40 46L40 47L41 47L41 46L40 46L40 45L41 45L41 44L44 44L44 45L45 45L45 44L47 44L47 43L48 43L48 44L49 44L49 45L46 45L46 46L42 46L42 47L43 47L43 48L44 48L44 49L45 49L45 47L46 47L46 46L47 46L47 48L49 48L49 47L50 47L50 46L52 46L52 47L53 47L53 46L55 46L55 45L56 45L56 46L58 46L58 44L59 44L59 46L62 46L62 45L63 45L63 44L64 44L64 43L63 43L63 41L61 41L61 42L62 42L62 43L63 43L63 44L61 44L61 45L60 45L60 44L59 44L59 43L60 43L60 42L58 42L58 43L54 43L54 44L55 44L55 45L53 45L53 44L52 44L52 42L51 42L51 44L52 44L52 45L50 45L50 44L49 44L49 43L48 43L48 42L49 42L49 41L48 41L48 40L47 40L47 39L46 39L46 40L44 40L44 39L45 39L45 38L44 38L44 37L45 37L45 36L43 36L43 38L42 38L42 37L41 37L41 36ZM20 37L20 38L21 38L21 37ZM67 37L67 38L68 38L68 40L70 40L70 39L69 39L69 38L68 38L68 37ZM80 37L80 39L82 39L82 38L81 38L81 37ZM88 37L88 38L89 38L89 37ZM60 38L60 39L61 39L61 40L62 40L62 39L61 39L61 38ZM57 39L57 40L58 40L58 41L60 41L60 40L58 40L58 39ZM14 40L14 41L13 41L13 42L14 42L14 43L13 43L13 44L14 44L14 43L17 43L17 42L16 42L16 41L15 41L15 40ZM39 40L39 41L38 41L38 42L39 42L39 41L41 41L41 40ZM46 40L46 41L44 41L44 42L46 42L46 43L47 43L47 42L46 42L46 41L47 41L47 40ZM69 41L69 42L70 42L70 43L71 43L71 42L70 42L70 41ZM82 41L82 42L83 42L83 41ZM1 43L1 45L2 45L2 46L3 46L3 45L2 45L2 43ZM5 43L5 44L7 44L7 43ZM30 43L30 44L32 44L32 43ZM40 43L40 44L39 44L39 45L40 45L40 44L41 44L41 43ZM44 43L44 44L45 44L45 43ZM75 43L75 44L76 44L76 43ZM84 43L84 44L85 44L85 43ZM15 44L15 45L16 45L16 44ZM21 44L21 45L22 45L22 44ZM49 45L49 46L48 46L48 47L49 47L49 46L50 46L50 45ZM72 45L72 46L73 46L73 45ZM87 45L87 46L88 46L88 45ZM24 46L24 48L25 48L25 49L26 49L26 47L25 47L25 46ZM76 46L76 47L75 47L75 48L77 48L77 46ZM17 47L17 48L18 48L18 47ZM22 47L22 48L23 48L23 47ZM34 47L34 48L35 48L35 47ZM6 48L6 49L7 49L7 48ZM61 48L61 49L62 49L62 48ZM63 48L63 50L61 50L61 51L63 51L63 50L64 50L64 49L65 49L65 48ZM0 49L0 50L1 50L1 49ZM14 49L14 51L13 51L13 53L14 53L14 51L15 51L15 52L16 52L16 51L15 51L15 50L16 50L16 49ZM19 49L19 51L20 51L20 49ZM34 49L34 50L32 50L32 51L33 51L33 52L34 52L34 50L36 50L36 49ZM71 49L71 50L72 50L72 49ZM25 50L25 51L26 51L26 50ZM48 50L48 51L49 51L49 52L48 52L48 53L50 53L50 51L51 51L51 50ZM73 50L73 51L74 51L74 50ZM75 50L75 51L76 51L76 50ZM36 51L36 52L35 52L35 53L36 53L36 54L37 54L37 53L38 53L38 52L37 52L37 51ZM65 51L65 52L67 52L67 51ZM83 51L83 52L84 52L84 51ZM36 52L36 53L37 53L37 52ZM54 52L54 53L55 53L55 52ZM22 54L22 57L23 57L23 56L25 56L25 57L26 57L26 58L27 58L27 56L26 56L26 55L27 55L27 54L25 54L25 55L23 55L23 54ZM5 55L5 58L8 58L8 55ZM10 55L10 58L11 58L11 57L12 57L12 55ZM29 55L29 58L32 58L32 55ZM34 55L34 56L35 56L35 57L36 57L36 58L37 58L37 59L40 59L40 60L41 60L41 59L40 59L40 58L38 58L38 56L35 56L35 55ZM45 55L45 56L46 56L46 55ZM48 55L48 56L49 56L49 57L50 57L50 58L51 58L51 57L50 57L50 56L51 56L51 55ZM55 55L55 58L58 58L58 55ZM73 55L73 58L74 58L74 55ZM75 55L75 56L76 56L76 55ZM81 55L81 58L84 58L84 55ZM6 56L6 57L7 57L7 56ZM30 56L30 57L31 57L31 56ZM56 56L56 57L57 57L57 56ZM59 56L59 57L60 57L60 56ZM71 56L71 57L72 57L72 56ZM82 56L82 57L83 57L83 56ZM85 56L85 57L86 57L86 56ZM65 57L65 58L66 58L66 57ZM88 57L88 58L89 58L89 57ZM1 58L1 59L2 59L2 60L5 60L5 59L4 59L4 58L3 58L3 59L2 59L2 58ZM59 58L59 59L60 59L60 58ZM45 59L45 60L46 60L46 59ZM69 59L69 61L68 61L68 62L70 62L70 61L71 61L71 60L72 60L72 59L71 59L71 60L70 60L70 59ZM74 60L74 61L73 61L73 62L74 62L74 61L75 61L75 60ZM86 60L86 61L87 61L87 60ZM12 61L12 62L13 62L13 61ZM14 61L14 62L15 62L15 61ZM19 61L19 63L18 63L18 64L19 64L19 63L21 63L21 62L22 62L22 61L21 61L21 62L20 62L20 61ZM79 62L79 63L80 63L80 62ZM83 62L83 63L84 63L84 62ZM13 63L13 64L15 64L15 66L16 66L16 67L17 67L17 68L15 68L15 67L13 67L13 68L15 68L15 69L17 69L17 68L19 68L19 67L20 67L20 65L21 65L21 64L20 64L20 65L17 65L17 63L16 63L16 64L15 64L15 63ZM32 63L32 64L31 64L31 65L30 65L30 66L31 66L31 67L32 67L32 68L33 68L33 67L32 67L32 66L33 66L33 65L32 65L32 64L34 64L34 66L35 66L35 67L34 67L34 68L35 68L35 69L36 69L36 68L35 68L35 67L36 67L36 66L37 66L37 65L36 65L36 64L37 64L37 63L36 63L36 64L35 64L35 63ZM63 63L63 64L64 64L64 63ZM65 63L65 64L66 64L66 63ZM54 64L54 66L55 66L55 68L58 68L58 69L59 69L59 68L58 68L58 67L59 67L59 66L57 66L57 64L56 64L56 66L55 66L55 64ZM67 64L67 65L65 65L65 66L66 66L66 67L68 67L68 68L67 68L67 69L68 69L68 70L69 70L69 71L68 71L68 72L69 72L69 71L70 71L70 70L69 70L69 69L70 69L70 68L71 68L71 71L73 71L73 70L72 70L72 68L71 68L71 67L70 67L70 66L69 66L69 65L68 65L68 64ZM80 64L80 65L81 65L81 64ZM82 64L82 65L83 65L83 64ZM31 65L31 66L32 66L32 65ZM67 65L67 66L68 66L68 67L69 67L69 66L68 66L68 65ZM3 66L3 67L4 67L4 66ZM17 66L17 67L19 67L19 66ZM56 66L56 67L57 67L57 66ZM6 67L6 68L7 68L7 67ZM84 67L84 68L85 68L85 67ZM21 68L21 69L22 69L22 68ZM24 68L24 69L25 69L25 70L24 70L24 71L25 71L25 70L27 70L27 69L25 69L25 68ZM12 69L12 70L13 70L13 69ZM61 69L61 70L62 70L62 69ZM65 69L65 70L66 70L66 69ZM19 70L19 71L17 71L17 72L19 72L19 73L20 73L20 74L21 74L21 73L22 73L22 72L19 72L19 71L20 71L20 70ZM21 70L21 71L22 71L22 70ZM75 72L75 73L76 73L76 72ZM15 73L15 75L14 75L14 76L17 76L17 77L16 77L16 78L17 78L17 77L18 77L18 76L17 76L17 74L16 74L16 73ZM26 73L26 74L27 74L27 73ZM34 73L34 74L35 74L35 73ZM38 73L38 74L39 74L39 75L36 75L36 76L37 76L37 77L38 77L38 76L39 76L39 75L40 75L40 74L39 74L39 73ZM71 73L71 74L72 74L72 73ZM29 74L29 75L30 75L30 74ZM73 74L73 75L74 75L74 76L73 76L73 77L74 77L74 76L75 76L75 75L74 75L74 74ZM83 74L83 75L84 75L84 74ZM46 75L46 76L47 76L47 75ZM68 75L68 76L69 76L69 75ZM77 75L77 76L78 76L78 75ZM0 76L0 81L1 81L1 80L2 80L2 79L1 79L1 76ZM49 77L49 78L51 78L51 77ZM6 78L6 79L7 79L7 78ZM37 78L37 79L38 79L38 78ZM45 78L45 79L46 79L46 78ZM76 79L76 80L75 80L75 81L76 81L76 80L77 80L77 79ZM84 79L84 80L85 80L85 79ZM9 80L9 81L10 81L10 80ZM15 80L15 81L16 81L16 80ZM29 81L29 84L32 84L32 81ZM36 81L36 82L37 82L37 81ZM55 81L55 84L58 84L58 81ZM81 81L81 84L84 84L84 81ZM15 82L15 83L16 83L16 82ZM30 82L30 83L31 83L31 82ZM44 82L44 83L42 83L42 84L45 84L45 82ZM56 82L56 83L57 83L57 82ZM67 82L67 83L70 83L70 82ZM82 82L82 83L83 83L83 82ZM23 83L23 84L24 84L24 85L25 85L25 84L24 84L24 83ZM19 86L19 87L20 87L20 86ZM21 86L21 89L22 89L22 86ZM74 86L74 87L75 87L75 88L76 88L76 87L75 87L75 86ZM14 87L14 88L15 88L15 89L16 89L16 88L17 88L17 89L20 89L20 88L18 88L18 87ZM37 87L37 88L36 88L36 89L38 89L38 87ZM46 87L46 88L47 88L47 87ZM0 0L0 7L7 7L7 0ZM1 1L1 6L6 6L6 1ZM2 2L2 5L5 5L5 2ZM82 0L82 7L89 7L89 0ZM83 1L83 6L88 6L88 1ZM84 2L84 5L87 5L87 2ZM0 82L0 89L7 89L7 82ZM1 83L1 88L6 88L6 83ZM2 84L2 87L5 87L5 84Z" fill="#000000"/></g></g></svg>
