<?xml version="1.0" encoding="UTF-8"?>
<svg xmlns="http://www.w3.org/2000/svg" version="1.1" width="400" height="400" viewBox="0 0 400 400"><rect x="0" y="0" width="400" height="400" fill="#ffffff"/><g transform="scale(4.494)"><g transform="translate(0,0)"><path fill-rule="evenodd" d="M10 0L10 1L12 1L12 2L9 2L9 1L8 1L8 2L9 2L9 3L8 3L8 4L9 4L9 3L11 3L11 4L10 4L10 5L8 5L8 7L9 7L9 6L10 6L10 7L11 7L11 4L12 4L12 5L13 5L13 6L12 6L12 8L11 8L11 9L9 9L9 8L6 8L6 9L7 9L7 10L6 10L6 11L5 11L5 8L0 8L0 9L1 9L1 10L2 10L2 11L3 11L3 12L2 12L2 13L3 13L3 14L2 14L2 17L1 17L1 11L0 11L0 18L3 18L3 16L4 16L4 17L5 17L5 18L4 18L4 19L7 19L7 20L5 20L5 21L9 21L9 19L10 19L10 18L8 18L8 15L9 15L9 17L10 17L10 13L11 13L11 16L12 16L12 17L11 17L11 18L12 18L12 19L11 19L11 20L12 20L12 22L13 22L13 23L11 23L11 22L5 22L5 23L4 23L4 22L2 22L2 21L1 21L1 25L0 25L0 26L1 26L1 28L0 28L0 29L2 29L2 30L1 30L1 31L0 31L0 33L1 33L1 34L3 34L3 35L2 35L2 36L3 36L3 35L4 35L4 33L5 33L5 34L6 34L6 35L5 35L5 39L3 39L3 38L4 38L4 37L0 37L0 38L2 38L2 41L3 41L3 40L4 40L4 41L5 41L5 42L4 42L4 43L1 43L1 45L2 45L2 46L0 46L0 47L1 47L1 48L0 48L0 50L1 50L1 51L2 51L2 52L0 52L0 56L4 56L4 57L3 57L3 58L2 58L2 57L1 57L1 58L0 58L0 60L1 60L1 58L2 58L2 59L3 59L3 60L2 60L2 61L0 61L0 62L1 62L1 63L0 63L0 64L1 64L1 63L2 63L2 64L3 64L3 63L4 63L4 65L2 65L2 66L0 66L0 67L2 67L2 66L4 66L4 65L9 65L9 66L5 66L5 67L3 67L3 68L2 68L2 71L3 71L3 74L6 74L6 75L7 75L7 76L6 76L6 77L5 77L5 78L6 78L6 79L4 79L4 75L2 75L2 72L0 72L0 73L1 73L1 74L0 74L0 81L1 81L1 80L2 80L2 79L1 79L1 76L2 76L2 78L3 78L3 79L4 79L4 80L3 80L3 81L4 81L4 80L6 80L6 81L8 81L8 83L9 83L9 84L8 84L8 89L9 89L9 86L11 86L11 85L12 85L12 84L11 84L11 85L10 85L10 83L11 83L11 82L12 82L12 81L13 81L13 80L14 80L14 82L15 82L15 83L16 83L16 82L15 82L15 80L14 80L14 78L13 78L13 79L12 79L12 76L13 76L13 75L11 75L11 74L12 74L12 73L13 73L13 74L14 74L14 73L15 73L15 72L17 72L17 73L18 73L18 72L19 72L19 73L20 73L20 72L19 72L19 70L18 70L18 71L17 71L17 69L15 69L15 67L16 67L16 68L17 68L17 66L16 66L16 65L18 65L18 66L19 66L19 67L21 67L21 68L18 68L18 69L24 69L24 70L26 70L26 69L27 69L27 70L29 70L29 71L28 71L28 72L27 72L27 71L24 71L24 72L23 72L23 73L22 73L22 72L21 72L21 73L22 73L22 75L21 75L21 77L20 77L20 79L19 79L19 80L18 80L18 79L16 79L16 80L18 80L18 81L19 81L19 80L20 80L20 82L21 82L21 81L22 81L22 80L21 80L21 79L23 79L23 77L25 77L25 78L24 78L24 80L23 80L23 81L24 81L24 80L26 80L26 79L31 79L31 80L27 80L27 81L25 81L25 82L27 82L27 83L28 83L28 84L26 84L26 85L25 85L25 84L24 84L24 83L23 83L23 82L22 82L22 83L17 83L17 84L16 84L16 85L15 85L15 84L14 84L14 88L15 88L15 89L17 89L17 88L16 88L16 87L15 87L15 86L17 86L17 87L18 87L18 86L17 86L17 84L18 84L18 85L20 85L20 86L21 86L21 85L24 85L24 88L23 88L23 89L24 89L24 88L25 88L25 86L26 86L26 88L27 88L27 89L28 89L28 87L27 87L27 86L29 86L29 88L34 88L34 89L38 89L38 87L40 87L40 88L39 88L39 89L40 89L40 88L41 88L41 87L40 87L40 84L41 84L41 86L43 86L43 85L44 85L44 86L45 86L45 87L42 87L42 88L45 88L45 89L49 89L49 88L48 88L48 87L49 87L49 86L45 86L45 85L44 85L44 84L47 84L47 85L49 85L49 84L50 84L50 83L51 83L51 84L54 84L54 86L53 86L53 87L51 87L51 86L52 86L52 85L51 85L51 86L50 86L50 87L51 87L51 88L50 88L50 89L52 89L52 88L54 88L54 89L59 89L59 88L60 88L60 89L62 89L62 88L63 88L63 89L67 89L67 88L69 88L69 89L70 89L70 88L75 88L75 89L77 89L77 88L75 88L75 87L77 87L77 86L76 86L76 85L77 85L77 84L78 84L78 85L79 85L79 86L80 86L80 85L83 85L83 86L81 86L81 87L79 87L79 88L78 88L78 89L79 89L79 88L82 88L82 89L83 89L83 88L84 88L84 89L85 89L85 88L86 88L86 89L87 89L87 88L88 88L88 85L89 85L89 84L88 84L88 82L89 82L89 81L88 81L88 80L86 80L86 78L87 78L87 77L88 77L88 78L89 78L89 77L88 77L88 76L89 76L89 75L87 75L87 76L86 76L86 78L85 78L85 77L84 77L84 79L83 79L83 77L81 77L81 76L82 76L82 74L83 74L83 73L84 73L84 74L86 74L86 73L87 73L87 74L89 74L89 72L88 72L88 73L87 73L87 72L86 72L86 70L87 70L87 71L88 71L88 70L89 70L89 69L88 69L88 68L86 68L86 66L87 66L87 65L88 65L88 66L89 66L89 65L88 65L88 64L89 64L89 62L88 62L88 60L89 60L89 59L87 59L87 60L86 60L86 59L85 59L85 58L86 58L86 57L87 57L87 58L89 58L89 57L87 57L87 56L86 56L86 55L87 55L87 54L85 54L85 52L86 52L86 53L87 53L87 52L86 52L86 50L87 50L87 51L88 51L88 50L89 50L89 49L88 49L88 50L87 50L87 48L88 48L88 46L89 46L89 45L88 45L88 46L87 46L87 44L88 44L88 43L87 43L87 42L89 42L89 39L88 39L88 40L85 40L85 39L86 39L86 37L88 37L88 38L89 38L89 36L86 36L86 35L85 35L85 34L84 34L84 35L85 35L85 36L84 36L84 37L83 37L83 36L81 36L81 37L80 37L80 39L81 39L81 38L84 38L84 39L83 39L83 40L82 40L82 41L78 41L78 40L77 40L77 41L78 41L78 42L77 42L77 43L76 43L76 44L75 44L75 43L74 43L74 42L73 42L73 43L72 43L72 42L70 42L70 41L71 41L71 40L72 40L72 39L74 39L74 41L75 41L75 42L76 42L76 40L75 40L75 39L78 39L78 38L77 38L77 35L78 35L78 36L80 36L80 35L83 35L83 34L82 34L82 33L88 33L88 34L89 34L89 33L88 33L88 32L89 32L89 31L88 31L88 32L86 32L86 31L87 31L87 30L89 30L89 29L87 29L87 28L89 28L89 27L87 27L87 26L89 26L89 25L88 25L88 24L87 24L87 26L86 26L86 27L84 27L84 28L83 28L83 27L78 27L78 26L77 26L77 23L78 23L78 22L77 22L77 21L80 21L80 22L83 22L83 20L86 20L86 22L87 22L87 23L88 23L88 22L89 22L89 21L88 21L88 20L89 20L89 19L88 19L88 20L86 20L86 18L89 18L89 15L88 15L88 14L89 14L89 13L88 13L88 12L89 12L89 11L88 11L88 12L86 12L86 13L87 13L87 14L85 14L85 15L84 15L84 12L85 12L85 11L86 11L86 8L85 8L85 9L84 9L84 8L83 8L83 9L84 9L84 10L83 10L83 11L81 11L81 12L79 12L79 11L78 11L78 10L77 10L77 8L75 8L75 6L76 6L76 7L77 7L77 6L78 6L78 8L79 8L79 9L80 9L80 10L82 10L82 8L81 8L81 6L80 6L80 4L81 4L81 3L80 3L80 4L79 4L79 3L78 3L78 4L77 4L77 6L76 6L76 5L75 5L75 4L76 4L76 3L77 3L77 2L78 2L78 1L79 1L79 2L80 2L80 1L81 1L81 0L78 0L78 1L77 1L77 0L74 0L74 1L73 1L73 2L71 2L71 1L70 1L70 0L69 0L69 1L68 1L68 2L66 2L66 1L65 1L65 0L62 0L62 1L61 1L61 0L60 0L60 1L61 1L61 2L57 2L57 3L56 3L56 2L54 2L54 3L53 3L53 2L52 2L52 1L53 1L53 0L51 0L51 1L49 1L49 0L47 0L47 1L46 1L46 0L45 0L45 1L46 1L46 2L44 2L44 0L40 0L40 2L39 2L39 1L38 1L38 0L37 0L37 1L38 1L38 4L37 4L37 3L36 3L36 0L35 0L35 1L32 1L32 0L31 0L31 2L30 2L30 1L28 1L28 0L27 0L27 1L26 1L26 0L25 0L25 1L24 1L24 2L23 2L23 0L22 0L22 3L21 3L21 4L22 4L22 5L20 5L20 4L17 4L17 3L16 3L16 2L17 2L17 1L19 1L19 0L16 0L16 2L15 2L15 3L14 3L14 2L13 2L13 1L14 1L14 0ZM20 0L20 2L21 2L21 0ZM55 0L55 1L59 1L59 0ZM25 1L25 2L26 2L26 3L24 3L24 4L23 4L23 3L22 3L22 4L23 4L23 7L22 7L22 6L21 6L21 8L19 8L19 7L20 7L20 5L19 5L19 7L18 7L18 6L17 6L17 5L15 5L15 7L16 7L16 8L14 8L14 10L13 10L13 8L12 8L12 9L11 9L11 11L12 11L12 10L13 10L13 11L17 11L17 12L18 12L18 14L19 14L19 15L17 15L17 14L15 14L15 17L17 17L17 18L18 18L18 17L17 17L17 16L20 16L20 14L19 14L19 13L20 13L20 12L23 12L23 11L24 11L24 12L25 12L25 13L26 13L26 11L28 11L28 12L27 12L27 14L25 14L25 15L24 15L24 17L23 17L23 15L21 15L21 16L22 16L22 17L21 17L21 18L22 18L22 19L23 19L23 20L24 20L24 21L21 21L21 20L20 20L20 21L19 21L19 22L20 22L20 24L19 24L19 23L18 23L18 21L17 21L17 20L19 20L19 19L20 19L20 17L19 17L19 19L17 19L17 20L16 20L16 19L15 19L15 18L14 18L14 19L12 19L12 20L13 20L13 21L14 21L14 23L15 23L15 24L16 24L16 22L17 22L17 26L16 26L16 30L13 30L13 29L11 29L11 30L12 30L12 31L11 31L11 32L10 32L10 33L13 33L13 35L15 35L15 36L14 36L14 38L13 38L13 36L12 36L12 37L11 37L11 38L13 38L13 39L14 39L14 38L17 38L17 37L16 37L16 36L18 36L18 39L17 39L17 41L15 41L15 40L14 40L14 41L13 41L13 40L12 40L12 39L9 39L9 44L8 44L8 43L6 43L6 44L8 44L8 45L5 45L5 46L4 46L4 47L3 47L3 46L2 46L2 48L1 48L1 50L3 50L3 52L5 52L5 53L4 53L4 54L5 54L5 53L6 53L6 54L7 54L7 53L8 53L8 54L9 54L9 53L10 53L10 54L11 54L11 55L10 55L10 56L9 56L9 57L10 57L10 59L9 59L9 60L10 60L10 61L11 61L11 60L12 60L12 58L13 58L13 59L14 59L14 60L13 60L13 61L15 61L15 59L14 59L14 57L16 57L16 58L17 58L17 60L16 60L16 61L17 61L17 63L16 63L16 62L15 62L15 63L16 63L16 64L15 64L15 65L14 65L14 66L13 66L13 68L12 68L12 67L11 67L11 66L12 66L12 65L13 65L13 63L14 63L14 62L12 62L12 64L11 64L11 62L9 62L9 61L8 61L8 59L5 59L5 60L4 60L4 61L5 61L5 62L4 62L4 63L6 63L6 64L9 64L9 65L10 65L10 64L11 64L11 66L9 66L9 67L8 67L8 68L7 68L7 67L5 67L5 68L7 68L7 69L6 69L6 70L5 70L5 69L4 69L4 70L3 70L3 71L4 71L4 72L5 72L5 73L6 73L6 74L7 74L7 75L8 75L8 76L10 76L10 74L11 74L11 73L12 73L12 72L15 72L15 71L13 71L13 70L12 70L12 69L14 69L14 70L15 70L15 69L14 69L14 67L15 67L15 65L16 65L16 64L18 64L18 65L19 65L19 66L23 66L23 67L22 67L22 68L24 68L24 66L25 66L25 69L26 69L26 66L25 66L25 65L26 65L26 64L28 64L28 63L29 63L29 64L31 64L31 67L29 67L29 66L27 66L27 68L28 68L28 69L31 69L31 71L29 71L29 72L28 72L28 73L26 73L26 72L24 72L24 73L23 73L23 76L22 76L22 77L21 77L21 78L22 78L22 77L23 77L23 76L25 76L25 77L26 77L26 78L25 78L25 79L26 79L26 78L27 78L27 77L26 77L26 76L28 76L28 77L29 77L29 75L30 75L30 76L31 76L31 75L32 75L32 76L33 76L33 75L32 75L32 72L34 72L34 73L33 73L33 74L35 74L35 75L34 75L34 77L31 77L31 79L32 79L32 80L33 80L33 79L35 79L35 81L34 81L34 82L33 82L33 85L34 85L34 86L36 86L36 84L40 84L40 83L42 83L42 85L43 85L43 82L40 82L40 83L38 83L38 82L39 82L39 81L41 81L41 80L42 80L42 79L43 79L43 78L41 78L41 77L42 77L42 75L46 75L46 76L43 76L43 77L44 77L44 78L45 78L45 77L46 77L46 78L47 78L47 79L45 79L45 80L43 80L43 81L46 81L46 82L47 82L47 84L49 84L49 83L50 83L50 82L52 82L52 83L54 83L54 80L55 80L55 79L54 79L54 78L55 78L55 77L56 77L56 79L57 79L57 78L58 78L58 79L59 79L59 78L62 78L62 79L61 79L61 80L62 80L62 81L61 81L61 82L62 82L62 83L63 83L63 84L67 84L67 85L64 85L64 86L63 86L63 85L61 85L61 84L59 84L59 87L60 87L60 88L62 88L62 87L63 87L63 88L64 88L64 86L67 86L67 87L65 87L65 88L67 88L67 87L68 87L68 86L67 86L67 85L69 85L69 83L70 83L70 85L72 85L72 87L73 87L73 86L74 86L74 87L75 87L75 84L76 84L76 83L72 83L72 84L71 84L71 83L70 83L70 82L69 82L69 80L70 80L70 79L72 79L72 78L74 78L74 77L75 77L75 79L73 79L73 80L71 80L71 81L72 81L72 82L75 82L75 80L76 80L76 79L77 79L77 78L78 78L78 77L77 77L77 76L79 76L79 77L80 77L80 74L79 74L79 73L83 73L83 70L79 70L79 68L80 68L80 69L81 69L81 68L82 68L82 69L85 69L85 70L84 70L84 71L85 71L85 70L86 70L86 68L85 68L85 67L83 67L83 66L82 66L82 65L83 65L83 64L84 64L84 65L85 65L85 64L87 64L87 63L88 63L88 62L87 62L87 61L86 61L86 60L85 60L85 59L81 59L81 60L82 60L82 61L80 61L80 59L79 59L79 58L80 58L80 57L79 57L79 58L78 58L78 55L74 55L74 56L73 56L73 55L72 55L72 54L69 54L69 53L72 53L72 52L71 52L71 51L73 51L73 50L75 50L75 52L76 52L76 54L78 54L78 53L79 53L79 52L78 52L78 51L77 51L77 50L79 50L79 51L80 51L80 52L85 52L85 51L84 51L84 50L86 50L86 48L87 48L87 47L86 47L86 48L85 48L85 45L86 45L86 44L87 44L87 43L85 43L85 42L87 42L87 41L82 41L82 42L84 42L84 43L77 43L77 44L79 44L79 45L80 45L80 46L78 46L78 45L75 45L75 44L74 44L74 43L73 43L73 44L74 44L74 45L73 45L73 46L71 46L71 47L70 47L70 46L69 46L69 45L68 45L68 44L66 44L66 43L67 43L67 42L68 42L68 43L69 43L69 44L70 44L70 45L72 45L72 44L71 44L71 43L70 43L70 42L69 42L69 41L70 41L70 40L71 40L71 39L72 39L72 38L74 38L74 37L75 37L75 36L76 36L76 35L77 35L77 34L78 34L78 33L79 33L79 35L80 35L80 32L78 32L78 33L76 33L76 35L75 35L75 32L77 32L77 31L76 31L76 30L75 30L75 29L74 29L74 28L76 28L76 29L77 29L77 30L78 30L78 31L80 31L80 30L79 30L79 28L78 28L78 27L77 27L77 26L76 26L76 27L75 27L75 25L74 25L74 23L73 23L73 22L74 22L74 21L75 21L75 20L76 20L76 21L77 21L77 20L78 20L78 19L79 19L79 20L80 20L80 19L81 19L81 18L82 18L82 19L85 19L85 18L86 18L86 17L85 17L85 16L88 16L88 15L85 15L85 16L84 16L84 15L83 15L83 13L82 13L82 12L81 12L81 13L79 13L79 12L78 12L78 11L77 11L77 12L76 12L76 13L77 13L77 14L76 14L76 15L74 15L74 16L73 16L73 15L72 15L72 16L71 16L71 15L70 15L70 14L72 14L72 13L73 13L73 14L74 14L74 13L73 13L73 11L72 11L72 10L74 10L74 12L75 12L75 10L76 10L76 9L75 9L75 8L74 8L74 6L73 6L73 7L72 7L72 5L71 5L71 4L72 4L72 3L71 3L71 2L70 2L70 1L69 1L69 2L68 2L68 3L66 3L66 4L65 4L65 5L64 5L64 6L63 6L63 4L62 4L62 3L64 3L64 2L65 2L65 1L64 1L64 2L61 2L61 3L58 3L58 4L59 4L59 5L60 5L60 4L61 4L61 5L62 5L62 6L61 6L61 7L60 7L60 6L59 6L59 7L60 7L60 8L59 8L59 9L58 9L58 10L56 10L56 9L54 9L54 4L56 4L56 3L54 3L54 4L53 4L53 3L51 3L51 2L49 2L49 1L48 1L48 2L46 2L46 3L50 3L50 4L49 4L49 5L48 5L48 4L46 4L46 5L45 5L45 3L43 3L43 4L44 4L44 5L45 5L45 7L46 7L46 8L42 8L42 6L43 6L43 7L44 7L44 6L43 6L43 5L40 5L40 6L39 6L39 7L38 7L38 5L39 5L39 4L38 4L38 5L37 5L37 4L36 4L36 5L35 5L35 2L34 2L34 5L33 5L33 8L34 8L34 5L35 5L35 7L36 7L36 8L35 8L35 9L32 9L32 10L31 10L31 9L30 9L30 10L29 10L29 11L28 11L28 10L25 10L25 9L28 9L28 6L27 6L27 8L26 8L26 6L25 6L25 7L24 7L24 5L25 5L25 4L26 4L26 5L27 5L27 4L28 4L28 3L29 3L29 4L30 4L30 3L29 3L29 2L28 2L28 3L27 3L27 2L26 2L26 1ZM41 1L41 2L43 2L43 1ZM76 1L76 2L74 2L74 3L76 3L76 2L77 2L77 1ZM12 2L12 3L13 3L13 4L14 4L14 3L13 3L13 2ZM18 2L18 3L19 3L19 2ZM69 2L69 5L70 5L70 2ZM15 3L15 4L16 4L16 3ZM40 3L40 4L42 4L42 3ZM51 4L51 5L49 5L49 6L48 6L48 5L46 5L46 7L47 7L47 8L46 8L46 9L47 9L47 10L45 10L45 9L40 9L40 12L39 12L39 14L37 14L37 12L35 12L35 13L36 13L36 14L33 14L33 15L29 15L29 14L31 14L31 12L28 12L28 13L29 13L29 14L28 14L28 15L26 15L26 16L27 16L27 17L26 17L26 18L25 18L25 19L24 19L24 20L26 20L26 21L24 21L24 22L23 22L23 23L22 23L22 22L21 22L21 23L22 23L22 24L20 24L20 25L19 25L19 26L18 26L18 27L19 27L19 28L21 28L21 29L20 29L20 30L21 30L21 31L22 31L22 30L23 30L23 29L25 29L25 30L24 30L24 31L26 31L26 32L28 32L28 33L29 33L29 34L31 34L31 35L30 35L30 37L29 37L29 36L27 36L27 35L26 35L26 36L27 36L27 37L26 37L26 38L25 38L25 40L26 40L26 41L24 41L24 40L23 40L23 39L20 39L20 38L19 38L19 39L18 39L18 40L19 40L19 41L20 41L20 40L21 40L21 41L22 41L22 42L23 42L23 41L24 41L24 42L26 42L26 43L25 43L25 44L23 44L23 43L21 43L21 42L17 42L17 43L15 43L15 44L16 44L16 45L17 45L17 46L16 46L16 49L15 49L15 48L14 48L14 49L13 49L13 47L14 47L14 46L15 46L15 45L14 45L14 43L10 43L10 44L11 44L11 46L10 46L10 45L9 45L9 46L8 46L8 47L7 47L7 46L5 46L5 49L7 49L7 50L6 50L6 51L7 51L7 52L6 52L6 53L7 53L7 52L8 52L8 53L9 53L9 52L11 52L11 51L13 51L13 52L12 52L12 53L11 53L11 54L13 54L13 55L15 55L15 54L13 54L13 52L14 52L14 53L15 53L15 51L17 51L17 52L16 52L16 53L17 53L17 52L18 52L18 51L20 51L20 50L19 50L19 49L20 49L20 48L18 48L18 47L17 47L17 46L19 46L19 47L20 47L20 46L21 46L21 49L22 49L22 51L21 51L21 52L20 52L20 53L19 53L19 55L17 55L17 56L16 56L16 57L17 57L17 58L18 58L18 60L17 60L17 61L20 61L20 62L21 62L21 63L19 63L19 62L18 62L18 63L19 63L19 65L20 65L20 64L21 64L21 65L22 65L22 64L23 64L23 65L24 65L24 64L23 64L23 63L22 63L22 62L21 62L21 61L22 61L22 58L21 58L21 57L22 57L22 56L20 56L20 55L21 55L21 54L20 54L20 53L22 53L22 54L23 54L23 53L24 53L24 55L23 55L23 57L24 57L24 58L23 58L23 59L25 59L25 60L23 60L23 61L24 61L24 63L25 63L25 64L26 64L26 63L25 63L25 62L27 62L27 63L28 63L28 62L27 62L27 61L28 61L28 60L29 60L29 62L30 62L30 63L31 63L31 64L32 64L32 63L33 63L33 65L37 65L37 66L36 66L36 67L35 67L35 66L32 66L32 67L35 67L35 68L36 68L36 69L37 69L37 70L38 70L38 71L39 71L39 72L38 72L38 73L39 73L39 74L37 74L37 76L36 76L36 78L35 78L35 79L36 79L36 78L38 78L38 79L39 79L39 80L36 80L36 81L37 81L37 82L38 82L38 81L39 81L39 80L41 80L41 79L39 79L39 78L40 78L40 77L39 77L39 78L38 78L38 77L37 77L37 76L41 76L41 73L39 73L39 72L42 72L42 74L43 74L43 72L45 72L45 71L44 71L44 70L43 70L43 69L44 69L44 68L45 68L45 67L44 67L44 66L43 66L43 65L40 65L40 64L41 64L41 63L42 63L42 64L43 64L43 62L44 62L44 64L45 64L45 63L46 63L46 64L47 64L47 66L46 66L46 65L45 65L45 66L46 66L46 67L47 67L47 68L48 68L48 69L49 69L49 70L48 70L48 71L52 71L52 72L53 72L53 71L52 71L52 70L53 70L53 69L52 69L52 68L54 68L54 70L56 70L56 71L55 71L55 72L56 72L56 71L57 71L57 72L60 72L60 71L61 71L61 73L60 73L60 74L58 74L58 73L57 73L57 76L61 76L61 75L62 75L62 74L61 74L61 73L64 73L64 72L66 72L66 74L65 74L65 75L64 75L64 74L63 74L63 75L64 75L64 76L63 76L63 79L66 79L66 81L67 81L67 82L68 82L68 83L67 83L67 84L68 84L68 83L69 83L69 82L68 82L68 81L67 81L67 79L66 79L66 78L67 78L67 77L66 77L66 75L67 75L67 76L68 76L68 75L69 75L69 74L70 74L70 76L69 76L69 78L68 78L68 80L69 80L69 78L71 78L71 76L72 76L72 77L73 77L73 76L74 76L74 75L79 75L79 74L76 74L76 72L80 72L80 71L78 71L78 70L77 70L77 67L78 67L78 68L79 68L79 67L78 67L78 66L76 66L76 65L77 65L77 64L75 64L75 65L74 65L74 66L73 66L73 63L74 63L74 62L72 62L72 61L69 61L69 62L70 62L70 63L67 63L67 62L64 62L64 63L63 63L63 64L62 64L62 62L63 62L63 61L64 61L64 60L63 60L63 61L62 61L62 60L61 60L61 59L62 59L62 58L59 58L59 56L60 56L60 57L62 57L62 56L63 56L63 57L65 57L65 55L66 55L66 58L63 58L63 59L66 59L66 61L67 61L67 60L68 60L68 59L69 59L69 60L70 60L70 59L69 59L69 58L71 58L71 56L72 56L72 58L73 58L73 59L74 59L74 58L73 58L73 56L72 56L72 55L71 55L71 56L70 56L70 55L68 55L68 54L67 54L67 55L66 55L66 54L65 54L65 55L64 55L64 54L63 54L63 53L64 53L64 52L65 52L65 51L67 51L67 52L68 52L68 53L69 53L69 52L70 52L70 51L71 51L71 48L72 48L72 47L71 47L71 48L69 48L69 47L68 47L68 46L67 46L67 45L66 45L66 46L65 46L65 47L64 47L64 48L63 48L63 47L62 47L62 46L61 46L61 45L62 45L62 44L61 44L61 43L62 43L62 42L61 42L61 43L59 43L59 40L60 40L60 41L62 41L62 40L63 40L63 41L64 41L64 42L65 42L65 43L66 43L66 42L67 42L67 40L70 40L70 39L71 39L71 37L70 37L70 36L69 36L69 37L68 37L68 38L70 38L70 39L67 39L67 38L65 38L65 37L64 37L64 36L63 36L63 35L65 35L65 36L66 36L66 34L65 34L65 33L64 33L64 32L63 32L63 33L64 33L64 34L63 34L63 35L62 35L62 34L61 34L61 33L62 33L62 32L60 32L60 31L63 31L63 30L64 30L64 31L66 31L66 33L67 33L67 32L68 32L68 33L69 33L69 34L68 34L68 35L67 35L67 36L68 36L68 35L69 35L69 34L70 34L70 35L71 35L71 36L72 36L72 37L73 37L73 36L72 36L72 35L74 35L74 34L71 34L71 32L72 32L72 33L74 33L74 32L75 32L75 30L74 30L74 32L72 32L72 31L73 31L73 27L74 27L74 26L73 26L73 25L71 25L71 24L72 24L72 23L70 23L70 25L69 25L69 23L68 23L68 22L73 22L73 20L75 20L75 19L76 19L76 20L77 20L77 19L78 19L78 18L77 18L77 17L80 17L80 18L81 18L81 16L83 16L83 15L82 15L82 13L81 13L81 16L79 16L79 15L80 15L80 14L79 14L79 13L78 13L78 12L77 12L77 13L78 13L78 14L77 14L77 15L76 15L76 16L74 16L74 18L73 18L73 17L72 17L72 18L73 18L73 19L71 19L71 17L70 17L70 15L69 15L69 16L68 16L68 14L65 14L65 15L64 15L64 12L63 12L63 15L62 15L62 14L61 14L61 15L62 15L62 16L61 16L61 17L60 17L60 18L61 18L61 19L59 19L59 16L60 16L60 13L62 13L62 10L60 10L60 11L57 11L57 12L56 12L56 11L54 11L54 10L53 10L53 9L52 9L52 10L53 10L53 11L51 11L51 10L49 10L49 8L48 8L48 7L49 7L49 6L50 6L50 7L51 7L51 8L52 8L52 7L53 7L53 6L52 6L52 4ZM66 4L66 5L68 5L68 4ZM73 4L73 5L74 5L74 4ZM78 4L78 6L79 6L79 8L80 8L80 9L81 9L81 8L80 8L80 6L79 6L79 4ZM29 5L29 8L32 8L32 5ZM36 5L36 7L37 7L37 5ZM55 5L55 8L58 8L58 5ZM13 6L13 7L14 7L14 6ZM16 6L16 7L17 7L17 9L16 9L16 10L19 10L19 11L18 11L18 12L19 12L19 11L22 11L22 10L21 10L21 9L25 9L25 8L21 8L21 9L20 9L20 10L19 10L19 8L18 8L18 7L17 7L17 6ZM30 6L30 7L31 7L31 6ZM40 6L40 8L41 8L41 6ZM47 6L47 7L48 7L48 6ZM51 6L51 7L52 7L52 6ZM56 6L56 7L57 7L57 6ZM62 6L62 9L64 9L64 8L65 8L65 6L64 6L64 8L63 8L63 6ZM66 6L66 7L67 7L67 8L66 8L66 10L63 10L63 11L66 11L66 12L68 12L68 13L69 13L69 14L70 14L70 13L71 13L71 12L72 12L72 11L69 11L69 10L71 10L71 8L72 8L72 7L71 7L71 6L70 6L70 7L69 7L69 6L68 6L68 7L67 7L67 6ZM36 8L36 9L35 9L35 10L32 10L32 11L35 11L35 10L37 10L37 11L39 11L39 10L38 10L38 9L39 9L39 8L38 8L38 9L37 9L37 8ZM47 8L47 9L48 9L48 8ZM60 8L60 9L61 9L61 8ZM67 8L67 10L66 10L66 11L68 11L68 12L69 12L69 13L70 13L70 12L69 12L69 11L68 11L68 9L69 9L69 8ZM87 8L87 9L88 9L88 8ZM8 9L8 10L9 10L9 12L8 12L8 11L6 11L6 12L3 12L3 13L5 13L5 14L4 14L4 15L6 15L6 16L7 16L7 15L8 15L8 14L7 14L7 13L6 13L6 12L8 12L8 13L9 13L9 12L10 12L10 10L9 10L9 9ZM74 9L74 10L75 10L75 9ZM3 10L3 11L4 11L4 10ZM24 10L24 11L25 11L25 10ZM30 10L30 11L31 11L31 10ZM41 10L41 12L40 12L40 14L39 14L39 15L37 15L37 14L36 14L36 15L33 15L33 17L32 17L32 16L31 16L31 17L28 17L28 18L27 18L27 19L28 19L28 18L29 18L29 20L31 20L31 19L30 19L30 18L31 18L31 17L32 17L32 18L33 18L33 21L32 21L32 24L31 24L31 25L29 25L29 24L30 24L30 22L31 22L31 21L28 21L28 22L27 22L27 23L28 23L28 24L26 24L26 22L25 22L25 24L24 24L24 25L23 25L23 24L22 24L22 25L20 25L20 26L22 26L22 27L24 27L24 28L25 28L25 29L26 29L26 28L27 28L27 27L29 27L29 26L30 26L30 27L31 27L31 28L33 28L33 27L32 27L32 26L35 26L35 27L34 27L34 30L33 30L33 33L34 33L34 34L35 34L35 35L34 35L34 36L31 36L31 38L29 38L29 37L27 37L27 43L26 43L26 44L25 44L25 45L27 45L27 46L25 46L25 48L24 48L24 47L23 47L23 48L24 48L24 49L23 49L23 52L22 52L22 53L23 53L23 52L24 52L24 53L26 53L26 54L27 54L27 55L28 55L28 54L29 54L29 53L28 53L28 54L27 54L27 53L26 53L26 52L27 52L27 51L26 51L26 50L27 50L27 49L28 49L28 50L29 50L29 51L28 51L28 52L30 52L30 51L31 51L31 50L32 50L32 52L33 52L33 51L34 51L34 54L33 54L33 55L34 55L34 56L35 56L35 57L34 57L34 58L33 58L33 59L30 59L30 60L33 60L33 61L32 61L32 62L31 62L31 63L32 63L32 62L35 62L35 63L34 63L34 64L35 64L35 63L36 63L36 64L39 64L39 63L36 63L36 61L34 61L34 60L35 60L35 59L36 59L36 60L38 60L38 61L37 61L37 62L41 62L41 60L40 60L40 59L38 59L38 58L41 58L41 59L44 59L44 62L47 62L47 61L48 61L48 60L50 60L50 62L52 62L52 63L51 63L51 64L49 64L49 63L48 63L48 64L49 64L49 67L48 67L48 66L47 66L47 67L48 67L48 68L50 68L50 70L51 70L51 68L52 68L52 66L53 66L53 67L54 67L54 68L55 68L55 69L56 69L56 70L57 70L57 71L60 71L60 68L59 68L59 67L61 67L61 66L62 66L62 69L61 69L61 70L62 70L62 71L63 71L63 72L64 72L64 71L63 71L63 68L65 68L65 70L66 70L66 68L67 68L67 71L66 71L66 72L67 72L67 75L68 75L68 72L69 72L69 71L70 71L70 72L71 72L71 73L73 73L73 74L75 74L75 73L74 73L74 72L76 72L76 71L77 71L77 70L76 70L76 69L75 69L75 71L73 71L73 70L74 70L74 69L73 69L73 70L72 70L72 72L71 72L71 71L70 71L70 70L69 70L69 71L68 71L68 69L72 69L72 68L71 68L71 66L72 66L72 64L71 64L71 63L70 63L70 64L71 64L71 66L68 66L68 65L69 65L69 64L67 64L67 63L65 63L65 65L62 65L62 64L61 64L61 62L62 62L62 61L60 61L60 60L57 60L57 59L56 59L56 60L55 60L55 59L54 59L54 55L53 55L53 54L56 54L56 51L57 51L57 53L59 53L59 54L60 54L60 52L58 52L58 51L61 51L61 54L62 54L62 55L63 55L63 56L64 56L64 55L63 55L63 54L62 54L62 53L63 53L63 52L64 52L64 51L65 51L65 50L67 50L67 51L68 51L68 52L69 52L69 51L70 51L70 50L69 50L69 48L67 48L67 47L65 47L65 48L64 48L64 49L65 49L65 50L64 50L64 51L63 51L63 49L62 49L62 47L61 47L61 46L60 46L60 44L59 44L59 46L58 46L58 47L57 47L57 44L58 44L58 43L57 43L57 40L59 40L59 39L60 39L60 40L62 40L62 39L63 39L63 40L64 40L64 39L65 39L65 40L67 40L67 39L65 39L65 38L64 38L64 39L63 39L63 38L62 38L62 37L63 37L63 36L62 36L62 35L60 35L60 34L59 34L59 33L60 33L60 32L59 32L59 33L58 33L58 35L57 35L57 36L58 36L58 39L57 39L57 37L56 37L56 35L54 35L54 34L56 34L56 33L54 33L54 31L53 31L53 30L54 30L54 28L59 28L59 29L60 29L60 30L59 30L59 31L60 31L60 30L63 30L63 28L64 28L64 29L65 29L65 30L66 30L66 31L67 31L67 30L68 30L68 31L71 31L71 29L72 29L72 28L71 28L71 27L72 27L72 26L71 26L71 27L70 27L70 26L69 26L69 25L68 25L68 24L67 24L67 21L68 21L68 20L67 20L67 19L69 19L69 20L70 20L70 21L72 21L72 20L70 20L70 18L68 18L68 16L66 16L66 15L65 15L65 17L64 17L64 18L63 18L63 17L61 17L61 18L62 18L62 19L61 19L61 22L60 22L60 20L59 20L59 23L58 23L58 22L57 22L57 21L56 21L56 22L54 22L54 19L55 19L55 20L56 20L56 19L58 19L58 18L57 18L57 17L58 17L58 14L59 14L59 13L60 13L60 12L61 12L61 11L60 11L60 12L59 12L59 13L58 13L58 14L56 14L56 12L55 12L55 14L54 14L54 13L53 13L53 12L54 12L54 11L53 11L53 12L51 12L51 11L50 11L50 12L49 12L49 10L48 10L48 12L49 12L49 13L48 13L48 15L46 15L46 14L47 14L47 11L45 11L45 10ZM84 10L84 11L85 11L85 10ZM43 11L43 12L41 12L41 15L39 15L39 16L38 16L38 17L37 17L37 16L35 16L35 18L34 18L34 17L33 17L33 18L34 18L34 19L35 19L35 20L36 20L36 23L35 23L35 22L34 22L34 23L33 23L33 24L32 24L32 25L36 25L36 27L37 27L37 28L35 28L35 29L37 29L37 30L36 30L36 31L35 31L35 30L34 30L34 31L35 31L35 32L34 32L34 33L35 33L35 34L38 34L38 37L39 37L39 38L37 38L37 36L35 36L35 37L36 37L36 39L37 39L37 40L35 40L35 38L34 38L34 39L33 39L33 40L31 40L31 41L30 41L30 39L29 39L29 40L28 40L28 41L29 41L29 42L31 42L31 41L32 41L32 42L34 42L34 43L32 43L32 44L34 44L34 45L35 45L35 44L36 44L36 47L35 47L35 46L34 46L34 47L33 47L33 48L32 48L32 50L33 50L33 48L34 48L34 47L35 47L35 50L34 50L34 51L37 51L37 52L36 52L36 54L34 54L34 55L35 55L35 56L36 56L36 57L37 57L37 58L36 58L36 59L37 59L37 58L38 58L38 56L39 56L39 54L38 54L38 51L39 51L39 52L41 52L41 53L40 53L40 56L41 56L41 53L42 53L42 54L43 54L43 52L45 52L45 54L46 54L46 55L47 55L47 56L48 56L48 57L50 57L50 56L52 56L52 54L53 54L53 53L55 53L55 52L54 52L54 50L53 50L53 51L51 51L51 50L52 50L52 49L51 49L51 48L53 48L53 49L56 49L56 48L55 48L55 47L56 47L56 44L53 44L53 43L54 43L54 41L55 41L55 43L56 43L56 40L55 40L55 39L56 39L56 38L54 38L54 37L55 37L55 36L54 36L54 35L53 35L53 34L54 34L54 33L53 33L53 34L50 34L50 35L49 35L49 34L48 34L48 33L49 33L49 32L50 32L50 31L51 31L51 32L52 32L52 31L51 31L51 30L50 30L50 31L49 31L49 29L50 29L50 28L47 28L47 30L46 30L46 27L47 27L47 26L48 26L48 27L49 27L49 26L48 26L48 25L49 25L49 24L48 24L48 25L47 25L47 26L46 26L46 24L45 24L45 23L43 23L43 24L42 24L42 22L43 22L43 21L44 21L44 20L48 20L48 21L49 21L49 22L48 22L48 23L49 23L49 22L50 22L50 25L52 25L52 24L54 24L54 25L55 25L55 26L56 26L56 25L57 25L57 26L61 26L61 27L59 27L59 28L60 28L60 29L61 29L61 27L62 27L62 28L63 28L63 26L65 26L65 27L64 27L64 28L65 28L65 29L66 29L66 28L68 28L68 30L70 30L70 29L69 29L69 28L70 28L70 27L69 27L69 26L68 26L68 25L66 25L66 26L65 26L65 23L64 23L64 24L62 24L62 22L61 22L61 23L59 23L59 24L61 24L61 25L58 25L58 23L57 23L57 22L56 22L56 24L55 24L55 23L54 23L54 22L53 22L53 23L51 23L51 22L50 22L50 21L49 21L49 20L53 20L53 19L51 19L51 18L50 18L50 19L49 19L49 20L48 20L48 17L49 17L49 16L50 16L50 17L52 17L52 18L53 18L53 17L52 17L52 16L53 16L53 15L54 15L54 14L53 14L53 15L52 15L52 16L51 16L51 15L50 15L50 13L49 13L49 16L47 16L47 18L46 18L46 15L44 15L44 14L43 14L43 13L44 13L44 12L45 12L45 11ZM12 12L12 14L13 14L13 13L16 13L16 12ZM32 12L32 13L33 13L33 12ZM21 13L21 14L24 14L24 13ZM6 14L6 15L7 15L7 14ZM42 14L42 15L41 15L41 16L40 16L40 18L39 18L39 17L38 17L38 18L35 18L35 19L36 19L36 20L37 20L37 21L38 21L38 22L37 22L37 24L38 24L38 26L37 26L37 27L38 27L38 26L39 26L39 25L40 25L40 26L41 26L41 28L40 28L40 27L39 27L39 29L38 29L38 28L37 28L37 29L38 29L38 30L39 30L39 31L36 31L36 32L35 32L35 33L36 33L36 32L37 32L37 33L38 33L38 34L40 34L40 35L39 35L39 36L40 36L40 37L42 37L42 35L44 35L44 34L47 34L47 35L45 35L45 36L44 36L44 37L45 37L45 39L46 39L46 38L47 38L47 39L48 39L48 37L47 37L47 36L49 36L49 35L48 35L48 34L47 34L47 33L48 33L48 32L49 32L49 31L47 31L47 33L46 33L46 30L45 30L45 28L44 28L44 27L43 27L43 26L44 26L44 25L45 25L45 24L44 24L44 25L43 25L43 26L41 26L41 25L42 25L42 24L41 24L41 22L42 22L42 21L43 21L43 20L42 20L42 19L43 19L43 18L45 18L45 19L46 19L46 18L45 18L45 16L44 16L44 15L43 15L43 14ZM78 14L78 15L77 15L77 16L76 16L76 17L77 17L77 16L78 16L78 15L79 15L79 14ZM13 15L13 16L14 16L14 15ZM16 15L16 16L17 16L17 15ZM28 15L28 16L29 16L29 15ZM42 15L42 16L43 16L43 15ZM55 15L55 16L56 16L56 15ZM63 15L63 16L64 16L64 15ZM6 17L6 18L7 18L7 19L8 19L8 18L7 18L7 17ZM12 17L12 18L13 18L13 17ZM42 17L42 18L40 18L40 20L39 20L39 22L38 22L38 24L39 24L39 23L40 23L40 22L41 22L41 21L40 21L40 20L41 20L41 19L42 19L42 18L43 18L43 17ZM55 17L55 18L56 18L56 17ZM66 17L66 18L64 18L64 19L66 19L66 18L67 18L67 17ZM84 17L84 18L85 18L85 17ZM38 18L38 19L39 19L39 18ZM74 18L74 19L75 19L75 18ZM76 18L76 19L77 19L77 18ZM0 19L0 20L3 20L3 21L4 21L4 20L3 20L3 19ZM14 19L14 21L16 21L16 20L15 20L15 19ZM62 20L62 21L63 21L63 22L65 22L65 21L67 21L67 20ZM81 20L81 21L82 21L82 20ZM87 21L87 22L88 22L88 21ZM46 22L46 23L47 23L47 22ZM75 22L75 24L76 24L76 23L77 23L77 22ZM3 23L3 24L2 24L2 25L1 25L1 26L2 26L2 27L3 27L3 28L4 28L4 27L5 27L5 28L7 28L7 27L5 27L5 26L7 26L7 25L8 25L8 28L10 28L10 26L9 26L9 25L10 25L10 24L9 24L9 23L8 23L8 24L7 24L7 23L5 23L5 26L4 26L4 25L3 25L3 24L4 24L4 23ZM34 23L34 24L35 24L35 23ZM79 23L79 24L78 24L78 25L83 25L83 24L85 24L85 25L84 25L84 26L85 26L85 25L86 25L86 23L82 23L82 24L80 24L80 23ZM6 24L6 25L7 25L7 24ZM13 24L13 25L11 25L11 28L13 28L13 27L14 27L14 24ZM22 25L22 26L23 26L23 25ZM24 25L24 26L25 26L25 27L27 27L27 26L26 26L26 25ZM28 25L28 26L29 26L29 25ZM61 25L61 26L63 26L63 25ZM45 26L45 27L46 27L46 26ZM50 26L50 27L51 27L51 29L52 29L52 28L53 28L53 27L51 27L51 26ZM66 26L66 27L68 27L68 28L69 28L69 27L68 27L68 26ZM86 27L86 28L85 28L85 29L86 29L86 28L87 28L87 27ZM14 28L14 29L15 29L15 28ZM17 28L17 29L18 29L18 28ZM42 28L42 29L40 29L40 31L41 31L41 30L44 30L44 31L42 31L42 32L45 32L45 30L44 30L44 29L43 29L43 28ZM3 29L3 30L2 30L2 31L3 31L3 33L4 33L4 31L3 31L3 30L4 30L4 29ZM5 29L5 32L8 32L8 29ZM21 29L21 30L22 30L22 29ZM27 29L27 30L26 30L26 31L28 31L28 29ZM29 29L29 32L32 32L32 29ZM55 29L55 32L58 32L58 29ZM81 29L81 32L84 32L84 29ZM6 30L6 31L7 31L7 30ZM18 30L18 31L19 31L19 30ZM30 30L30 31L31 31L31 30ZM56 30L56 31L57 31L57 30ZM82 30L82 31L83 31L83 30ZM12 31L12 32L13 32L13 33L14 33L14 31ZM16 31L16 32L17 32L17 31ZM1 32L1 33L2 33L2 32ZM18 32L18 33L15 33L15 35L16 35L16 34L17 34L17 35L18 35L18 36L19 36L19 37L20 37L20 36L19 36L19 35L20 35L20 34L19 34L19 35L18 35L18 33L22 33L22 32ZM23 32L23 33L25 33L25 34L26 34L26 33L25 33L25 32ZM69 32L69 33L70 33L70 32ZM6 33L6 34L7 34L7 33ZM8 33L8 36L7 36L7 35L6 35L6 36L7 36L7 37L6 37L6 38L7 38L7 39L5 39L5 40L7 40L7 39L8 39L8 38L10 38L10 37L9 37L9 36L11 36L11 34L10 34L10 35L9 35L9 33ZM31 33L31 34L32 34L32 35L33 35L33 34L32 34L32 33ZM40 33L40 34L41 34L41 35L40 35L40 36L41 36L41 35L42 35L42 34L44 34L44 33ZM21 34L21 37L22 37L22 35L23 35L23 34ZM58 35L58 36L60 36L60 37L59 37L59 38L60 38L60 39L62 39L62 38L61 38L61 36L60 36L60 35ZM23 36L23 37L25 37L25 36ZM45 36L45 37L46 37L46 36ZM51 36L51 37L50 37L50 38L49 38L49 41L47 41L47 40L44 40L44 39L43 39L43 38L41 38L41 40L40 40L40 41L41 41L41 42L40 42L40 43L41 43L41 44L40 44L40 46L39 46L39 43L38 43L38 42L39 42L39 39L38 39L38 42L37 42L37 41L35 41L35 40L34 40L34 42L35 42L35 43L34 43L34 44L35 44L35 43L36 43L36 44L38 44L38 46L37 46L37 47L36 47L36 48L37 48L37 51L38 51L38 50L40 50L40 51L44 51L44 49L45 49L45 50L48 50L48 48L49 48L49 50L51 50L51 49L50 49L50 48L51 48L51 47L50 47L50 46L52 46L52 47L53 47L53 48L54 48L54 47L55 47L55 46L54 46L54 45L53 45L53 44L52 44L52 43L53 43L53 40L52 40L52 39L53 39L53 37L54 37L54 36ZM7 37L7 38L8 38L8 37ZM32 37L32 38L33 38L33 37ZM51 37L51 38L50 38L50 39L51 39L51 38L52 38L52 37ZM84 37L84 38L85 38L85 37ZM0 39L0 41L1 41L1 39ZM19 39L19 40L20 40L20 39ZM41 40L41 41L42 41L42 42L41 42L41 43L42 43L42 44L43 44L43 43L42 43L42 42L43 42L43 40ZM50 40L50 41L51 41L51 42L50 42L50 43L49 43L49 42L48 42L48 43L49 43L49 44L48 44L48 45L49 45L49 46L50 46L50 43L51 43L51 42L52 42L52 40ZM6 41L6 42L8 42L8 41ZM10 41L10 42L13 42L13 41ZM44 41L44 42L45 42L45 43L44 43L44 44L45 44L45 45L47 45L47 44L45 44L45 43L47 43L47 42L46 42L46 41ZM65 41L65 42L66 42L66 41ZM36 42L36 43L37 43L37 42ZM4 43L4 44L3 44L3 45L4 45L4 44L5 44L5 43ZM18 43L18 44L21 44L21 43ZM29 43L29 44L28 44L28 45L29 45L29 44L30 44L30 46L31 46L31 47L29 47L29 46L27 46L27 47L26 47L26 48L27 48L27 47L28 47L28 49L29 49L29 50L31 50L31 47L32 47L32 45L31 45L31 43ZM12 44L12 45L13 45L13 46L14 46L14 45L13 45L13 44ZM51 44L51 45L52 45L52 44ZM63 44L63 46L64 46L64 45L65 45L65 44ZM81 44L81 45L82 45L82 46L83 46L83 44ZM84 44L84 45L85 45L85 44ZM19 45L19 46L20 46L20 45ZM21 45L21 46L24 46L24 45ZM41 45L41 47L39 47L39 46L38 46L38 47L37 47L37 48L38 48L38 47L39 47L39 48L42 48L42 50L43 50L43 49L44 49L44 48L45 48L45 49L47 49L47 48L48 48L48 47L47 47L47 46L45 46L45 47L44 47L44 45ZM74 45L74 48L75 48L75 49L76 49L76 50L77 50L77 49L76 49L76 48L77 48L77 47L78 47L78 48L80 48L80 47L81 47L81 48L82 48L82 49L83 49L83 48L84 48L84 49L85 49L85 48L84 48L84 47L83 47L83 48L82 48L82 47L81 47L81 46L80 46L80 47L78 47L78 46L77 46L77 47L76 47L76 46L75 46L75 45ZM11 46L11 47L10 47L10 49L9 49L9 47L8 47L8 48L7 48L7 47L6 47L6 48L7 48L7 49L9 49L9 50L7 50L7 51L10 51L10 49L11 49L11 50L12 50L12 49L11 49L11 48L12 48L12 46ZM53 46L53 47L54 47L54 46ZM42 47L42 48L44 48L44 47ZM46 47L46 48L47 48L47 47ZM58 47L58 48L61 48L61 47ZM75 47L75 48L76 48L76 47ZM29 48L29 49L30 49L30 48ZM65 48L65 49L67 49L67 48ZM16 49L16 50L17 50L17 51L18 51L18 49ZM25 49L25 50L26 50L26 49ZM40 49L40 50L41 50L41 49ZM57 49L57 51L58 51L58 50L59 50L59 49ZM60 49L60 50L61 50L61 51L62 51L62 50L61 50L61 49ZM79 49L79 50L80 50L80 51L81 51L81 49ZM4 50L4 51L5 51L5 50ZM14 50L14 51L15 51L15 50ZM55 50L55 51L56 51L56 50ZM24 51L24 52L25 52L25 51ZM46 51L46 52L49 52L49 55L48 55L48 56L49 56L49 55L50 55L50 54L52 54L52 53L53 53L53 52L51 52L51 51ZM50 52L50 53L51 53L51 52ZM1 53L1 55L3 55L3 54L2 54L2 53ZM46 53L46 54L48 54L48 53ZM73 53L73 54L74 54L74 53ZM80 53L80 54L79 54L79 55L80 55L80 54L81 54L81 53ZM82 53L82 54L83 54L83 53ZM88 53L88 54L89 54L89 53ZM36 54L36 56L38 56L38 54ZM5 55L5 58L8 58L8 55ZM24 55L24 56L25 56L25 57L26 57L26 59L27 59L27 60L28 60L28 59L27 59L27 56L26 56L26 55ZM29 55L29 58L32 58L32 55ZM42 55L42 56L45 56L45 57L44 57L44 58L45 58L45 60L46 60L46 61L47 61L47 60L46 60L46 59L47 59L47 58L45 58L45 57L46 57L46 56L45 56L45 55ZM55 55L55 58L58 58L58 55ZM81 55L81 58L84 58L84 55ZM6 56L6 57L7 57L7 56ZM10 56L10 57L11 57L11 58L12 58L12 57L11 57L11 56ZM13 56L13 57L14 57L14 56ZM17 56L17 57L19 57L19 58L20 58L20 57L19 57L19 56ZM30 56L30 57L31 57L31 56ZM56 56L56 57L57 57L57 56ZM67 56L67 57L68 57L68 56ZM74 56L74 57L75 57L75 59L76 59L76 60L74 60L74 61L75 61L75 63L78 63L78 62L80 62L80 63L81 63L81 62L80 62L80 61L79 61L79 59L78 59L78 60L77 60L77 59L76 59L76 58L77 58L77 57L76 57L76 56ZM82 56L82 57L83 57L83 56ZM85 56L85 57L86 57L86 56ZM41 57L41 58L43 58L43 57ZM52 57L52 58L48 58L48 59L52 59L52 60L53 60L53 61L54 61L54 62L55 62L55 60L54 60L54 59L52 59L52 58L53 58L53 57ZM3 58L3 59L4 59L4 58ZM34 58L34 59L33 59L33 60L34 60L34 59L35 59L35 58ZM66 58L66 59L67 59L67 58ZM10 59L10 60L11 60L11 59ZM20 59L20 60L21 60L21 59ZM71 59L71 60L72 60L72 59ZM6 60L6 61L7 61L7 60ZM25 60L25 61L26 61L26 60ZM39 60L39 61L40 61L40 60ZM56 60L56 62L57 62L57 63L55 63L55 64L54 64L54 63L52 63L52 64L51 64L51 65L52 65L52 64L54 64L54 67L55 67L55 68L56 68L56 67L57 67L57 70L59 70L59 68L58 68L58 66L61 66L61 65L55 65L55 64L60 64L60 62L59 62L59 61L57 61L57 60ZM76 60L76 61L77 61L77 62L78 62L78 61L77 61L77 60ZM2 61L2 63L3 63L3 61ZM82 61L82 62L83 62L83 61ZM84 61L84 62L85 62L85 63L84 63L84 64L85 64L85 63L87 63L87 62L85 62L85 61ZM6 62L6 63L7 63L7 62ZM58 62L58 63L59 63L59 62ZM38 65L38 66L39 66L39 65ZM79 65L79 66L80 66L80 65ZM40 66L40 67L43 67L43 68L44 68L44 67L43 67L43 66ZM50 66L50 67L51 67L51 66ZM55 66L55 67L56 67L56 66ZM63 66L63 67L66 67L66 66ZM74 66L74 67L75 67L75 68L76 68L76 67L75 67L75 66ZM81 66L81 67L80 67L80 68L81 68L81 67L82 67L82 68L83 68L83 67L82 67L82 66ZM9 67L9 70L8 70L8 69L7 69L7 70L6 70L6 71L5 71L5 72L6 72L6 73L7 73L7 74L10 74L10 73L9 73L9 72L10 72L10 71L11 71L11 67ZM28 67L28 68L29 68L29 67ZM36 67L36 68L37 68L37 69L38 69L38 70L42 70L42 72L43 72L43 70L42 70L42 68L39 68L39 69L38 69L38 68L37 68L37 67ZM67 67L67 68L70 68L70 67ZM33 68L33 69L34 69L34 68ZM87 69L87 70L88 70L88 69ZM0 70L0 71L1 71L1 70ZM21 70L21 71L23 71L23 70ZM32 70L32 71L35 71L35 74L36 74L36 73L37 73L37 72L36 72L36 70ZM46 70L46 71L47 71L47 70ZM6 71L6 72L7 72L7 73L8 73L8 72L7 72L7 71ZM67 71L67 72L68 72L68 71ZM81 71L81 72L82 72L82 71ZM30 72L30 73L31 73L31 72ZM47 72L47 74L46 74L46 73L44 73L44 74L46 74L46 75L47 75L47 74L48 74L48 75L49 75L49 76L46 76L46 77L49 77L49 76L51 76L51 75L52 75L52 76L54 76L54 77L55 77L55 76L56 76L56 75L55 75L55 76L54 76L54 75L52 75L52 74L49 74L49 72ZM50 72L50 73L51 73L51 72ZM84 72L84 73L86 73L86 72ZM24 73L24 74L26 74L26 73ZM55 73L55 74L56 74L56 73ZM16 74L16 75L14 75L14 77L16 77L16 78L17 78L17 77L19 77L19 75L18 75L18 74ZM30 74L30 75L31 75L31 74ZM39 74L39 75L40 75L40 74ZM60 74L60 75L61 75L61 74ZM71 74L71 75L72 75L72 74ZM25 75L25 76L26 76L26 75ZM84 75L84 76L85 76L85 75ZM75 76L75 77L76 77L76 76ZM6 77L6 78L7 78L7 79L6 79L6 80L7 80L7 79L8 79L8 80L9 80L9 82L10 82L10 80L9 80L9 79L10 79L10 77L9 77L9 78L7 78L7 77ZM64 77L64 78L66 78L66 77ZM32 78L32 79L33 79L33 78ZM48 78L48 79L47 79L47 80L48 80L48 83L49 83L49 82L50 82L50 81L49 81L49 80L48 80L48 79L49 79L49 78ZM50 78L50 80L51 80L51 79L52 79L52 78ZM79 78L79 79L78 79L78 80L77 80L77 81L76 81L76 82L79 82L79 81L80 81L80 80L81 80L81 79L82 79L82 80L83 80L83 79L82 79L82 78ZM53 79L53 80L54 80L54 79ZM59 80L59 81L60 81L60 80ZM63 80L63 81L64 81L64 80ZM73 80L73 81L74 81L74 80ZM78 80L78 81L79 81L79 80ZM85 80L85 83L86 83L86 84L85 84L85 85L84 85L84 86L83 86L83 87L82 87L82 88L83 88L83 87L84 87L84 86L87 86L87 85L88 85L88 84L87 84L87 82L86 82L86 80ZM27 81L27 82L28 82L28 81ZM29 81L29 84L32 84L32 81ZM52 81L52 82L53 82L53 81ZM55 81L55 84L58 84L58 81ZM81 81L81 84L84 84L84 81ZM30 82L30 83L31 83L31 82ZM34 82L34 83L35 83L35 82ZM44 82L44 83L45 83L45 82ZM56 82L56 83L57 83L57 82ZM59 82L59 83L60 83L60 82ZM63 82L63 83L66 83L66 82ZM82 82L82 83L83 83L83 82ZM20 84L20 85L21 85L21 84ZM72 84L72 85L74 85L74 84ZM79 84L79 85L80 85L80 84ZM86 84L86 85L87 85L87 84ZM29 85L29 86L31 86L31 85ZM37 85L37 87L36 87L36 88L37 88L37 87L38 87L38 86L39 86L39 85ZM55 85L55 86L54 86L54 87L55 87L55 88L57 88L57 86L58 86L58 85L57 85L57 86L56 86L56 85ZM60 85L60 86L61 86L61 87L62 87L62 86L61 86L61 85ZM12 86L12 88L10 88L10 89L12 89L12 88L13 88L13 86ZM69 86L69 87L70 87L70 86ZM19 87L19 89L22 89L22 87L21 87L21 88L20 88L20 87ZM34 87L34 88L35 88L35 87ZM46 87L46 88L47 88L47 87ZM86 87L86 88L87 88L87 87ZM0 0L0 7L7 7L7 0ZM1 1L1 6L6 6L6 1ZM2 2L2 5L5 5L5 2ZM82 0L82 7L89 7L89 0ZM83 1L83 6L88 6L88 1ZM84 2L84 5L87 5L87 2ZM0 82L0 89L7 89L7 82ZM1 83L1 88L6 88L6 83ZM2 84L2 87L5 87L5 84Z" fill="#000000"/></g></g></svg>
