<?xml version="1.0" encoding="UTF-8"?>
<svg xmlns="http://www.w3.org/2000/svg" version="1.1" width="400" height="400" viewBox="0 0 400 400"><rect x="0" y="0" width="400" height="400" fill="#ffffff"/><g transform="scale(12.121)"><g transform="translate(0,0)"><path fill-rule="evenodd" d="M9 0L9 1L8 1L8 2L9 2L9 3L8 3L8 4L10 4L10 7L11 7L11 4L12 4L12 5L13 5L13 6L12 6L12 9L14 9L14 8L13 8L13 6L14 6L14 7L15 7L15 9L16 9L16 10L15 10L15 12L12 12L12 11L14 11L14 10L11 10L11 11L10 11L10 9L11 9L11 8L6 8L6 9L9 9L9 11L7 11L7 10L5 10L5 11L4 11L4 9L5 9L5 8L0 8L0 9L1 9L1 11L0 11L0 13L1 13L1 14L0 14L0 17L1 17L1 14L2 14L2 13L3 13L3 14L5 14L5 15L4 15L4 16L5 16L5 17L3 17L3 19L2 19L2 18L1 18L1 20L0 20L0 25L1 25L1 22L2 22L2 24L6 24L6 25L8 25L8 27L9 27L9 25L8 25L8 23L7 23L7 22L6 22L6 21L7 21L7 20L9 20L9 18L10 18L10 16L11 16L11 18L12 18L12 19L11 19L11 20L12 20L12 21L10 21L10 22L9 22L9 23L10 23L10 25L11 25L11 26L12 26L12 27L10 27L10 28L8 28L8 33L9 33L9 31L10 31L10 32L11 32L11 31L10 31L10 30L9 30L9 29L10 29L10 28L13 28L13 29L14 29L14 30L13 30L13 31L15 31L15 32L12 32L12 33L21 33L21 32L24 32L24 33L25 33L25 32L26 32L26 31L27 31L27 30L29 30L29 31L28 31L28 33L32 33L32 32L31 32L31 31L32 31L32 30L29 30L29 29L30 29L30 28L31 28L31 27L32 27L32 26L33 26L33 23L31 23L31 21L29 21L29 20L31 20L31 19L32 19L32 20L33 20L33 19L32 19L32 18L33 18L33 17L32 17L32 16L31 16L31 15L32 15L32 14L33 14L33 13L32 13L32 10L33 10L33 9L32 9L32 8L31 8L31 9L32 9L32 10L30 10L30 8L29 8L29 10L28 10L28 8L27 8L27 9L26 9L26 8L25 8L25 9L23 9L23 10L21 10L21 9L19 9L19 8L22 8L22 7L23 7L23 8L24 8L24 7L25 7L25 6L24 6L24 7L23 7L23 5L24 5L24 4L25 4L25 2L24 2L24 4L19 4L19 3L20 3L20 2L18 2L18 1L21 1L21 3L23 3L23 2L22 2L22 1L25 1L25 0L22 0L22 1L21 1L21 0L18 0L18 1L15 1L15 4L14 4L14 3L13 3L13 4L12 4L12 2L14 2L14 1L11 1L11 2L10 2L10 0ZM17 2L17 3L16 3L16 4L15 4L15 5L14 5L14 6L15 6L15 7L16 7L16 8L19 8L19 7L20 7L20 6L21 6L21 7L22 7L22 6L21 6L21 5L19 5L19 4L18 4L18 5L16 5L16 4L17 4L17 3L18 3L18 2ZM10 3L10 4L11 4L11 3ZM8 5L8 7L9 7L9 5ZM15 5L15 6L16 6L16 7L17 7L17 6L16 6L16 5ZM18 5L18 7L19 7L19 5ZM2 9L2 11L1 11L1 12L2 12L2 11L3 11L3 9ZM17 9L17 10L19 10L19 12L21 12L21 13L20 13L20 14L19 14L19 13L17 13L17 14L16 14L16 12L18 12L18 11L16 11L16 12L15 12L15 13L13 13L13 14L12 14L12 13L11 13L11 12L10 12L10 13L11 13L11 14L9 14L9 16L10 16L10 15L11 15L11 16L12 16L12 18L13 18L13 20L14 20L14 18L16 18L16 19L15 19L15 20L16 20L16 21L14 21L14 22L11 22L11 24L12 24L12 26L13 26L13 28L14 28L14 27L15 27L15 28L16 28L16 29L15 29L15 30L18 30L18 29L20 29L20 30L19 30L19 32L21 32L21 30L25 30L25 31L24 31L24 32L25 32L25 31L26 31L26 30L27 30L27 29L26 29L26 30L25 30L25 29L24 29L24 27L22 27L22 28L21 28L21 29L20 29L20 28L18 28L18 27L21 27L21 25L24 25L24 24L27 24L27 23L29 23L29 21L27 21L27 20L29 20L29 19L31 19L31 18L32 18L32 17L31 17L31 16L30 16L30 17L31 17L31 18L29 18L29 17L28 17L28 19L27 19L27 18L26 18L26 17L27 17L27 15L26 15L26 14L25 14L25 15L26 15L26 17L25 17L25 16L24 16L24 14L23 14L23 15L22 15L22 16L20 16L20 14L21 14L21 13L23 13L23 12L25 12L25 13L28 13L28 14L32 14L32 13L31 13L31 12L29 12L29 13L28 13L28 12L26 12L26 11L27 11L27 10L26 10L26 9L25 9L25 10L23 10L23 12L21 12L21 11L20 11L20 10L19 10L19 9ZM29 10L29 11L30 11L30 10ZM6 11L6 12L4 12L4 13L6 13L6 14L7 14L7 15L5 15L5 16L7 16L7 17L6 17L6 18L4 18L4 19L3 19L3 20L2 20L2 22L5 22L5 21L6 21L6 20L7 20L7 19L6 19L6 18L7 18L7 17L8 17L8 16L7 16L7 15L8 15L8 13L9 13L9 12L8 12L8 13L6 13L6 12L7 12L7 11ZM14 14L14 15L15 15L15 16L13 16L13 17L16 17L16 18L17 18L17 19L18 19L18 18L17 18L17 17L19 17L19 18L20 18L20 16L19 16L19 14L18 14L18 16L17 16L17 15L16 15L16 14ZM2 15L2 16L3 16L3 15ZM28 15L28 16L29 16L29 15ZM22 16L22 17L21 17L21 18L22 18L22 19L20 19L20 20L22 20L22 19L23 19L23 18L25 18L25 17L24 17L24 16ZM22 17L22 18L23 18L23 17ZM24 19L24 20L23 20L23 21L19 21L19 20L17 20L17 21L19 21L19 22L18 22L18 24L17 24L17 23L16 23L16 22L14 22L14 23L15 23L15 24L13 24L13 23L12 23L12 24L13 24L13 26L14 26L14 25L15 25L15 24L17 24L17 25L18 25L18 26L17 26L17 27L18 27L18 26L20 26L20 25L21 25L21 24L24 24L24 23L26 23L26 22L27 22L27 21L24 21L24 20L26 20L26 19ZM4 20L4 21L5 21L5 20ZM32 21L32 22L33 22L33 21ZM19 22L19 23L20 23L20 24L18 24L18 25L20 25L20 24L21 24L21 22ZM22 22L22 23L24 23L24 22ZM6 23L6 24L7 24L7 23ZM30 24L30 25L29 25L29 27L31 27L31 26L30 26L30 25L32 25L32 24ZM25 25L25 28L28 28L28 25ZM15 26L15 27L16 27L16 26ZM26 26L26 27L27 27L27 26ZM17 28L17 29L18 29L18 28ZM32 28L32 29L33 29L33 28ZM11 29L11 30L12 30L12 29ZM16 31L16 32L18 32L18 31ZM0 0L0 7L7 7L7 0ZM1 1L1 6L6 6L6 1ZM2 2L2 5L5 5L5 2ZM26 0L26 7L33 7L33 0ZM27 1L27 6L32 6L32 1ZM28 2L28 5L31 5L31 2ZM0 26L0 33L7 33L7 26ZM1 27L1 32L6 32L6 27ZM2 28L2 31L5 31L5 28Z" fill="#000000"/></g></g></svg>
