<?xml version="1.0" encoding="UTF-8"?>
<svg xmlns="http://www.w3.org/2000/svg" version="1.1" width="400" height="400" viewBox="0 0 400 400"><rect x="0" y="0" width="400" height="400" fill="#ffffff"/><g transform="scale(12.121)"><g transform="translate(0,0)"><path fill-rule="evenodd" d="M9 0L9 1L8 1L8 2L9 2L9 3L8 3L8 4L10 4L10 7L11 7L11 4L12 4L12 5L13 5L13 6L12 6L12 9L14 9L14 8L13 8L13 6L14 6L14 7L15 7L15 9L16 9L16 10L15 10L15 12L12 12L12 11L14 11L14 10L11 10L11 11L10 11L10 9L11 9L11 8L6 8L6 9L5 9L5 8L0 8L0 10L1 10L1 11L0 11L0 17L1 17L1 20L0 20L0 25L1 25L1 22L3 22L3 23L2 23L2 25L4 25L4 24L5 24L5 25L8 25L8 27L9 27L9 28L8 28L8 33L11 33L11 31L10 31L10 32L9 32L9 30L10 30L10 29L9 29L9 28L10 28L10 27L11 27L11 28L13 28L13 29L14 29L14 30L13 30L13 31L15 31L15 32L12 32L12 33L21 33L21 32L24 32L24 33L25 33L25 32L26 32L26 31L27 31L27 30L29 30L29 31L28 31L28 33L32 33L32 32L31 32L31 31L32 31L32 30L29 30L29 29L30 29L30 28L31 28L31 27L32 27L32 26L33 26L33 23L31 23L31 21L29 21L29 20L31 20L31 19L32 19L32 20L33 20L33 19L32 19L32 18L33 18L33 17L32 17L32 16L31 16L31 15L32 15L32 14L33 14L33 13L32 13L32 10L33 10L33 9L32 9L32 8L31 8L31 9L32 9L32 10L30 10L30 8L29 8L29 10L28 10L28 8L27 8L27 9L26 9L26 8L25 8L25 6L24 6L24 7L23 7L23 6L22 6L22 4L23 4L23 5L25 5L25 4L24 4L24 3L25 3L25 2L24 2L24 3L22 3L22 1L25 1L25 0L22 0L22 1L21 1L21 2L19 2L19 1L20 1L20 0L19 0L19 1L18 1L18 3L17 3L17 1L15 1L15 4L14 4L14 3L13 3L13 4L12 4L12 2L14 2L14 1L11 1L11 2L10 2L10 0ZM10 3L10 4L11 4L11 3ZM16 3L16 4L15 4L15 5L14 5L14 6L15 6L15 7L16 7L16 8L18 8L18 9L17 9L17 10L18 10L18 9L20 9L20 10L19 10L19 11L16 11L16 12L15 12L15 13L13 13L13 14L12 14L12 13L11 13L11 12L10 12L10 13L6 13L6 12L8 12L8 11L9 11L9 9L6 9L6 10L4 10L4 9L2 9L2 11L1 11L1 17L2 17L2 20L1 20L1 21L4 21L4 22L5 22L5 24L7 24L7 23L6 23L6 22L7 22L7 21L6 21L6 20L7 20L7 19L6 19L6 18L7 18L7 17L8 17L8 18L10 18L10 19L12 19L12 18L13 18L13 20L14 20L14 18L16 18L16 19L15 19L15 20L16 20L16 21L14 21L14 22L11 22L11 21L12 21L12 20L11 20L11 21L10 21L10 23L9 23L9 25L11 25L11 24L12 24L12 26L11 26L11 27L12 27L12 26L13 26L13 28L14 28L14 27L15 27L15 28L16 28L16 29L15 29L15 30L17 30L17 32L21 32L21 30L25 30L25 31L24 31L24 32L25 32L25 31L26 31L26 30L27 30L27 29L26 29L26 30L25 30L25 29L24 29L24 27L23 27L23 25L24 25L24 24L27 24L27 23L29 23L29 21L27 21L27 20L29 20L29 19L31 19L31 18L32 18L32 17L31 17L31 16L30 16L30 17L31 17L31 18L29 18L29 17L28 17L28 19L27 19L27 18L26 18L26 17L27 17L27 15L26 15L26 14L25 14L25 15L26 15L26 17L25 17L25 16L24 16L24 14L23 14L23 15L22 15L22 16L20 16L20 14L21 14L21 13L23 13L23 12L25 12L25 13L28 13L28 14L32 14L32 13L31 13L31 12L29 12L29 13L28 13L28 12L26 12L26 11L27 11L27 10L26 10L26 9L25 9L25 8L21 8L21 9L20 9L20 5L21 5L21 4L22 4L22 3L21 3L21 4L20 4L20 3L19 3L19 4L17 4L17 3ZM16 4L16 5L15 5L15 6L16 6L16 7L17 7L17 6L18 6L18 8L19 8L19 5L20 5L20 4L19 4L19 5L17 5L17 4ZM8 5L8 7L9 7L9 5ZM16 5L16 6L17 6L17 5ZM21 6L21 7L22 7L22 6ZM23 9L23 10L21 10L21 11L20 11L20 13L18 13L18 12L16 12L16 14L14 14L14 15L15 15L15 16L13 16L13 17L16 17L16 18L17 18L17 19L19 19L19 18L20 18L20 16L19 16L19 15L18 15L18 16L17 16L17 15L16 15L16 14L17 14L17 13L18 13L18 14L20 14L20 13L21 13L21 12L23 12L23 10L25 10L25 9ZM6 10L6 11L7 11L7 10ZM29 10L29 11L30 11L30 10ZM3 11L3 12L2 12L2 14L3 14L3 18L4 18L4 19L3 19L3 20L4 20L4 19L5 19L5 20L6 20L6 19L5 19L5 18L6 18L6 17L7 17L7 16L8 16L8 17L9 17L9 15L11 15L11 13L10 13L10 14L9 14L9 15L8 15L8 14L6 14L6 13L5 13L5 12L4 12L4 11ZM3 13L3 14L4 14L4 15L5 15L5 17L6 17L6 16L7 16L7 15L6 15L6 14L4 14L4 13ZM28 15L28 16L29 16L29 15ZM11 16L11 17L10 17L10 18L12 18L12 16ZM18 16L18 17L17 17L17 18L18 18L18 17L19 17L19 16ZM23 16L23 17L21 17L21 18L22 18L22 19L21 19L21 20L20 20L20 21L18 21L18 20L17 20L17 21L18 21L18 22L17 22L17 23L16 23L16 22L14 22L14 23L15 23L15 24L13 24L13 23L12 23L12 24L13 24L13 26L14 26L14 25L15 25L15 24L17 24L17 25L19 25L19 26L20 26L20 27L18 27L18 28L17 28L17 30L18 30L18 31L19 31L19 30L20 30L20 29L21 29L21 28L22 28L22 27L21 27L21 26L22 26L22 25L23 25L23 24L24 24L24 23L26 23L26 22L27 22L27 21L24 21L24 20L26 20L26 19L24 19L24 20L23 20L23 18L25 18L25 17L24 17L24 16ZM8 20L8 21L9 21L9 20ZM21 20L21 21L20 21L20 22L18 22L18 23L17 23L17 24L18 24L18 23L19 23L19 25L20 25L20 26L21 26L21 25L22 25L22 24L23 24L23 23L24 23L24 22L23 22L23 21L22 21L22 20ZM21 21L21 22L22 22L22 21ZM32 21L32 22L33 22L33 21ZM21 23L21 24L20 24L20 25L21 25L21 24L22 24L22 23ZM30 24L30 25L29 25L29 27L31 27L31 26L30 26L30 25L32 25L32 24ZM25 25L25 28L28 28L28 25ZM15 26L15 27L16 27L16 26ZM26 26L26 27L27 27L27 26ZM19 28L19 29L18 29L18 30L19 30L19 29L20 29L20 28ZM32 28L32 29L33 29L33 28ZM11 29L11 30L12 30L12 29ZM0 0L0 7L7 7L7 0ZM1 1L1 6L6 6L6 1ZM2 2L2 5L5 5L5 2ZM26 0L26 7L33 7L33 0ZM27 1L27 6L32 6L32 1ZM28 2L28 5L31 5L31 2ZM0 26L0 33L7 33L7 26ZM1 27L1 32L6 32L6 27ZM2 28L2 31L5 31L5 28Z" fill="#000000"/></g></g></svg>
