<?xml version="1.0" encoding="UTF-8"?>
<svg xmlns="http://www.w3.org/2000/svg" version="1.1" width="400" height="400" viewBox="0 0 400 400"><rect x="0" y="0" width="400" height="400" fill="#ffffff"/><g transform="scale(4.301)"><g transform="translate(0,0)"><path fill-rule="evenodd" d="M9 0L9 1L8 1L8 2L9 2L9 1L10 1L10 2L11 2L11 4L12 4L12 2L13 2L13 3L14 3L14 4L13 4L13 6L12 6L12 5L10 5L10 7L11 7L11 11L12 11L12 12L10 12L10 11L9 11L9 9L10 9L10 8L6 8L6 9L8 9L8 10L5 10L5 8L0 8L0 9L2 9L2 10L5 10L5 11L7 11L7 12L5 12L5 13L3 13L3 12L2 12L2 11L1 11L1 10L0 10L0 11L1 11L1 12L0 12L0 13L1 13L1 14L2 14L2 13L3 13L3 15L0 15L0 17L1 17L1 18L0 18L0 20L1 20L1 18L2 18L2 19L3 19L3 20L2 20L2 21L4 21L4 22L3 22L3 23L2 23L2 24L1 24L1 21L0 21L0 28L1 28L1 27L3 27L3 28L2 28L2 29L3 29L3 31L4 31L4 33L3 33L3 36L2 36L2 35L0 35L0 37L3 37L3 38L2 38L2 39L3 39L3 38L4 38L4 42L5 42L5 43L4 43L4 44L5 44L5 45L3 45L3 46L2 46L2 41L3 41L3 40L2 40L2 41L0 41L0 43L1 43L1 44L0 44L0 45L1 45L1 46L2 46L2 47L0 47L0 48L2 48L2 49L3 49L3 50L2 50L2 52L4 52L4 51L3 51L3 50L4 50L4 49L3 49L3 48L4 48L4 47L7 47L7 48L6 48L6 49L7 49L7 48L8 48L8 46L6 46L6 45L7 45L7 44L8 44L8 45L11 45L11 46L12 46L12 47L13 47L13 48L9 48L9 49L13 49L13 51L14 51L14 50L16 50L16 47L15 47L15 49L14 49L14 45L13 45L13 44L14 44L14 43L12 43L12 41L13 41L13 42L15 42L15 46L17 46L17 48L19 48L19 49L18 49L18 50L19 50L19 51L16 51L16 52L18 52L18 53L16 53L16 54L17 54L17 56L15 56L15 54L13 54L13 55L12 55L12 53L11 53L11 52L12 52L12 51L11 51L11 52L9 52L9 51L10 51L10 50L9 50L9 51L8 51L8 50L6 50L6 51L8 51L8 52L5 52L5 53L4 53L4 54L3 54L3 55L2 55L2 56L1 56L1 57L0 57L0 65L2 65L2 67L3 67L3 66L4 66L4 68L3 68L3 70L4 70L4 71L7 71L7 72L6 72L6 73L7 73L7 72L10 72L10 73L11 73L11 74L8 74L8 75L10 75L10 78L4 78L4 77L9 77L9 76L5 76L5 75L4 75L4 77L3 77L3 76L2 76L2 77L1 77L1 76L0 76L0 82L1 82L1 79L2 79L2 80L4 80L4 79L7 79L7 80L6 80L6 81L3 81L3 82L4 82L4 83L3 83L3 84L2 84L2 83L0 83L0 84L1 84L1 85L3 85L3 84L6 84L6 85L7 85L7 84L6 84L6 83L7 83L7 82L8 82L8 83L9 83L9 85L8 85L8 87L9 87L9 88L8 88L8 93L9 93L9 92L10 92L10 91L9 91L9 90L12 90L12 91L11 91L11 92L13 92L13 93L15 93L15 92L16 92L16 91L13 91L13 89L14 89L14 90L16 90L16 89L14 89L14 88L13 88L13 89L10 89L10 87L11 87L11 85L12 85L12 84L11 84L11 82L12 82L12 83L14 83L14 84L16 84L16 83L17 83L17 84L18 84L18 85L17 85L17 86L16 86L16 85L13 85L13 87L16 87L16 88L17 88L17 89L18 89L18 90L17 90L17 91L18 91L18 92L17 92L17 93L20 93L20 92L21 92L21 93L22 93L22 92L21 92L21 90L23 90L23 91L24 91L24 92L23 92L23 93L24 93L24 92L25 92L25 91L24 91L24 90L23 90L23 89L25 89L25 90L26 90L26 89L25 89L25 88L23 88L23 87L25 87L25 86L27 86L27 87L26 87L26 88L27 88L27 91L26 91L26 92L27 92L27 93L28 93L28 92L29 92L29 91L30 91L30 92L31 92L31 93L32 93L32 92L33 92L33 91L34 91L34 90L35 90L35 88L36 88L36 89L37 89L37 90L36 90L36 91L35 91L35 92L36 92L36 93L38 93L38 92L39 92L39 93L40 93L40 92L39 92L39 91L40 91L40 90L41 90L41 91L42 91L42 92L41 92L41 93L44 93L44 92L45 92L45 93L49 93L49 92L50 92L50 91L51 91L51 92L53 92L53 93L57 93L57 92L58 92L58 93L59 93L59 92L60 92L60 93L61 93L61 92L60 92L60 91L63 91L63 90L64 90L64 88L68 88L68 87L66 87L66 86L65 86L65 87L64 87L64 86L61 86L61 84L62 84L62 85L64 85L64 84L62 84L62 83L64 83L64 82L65 82L65 85L66 85L66 84L68 84L68 86L70 86L70 87L69 87L69 88L71 88L71 85L70 85L70 84L72 84L72 83L71 83L71 82L73 82L73 83L76 83L76 84L74 84L74 85L75 85L75 87L76 87L76 88L75 88L75 89L76 89L76 91L79 91L79 92L80 92L80 91L81 91L81 93L82 93L82 91L83 91L83 92L84 92L84 93L85 93L85 92L84 92L84 91L87 91L87 90L89 90L89 89L90 89L90 90L91 90L91 89L90 89L90 88L91 88L91 86L89 86L89 84L91 84L91 83L92 83L92 82L93 82L93 81L91 81L91 82L89 82L89 83L88 83L88 84L87 84L87 83L86 83L86 84L85 84L85 83L81 83L81 82L84 82L84 81L83 81L83 78L85 78L85 81L86 81L86 82L87 82L87 81L90 81L90 80L93 80L93 79L92 79L92 78L93 78L93 77L92 77L92 76L91 76L91 75L92 75L92 74L93 74L93 73L92 73L92 72L91 72L91 70L93 70L93 69L91 69L91 70L89 70L89 72L87 72L87 73L86 73L86 71L88 71L88 69L89 69L89 68L92 68L92 66L93 66L93 65L90 65L90 64L91 64L91 63L92 63L92 64L93 64L93 60L91 60L91 59L90 59L90 60L89 60L89 56L91 56L91 55L92 55L92 54L93 54L93 52L92 52L92 54L91 54L91 55L90 55L90 53L89 53L89 54L88 54L88 53L87 53L87 52L89 52L89 51L87 51L87 50L86 50L86 51L83 51L83 50L82 50L82 49L83 49L83 48L84 48L84 50L85 50L85 49L87 49L87 48L89 48L89 50L90 50L90 52L91 52L91 51L92 51L92 49L93 49L93 48L92 48L92 46L93 46L93 45L90 45L90 44L91 44L91 43L92 43L92 44L93 44L93 43L92 43L92 42L93 42L93 41L92 41L92 40L91 40L91 39L88 39L88 38L89 38L89 37L88 37L88 36L89 36L89 35L88 35L88 34L89 34L89 33L90 33L90 32L91 32L91 31L92 31L92 32L93 32L93 31L92 31L92 30L93 30L93 28L91 28L91 27L92 27L92 26L93 26L93 23L92 23L92 22L93 22L93 21L92 21L92 22L89 22L89 21L85 21L85 22L84 22L84 24L82 24L82 23L83 23L83 21L84 21L84 20L83 20L83 19L85 19L85 20L87 20L87 19L85 19L85 18L86 18L86 17L88 17L88 19L89 19L89 20L91 20L91 19L92 19L92 18L93 18L93 17L92 17L92 15L91 15L91 14L93 14L93 13L90 13L90 15L89 15L89 14L88 14L88 13L89 13L89 12L88 12L88 13L87 13L87 11L90 11L90 12L91 12L91 11L90 11L90 10L89 10L89 9L90 9L90 8L89 8L89 9L88 9L88 8L87 8L87 11L85 11L85 12L84 12L84 11L82 11L82 12L81 12L81 10L82 10L82 9L80 9L80 11L79 11L79 10L77 10L77 6L78 6L78 7L79 7L79 8L78 8L78 9L79 9L79 8L80 8L80 7L81 7L81 8L82 8L82 7L83 7L83 9L84 9L84 10L86 10L86 8L85 8L85 6L84 6L84 3L85 3L85 1L84 1L84 0L83 0L83 2L84 2L84 3L83 3L83 4L82 4L82 1L81 1L81 2L79 2L79 0L78 0L78 1L76 1L76 0L75 0L75 1L74 1L74 3L75 3L75 4L76 4L76 3L75 3L75 1L76 1L76 2L78 2L78 5L77 5L77 6L76 6L76 5L75 5L75 6L74 6L74 5L73 5L73 6L72 6L72 7L71 7L71 5L70 5L70 3L72 3L72 2L71 2L71 1L70 1L70 0L68 0L68 1L70 1L70 3L69 3L69 2L66 2L66 1L67 1L67 0L66 0L66 1L65 1L65 2L64 2L64 1L61 1L61 0L60 0L60 1L61 1L61 2L60 2L60 3L59 3L59 2L58 2L58 1L57 1L57 2L56 2L56 0L54 0L54 1L55 1L55 2L53 2L53 0L51 0L51 1L50 1L50 2L51 2L51 3L55 3L55 4L54 4L54 5L52 5L52 4L51 4L51 5L50 5L50 7L51 7L51 8L50 8L50 9L49 9L49 8L47 8L47 10L45 10L45 9L46 9L46 8L45 8L45 6L46 6L46 7L47 7L47 6L48 6L48 7L49 7L49 6L48 6L48 5L49 5L49 4L50 4L50 3L49 3L49 2L48 2L48 4L47 4L47 5L46 5L46 3L47 3L47 1L46 1L46 0L45 0L45 2L42 2L42 5L41 5L41 6L40 6L40 5L38 5L38 4L39 4L39 3L38 3L38 2L40 2L40 3L41 3L41 2L40 2L40 1L44 1L44 0L40 0L40 1L38 1L38 0L36 0L36 1L34 1L34 0L33 0L33 1L34 1L34 2L33 2L33 3L31 3L31 2L32 2L32 0L31 0L31 1L30 1L30 4L29 4L29 3L28 3L28 4L27 4L27 3L26 3L26 4L25 4L25 3L22 3L22 1L23 1L23 0L22 0L22 1L20 1L20 0L17 0L17 1L18 1L18 2L17 2L17 3L18 3L18 4L17 4L17 5L19 5L19 6L18 6L18 7L17 7L17 6L16 6L16 7L17 7L17 10L16 10L16 8L15 8L15 6L14 6L14 4L15 4L15 5L16 5L16 4L15 4L15 2L16 2L16 0L13 0L13 1L12 1L12 0ZM24 0L24 1L25 1L25 2L26 2L26 1L27 1L27 2L28 2L28 0ZM72 0L72 1L73 1L73 0ZM19 1L19 2L18 2L18 3L19 3L19 5L20 5L20 6L19 6L19 7L20 7L20 8L19 8L19 9L18 9L18 12L17 12L17 11L16 11L16 12L15 12L15 10L14 10L14 9L15 9L15 8L14 8L14 6L13 6L13 7L12 7L12 6L11 6L11 7L12 7L12 8L14 8L14 9L12 9L12 11L13 11L13 12L12 12L12 13L10 13L10 12L9 12L9 11L8 11L8 12L7 12L7 13L6 13L6 14L5 14L5 15L6 15L6 16L7 16L7 15L10 15L10 14L11 14L11 16L12 16L12 14L13 14L13 15L14 15L14 16L13 16L13 18L12 18L12 17L10 17L10 16L8 16L8 18L9 18L9 21L5 21L5 22L7 22L7 23L3 23L3 25L4 25L4 26L3 26L3 27L4 27L4 28L3 28L3 29L4 29L4 28L5 28L5 27L6 27L6 28L7 28L7 27L6 27L6 26L7 26L7 25L8 25L8 28L9 28L9 31L10 31L10 32L13 32L13 34L12 34L12 33L9 33L9 34L12 34L12 35L9 35L9 36L10 36L10 38L8 38L8 36L7 36L7 35L8 35L8 34L7 34L7 33L5 33L5 34L4 34L4 35L6 35L6 36L4 36L4 37L6 37L6 38L5 38L5 40L8 40L8 39L9 39L9 40L10 40L10 42L9 42L9 41L5 41L5 42L7 42L7 43L5 43L5 44L7 44L7 43L9 43L9 44L11 44L11 45L12 45L12 44L11 44L11 43L10 43L10 42L11 42L11 41L12 41L12 40L14 40L14 39L13 39L13 38L14 38L14 37L16 37L16 39L18 39L18 40L19 40L19 42L17 42L17 41L15 41L15 42L17 42L17 43L16 43L16 45L17 45L17 46L19 46L19 48L20 48L20 52L19 52L19 53L18 53L18 56L19 56L19 53L20 53L20 54L22 54L22 55L23 55L23 56L22 56L22 57L21 57L21 58L22 58L22 60L25 60L25 61L26 61L26 62L25 62L25 63L26 63L26 64L24 64L24 61L22 61L22 62L23 62L23 63L21 63L21 64L22 64L22 65L21 65L21 68L19 68L19 66L20 66L20 65L19 65L19 64L16 64L16 62L15 62L15 61L16 61L16 60L17 60L17 62L19 62L19 63L20 63L20 61L21 61L21 60L20 60L20 61L19 61L19 59L16 59L16 57L14 57L14 58L13 58L13 56L12 56L12 55L11 55L11 57L10 57L10 56L9 56L9 55L10 55L10 54L11 54L11 53L10 53L10 54L8 54L8 53L9 53L9 52L8 52L8 53L5 53L5 55L4 55L4 56L3 56L3 58L4 58L4 56L5 56L5 55L6 55L6 56L7 56L7 55L6 55L6 54L8 54L8 56L9 56L9 58L10 58L10 59L9 59L9 60L10 60L10 59L11 59L11 61L9 61L9 62L10 62L10 63L9 63L9 65L5 65L5 66L7 66L7 67L5 67L5 68L4 68L4 69L5 69L5 70L8 70L8 71L12 71L12 72L11 72L11 73L12 73L12 75L11 75L11 78L10 78L10 79L9 79L9 80L7 80L7 81L6 81L6 82L5 82L5 83L6 83L6 82L7 82L7 81L10 81L10 82L11 82L11 81L13 81L13 82L14 82L14 83L16 83L16 82L18 82L18 83L20 83L20 84L21 84L21 82L23 82L23 81L26 81L26 78L27 78L27 77L26 77L26 76L28 76L28 79L27 79L27 80L28 80L28 79L30 79L30 78L29 78L29 77L30 77L30 76L32 76L32 77L31 77L31 80L29 80L29 81L28 81L28 83L27 83L27 84L26 84L26 82L24 82L24 85L23 85L23 86L22 86L22 85L19 85L19 86L21 86L21 87L20 87L20 89L19 89L19 88L18 88L18 89L19 89L19 90L18 90L18 91L19 91L19 92L20 92L20 90L21 90L21 89L23 89L23 88L22 88L22 87L23 87L23 86L24 86L24 85L27 85L27 86L28 86L28 85L27 85L27 84L28 84L28 83L29 83L29 81L31 81L31 82L32 82L32 80L33 80L33 81L34 81L34 82L33 82L33 83L32 83L32 84L33 84L33 85L34 85L34 86L33 86L33 88L34 88L34 86L35 86L35 87L36 87L36 88L38 88L38 91L36 91L36 92L38 92L38 91L39 91L39 88L38 88L38 86L39 86L39 87L40 87L40 86L41 86L41 87L42 87L42 88L43 88L43 89L44 89L44 90L45 90L45 92L46 92L46 90L47 90L47 92L49 92L49 91L50 91L50 90L51 90L51 91L55 91L55 92L57 92L57 89L56 89L56 90L54 90L54 89L55 89L55 88L56 88L56 85L55 85L55 84L54 84L54 83L55 83L55 82L54 82L54 80L58 80L58 81L59 81L59 82L58 82L58 83L56 83L56 84L60 84L60 83L61 83L61 82L63 82L63 81L61 81L61 82L60 82L60 79L61 79L61 78L62 78L62 77L61 77L61 76L60 76L60 75L61 75L61 74L62 74L62 75L63 75L63 76L64 76L64 75L63 75L63 74L62 74L62 72L64 72L64 71L61 71L61 70L62 70L62 67L61 67L61 66L62 66L62 65L63 65L63 66L64 66L64 67L63 67L63 68L64 68L64 67L65 67L65 68L66 68L66 69L64 69L64 70L66 70L66 71L65 71L65 72L66 72L66 71L68 71L68 72L67 72L67 73L64 73L64 74L66 74L66 75L70 75L70 77L71 77L71 78L69 78L69 76L65 76L65 78L67 78L67 79L63 79L63 80L64 80L64 81L65 81L65 82L66 82L66 83L69 83L69 84L70 84L70 82L66 82L66 81L68 81L68 80L70 80L70 81L72 81L72 80L70 80L70 79L72 79L72 77L73 77L73 78L74 78L74 79L75 79L75 80L73 80L73 82L74 82L74 81L75 81L75 82L78 82L78 81L75 81L75 80L77 80L77 78L79 78L79 79L78 79L78 80L79 80L79 81L80 81L80 82L79 82L79 83L80 83L80 84L79 84L79 85L80 85L80 86L78 86L78 85L76 85L76 87L77 87L77 88L78 88L78 87L80 87L80 86L81 86L81 88L79 88L79 89L77 89L77 90L79 90L79 89L80 89L80 90L81 90L81 91L82 91L82 90L81 90L81 88L82 88L82 89L83 89L83 91L84 91L84 90L87 90L87 89L84 89L84 88L82 88L82 86L81 86L81 83L80 83L80 82L81 82L81 80L82 80L82 78L81 78L81 77L82 77L82 76L84 76L84 74L81 74L81 73L83 73L83 72L84 72L84 73L85 73L85 74L86 74L86 76L85 76L85 77L87 77L87 74L86 74L86 73L85 73L85 71L84 71L84 70L85 70L85 69L84 69L84 68L81 68L81 69L80 69L80 68L79 68L79 67L77 67L77 66L78 66L78 65L79 65L79 66L80 66L80 67L84 67L84 66L83 66L83 65L82 65L82 66L81 66L81 65L80 65L80 64L81 64L81 63L82 63L82 64L84 64L84 63L85 63L85 62L83 62L83 61L84 61L84 60L82 60L82 62L81 62L81 61L80 61L80 60L81 60L81 59L82 59L82 58L81 58L81 57L83 57L83 59L84 59L84 57L83 57L83 53L84 53L84 52L83 52L83 51L82 51L82 50L80 50L80 48L79 48L79 51L76 51L76 50L78 50L78 49L76 49L76 50L74 50L74 48L76 48L76 47L77 47L77 46L78 46L78 47L82 47L82 46L80 46L80 45L81 45L81 44L79 44L79 41L80 41L80 43L82 43L82 44L83 44L83 47L86 47L86 48L87 48L87 47L86 47L86 46L84 46L84 45L85 45L85 44L87 44L87 45L88 45L88 47L89 47L89 46L90 46L90 45L89 45L89 44L87 44L87 42L86 42L86 40L88 40L88 41L89 41L89 42L88 42L88 43L89 43L89 42L90 42L90 41L91 41L91 42L92 42L92 41L91 41L91 40L88 40L88 39L86 39L86 40L85 40L85 41L84 41L84 39L85 39L85 38L84 38L84 37L85 37L85 36L84 36L84 35L86 35L86 37L87 37L87 36L88 36L88 35L87 35L87 33L86 33L86 34L85 34L85 33L84 33L84 32L83 32L83 31L84 31L84 29L83 29L83 28L81 28L81 27L83 27L83 26L84 26L84 28L86 28L86 27L88 27L88 28L89 28L89 27L88 27L88 26L89 26L89 25L91 25L91 26L92 26L92 25L91 25L91 24L89 24L89 23L88 23L88 22L85 22L85 24L84 24L84 25L83 25L83 26L81 26L81 25L82 25L82 24L81 24L81 23L82 23L82 22L81 22L81 23L80 23L80 20L81 20L81 19L82 19L82 18L84 18L84 17L86 17L86 15L87 15L87 16L89 16L89 17L91 17L91 18L92 18L92 17L91 17L91 16L89 16L89 15L88 15L88 14L86 14L86 12L85 12L85 13L83 13L83 12L82 12L82 13L83 13L83 14L86 14L86 15L85 15L85 16L84 16L84 15L82 15L82 14L80 14L80 12L77 12L77 10L74 10L74 9L75 9L75 8L76 8L76 6L75 6L75 8L74 8L74 6L73 6L73 8L71 8L71 7L70 7L70 5L69 5L69 7L68 7L68 3L67 3L67 4L66 4L66 2L65 2L65 3L64 3L64 5L67 5L67 7L66 7L66 6L65 6L65 8L67 8L67 10L69 10L69 11L68 11L68 12L67 12L67 11L65 11L65 10L66 10L66 9L63 9L63 10L64 10L64 11L62 11L62 13L61 13L61 12L60 12L60 11L61 11L61 10L62 10L62 9L61 9L61 10L60 10L60 9L59 9L59 10L60 10L60 11L59 11L59 12L60 12L60 13L57 13L57 12L55 12L55 14L52 14L52 13L53 13L53 12L52 12L52 11L55 11L55 10L56 10L56 11L58 11L58 9L57 9L57 10L56 10L56 9L55 9L55 7L56 7L56 6L55 6L55 5L56 5L56 4L57 4L57 3L56 3L56 4L55 4L55 5L54 5L54 6L53 6L53 7L54 7L54 9L55 9L55 10L52 10L52 11L51 11L51 12L50 12L50 10L51 10L51 9L53 9L53 8L51 8L51 9L50 9L50 10L49 10L49 9L48 9L48 12L50 12L50 14L52 14L52 15L54 15L54 17L55 17L55 18L54 18L54 19L55 19L55 20L52 20L52 18L53 18L53 16L51 16L51 15L50 15L50 16L49 16L49 15L48 15L48 14L49 14L49 13L48 13L48 14L47 14L47 11L45 11L45 10L44 10L44 9L45 9L45 8L44 8L44 6L45 6L45 3L46 3L46 2L45 2L45 3L43 3L43 4L44 4L44 6L43 6L43 5L42 5L42 6L41 6L41 7L40 7L40 6L39 6L39 7L40 7L40 8L38 8L38 9L37 9L37 10L39 10L39 12L40 12L40 13L38 13L38 14L37 14L37 15L36 15L36 14L35 14L35 11L34 11L34 10L35 10L35 9L34 9L34 10L33 10L33 9L30 9L30 10L29 10L29 9L28 9L28 10L29 10L29 11L27 11L27 8L28 8L28 6L27 6L27 4L26 4L26 5L25 5L25 4L22 4L22 5L21 5L21 4L20 4L20 3L21 3L21 2L20 2L20 1ZM37 1L37 2L34 2L34 3L33 3L33 4L34 4L34 5L33 5L33 7L34 7L34 8L37 8L37 7L38 7L38 5L35 5L35 3L37 3L37 4L38 4L38 3L37 3L37 2L38 2L38 1ZM61 2L61 3L60 3L60 4L61 4L61 5L62 5L62 6L61 6L61 7L62 7L62 8L63 8L63 7L64 7L64 6L63 6L63 5L62 5L62 4L63 4L63 2ZM8 3L8 4L10 4L10 3ZM61 3L61 4L62 4L62 3ZM79 3L79 5L81 5L81 7L82 7L82 6L83 6L83 7L84 7L84 6L83 6L83 5L81 5L81 4L80 4L80 3ZM8 5L8 7L9 7L9 5ZM22 5L22 8L20 8L20 9L19 9L19 10L20 10L20 9L22 9L22 10L21 10L21 13L22 13L22 14L20 14L20 15L19 15L19 14L18 14L18 13L19 13L19 12L18 12L18 13L14 13L14 12L13 12L13 14L17 14L17 15L15 15L15 16L18 16L18 18L17 18L17 17L16 17L16 18L17 18L17 19L16 19L16 20L14 20L14 22L15 22L15 23L13 23L13 22L12 22L12 23L11 23L11 24L10 24L10 26L9 26L9 28L10 28L10 30L11 30L11 31L14 31L14 30L13 30L13 29L14 29L14 28L15 28L15 27L16 27L16 29L15 29L15 33L14 33L14 36L16 36L16 37L17 37L17 36L18 36L18 39L20 39L20 40L21 40L21 41L22 41L22 42L20 42L20 43L19 43L19 44L18 44L18 45L19 45L19 46L20 46L20 44L21 44L21 45L22 45L22 46L21 46L21 49L22 49L22 50L21 50L21 52L20 52L20 53L22 53L22 54L23 54L23 52L22 52L22 51L25 51L25 52L24 52L24 53L25 53L25 54L24 54L24 55L25 55L25 54L26 54L26 55L27 55L27 56L28 56L28 58L27 58L27 57L25 57L25 58L27 58L27 60L28 60L28 61L27 61L27 62L26 62L26 63L27 63L27 62L28 62L28 64L27 64L27 65L25 65L25 66L27 66L27 67L26 67L26 68L27 68L27 69L29 69L29 70L30 70L30 71L28 71L28 70L26 70L26 69L25 69L25 67L24 67L24 68L23 68L23 66L22 66L22 68L21 68L21 69L20 69L20 70L21 70L21 71L20 71L20 73L22 73L22 74L20 74L20 75L22 75L22 74L23 74L23 77L22 77L22 76L21 76L21 77L20 77L20 76L19 76L19 74L18 74L18 73L19 73L19 72L18 72L18 71L16 71L16 70L19 70L19 68L17 68L17 67L18 67L18 66L19 66L19 65L15 65L15 63L14 63L14 66L13 66L13 67L12 67L12 68L11 68L11 67L10 67L10 66L12 66L12 65L11 65L11 64L12 64L12 63L13 63L13 62L12 62L12 61L13 61L13 60L14 60L14 61L15 61L15 60L16 60L16 59L13 59L13 58L11 58L11 59L12 59L12 61L11 61L11 62L12 62L12 63L10 63L10 65L9 65L9 67L8 67L8 70L9 70L9 67L10 67L10 68L11 68L11 69L10 69L10 70L11 70L11 69L13 69L13 70L14 70L14 68L15 68L15 67L14 67L14 66L16 66L16 70L15 70L15 71L13 71L13 73L14 73L14 72L15 72L15 74L14 74L14 75L15 75L15 76L13 76L13 75L12 75L12 76L13 76L13 77L12 77L12 78L11 78L11 79L10 79L10 81L11 81L11 79L12 79L12 80L13 80L13 81L14 81L14 82L16 82L16 80L15 80L15 81L14 81L14 79L15 79L15 78L16 78L16 79L17 79L17 80L18 80L18 82L19 82L19 79L20 79L20 82L21 82L21 81L22 81L22 80L23 80L23 79L24 79L24 80L25 80L25 77L24 77L24 74L23 74L23 73L24 73L24 72L25 72L25 71L26 71L26 72L30 72L30 75L29 75L29 73L28 73L28 75L29 75L29 76L30 76L30 75L33 75L33 74L34 74L34 75L39 75L39 76L42 76L42 77L41 77L41 78L44 78L44 77L43 77L43 76L44 76L44 75L39 75L39 74L37 74L37 72L38 72L38 71L40 71L40 72L41 72L41 71L40 71L40 68L42 68L42 67L44 67L44 68L43 68L43 69L42 69L42 70L43 70L43 71L42 71L42 73L41 73L41 74L44 74L44 70L43 70L43 69L44 69L44 68L45 68L45 67L47 67L47 70L46 70L46 69L45 69L45 71L46 71L46 72L47 72L47 74L45 74L45 78L46 78L46 80L45 80L45 79L44 79L44 80L45 80L45 81L44 81L44 83L42 83L42 82L43 82L43 79L40 79L40 77L39 77L39 80L37 80L37 79L38 79L38 78L37 78L37 79L36 79L36 77L38 77L38 76L35 76L35 78L32 78L32 79L33 79L33 80L34 80L34 79L36 79L36 80L35 80L35 81L36 81L36 80L37 80L37 82L38 82L38 83L37 83L37 84L36 84L36 82L34 82L34 83L33 83L33 84L34 84L34 83L35 83L35 84L36 84L36 87L37 87L37 86L38 86L38 85L37 85L37 84L41 84L41 83L42 83L42 84L43 84L43 85L41 85L41 86L43 86L43 88L45 88L45 87L46 87L46 89L49 89L49 90L48 90L48 91L49 91L49 90L50 90L50 89L52 89L52 88L53 88L53 86L55 86L55 85L53 85L53 86L50 86L50 84L53 84L53 83L52 83L52 82L50 82L50 80L48 80L48 79L49 79L49 76L50 76L50 75L51 75L51 78L50 78L50 79L51 79L51 78L52 78L52 80L51 80L51 81L52 81L52 80L54 80L54 78L56 78L56 79L58 79L58 80L59 80L59 79L60 79L60 78L61 78L61 77L60 77L60 78L59 78L59 79L58 79L58 78L57 78L57 77L59 77L59 75L60 75L60 74L61 74L61 73L60 73L60 74L58 74L58 73L57 73L57 74L56 74L56 73L54 73L54 71L53 71L53 70L55 70L55 71L58 71L58 72L59 72L59 71L60 71L60 70L61 70L61 68L60 68L60 69L58 69L58 68L59 68L59 67L60 67L60 66L57 66L57 65L61 65L61 63L62 63L62 64L63 64L63 65L64 65L64 64L65 64L65 63L66 63L66 66L65 66L65 67L66 67L66 68L68 68L68 70L70 70L70 69L71 69L71 68L68 68L68 67L69 67L69 66L70 66L70 67L71 67L71 65L70 65L70 64L72 64L72 63L73 63L73 64L75 64L75 66L73 66L73 65L72 65L72 66L73 66L73 67L76 67L76 66L77 66L77 65L76 65L76 64L75 64L75 63L74 63L74 62L72 62L72 61L71 61L71 60L72 60L72 59L71 59L71 58L73 58L73 59L76 59L76 60L75 60L75 62L76 62L76 63L79 63L79 64L80 64L80 63L81 63L81 62L80 62L80 61L79 61L79 60L80 60L80 57L78 57L78 58L77 58L77 57L76 57L76 56L78 56L78 55L79 55L79 56L80 56L80 55L79 55L79 52L80 52L80 54L82 54L82 53L81 53L81 52L82 52L82 51L81 51L81 52L80 52L80 51L79 51L79 52L77 52L77 53L76 53L76 52L75 52L75 51L74 51L74 50L73 50L73 49L71 49L71 48L73 48L73 47L76 47L76 46L75 46L75 45L78 45L78 42L76 42L76 40L75 40L75 39L76 39L76 38L77 38L77 39L79 39L79 40L80 40L80 41L81 41L81 42L82 42L82 41L83 41L83 42L84 42L84 41L83 41L83 38L82 38L82 37L81 37L81 38L80 38L80 37L79 37L79 38L77 38L77 36L78 36L78 35L79 35L79 36L80 36L80 35L81 35L81 36L83 36L83 34L84 34L84 33L83 33L83 34L82 34L82 33L81 33L81 34L80 34L80 33L79 33L79 34L77 34L77 33L76 33L76 32L75 32L75 35L74 35L74 34L73 34L73 32L72 32L72 31L76 31L76 30L75 30L75 29L78 29L78 30L77 30L77 31L78 31L78 32L82 32L82 31L83 31L83 30L82 30L82 29L81 29L81 30L82 30L82 31L79 31L79 30L80 30L80 29L79 29L79 28L80 28L80 27L81 27L81 26L80 26L80 27L79 27L79 25L78 25L78 26L77 26L77 27L76 27L76 24L75 24L75 23L79 23L79 24L80 24L80 23L79 23L79 20L80 20L80 19L81 19L81 18L82 18L82 17L84 17L84 16L82 16L82 15L78 15L78 14L77 14L77 12L75 12L75 11L74 11L74 10L70 10L70 8L68 8L68 7L67 7L67 8L68 8L68 9L69 9L69 10L70 10L70 11L69 11L69 12L68 12L68 13L67 13L67 12L65 12L65 11L64 11L64 12L63 12L63 13L64 13L64 14L60 14L60 16L59 16L59 14L58 14L58 16L55 16L55 17L56 17L56 18L55 18L55 19L56 19L56 18L57 18L57 17L58 17L58 18L59 18L59 17L61 17L61 15L66 15L66 16L68 16L68 17L69 17L69 18L70 18L70 17L71 17L71 20L73 20L73 21L72 21L72 22L73 22L73 23L71 23L71 21L70 21L70 19L69 19L69 21L68 21L68 23L66 23L66 22L65 22L65 23L64 23L64 24L63 24L63 25L62 25L62 26L61 26L61 27L60 27L60 28L58 28L58 27L56 27L56 26L57 26L57 25L58 25L58 26L59 26L59 25L61 25L61 24L62 24L62 23L63 23L63 22L64 22L64 21L65 21L65 20L66 20L66 21L67 21L67 20L68 20L68 18L63 18L63 17L64 17L64 16L62 16L62 18L61 18L61 21L60 21L60 23L58 23L58 22L57 22L57 21L58 21L58 20L60 20L60 19L57 19L57 20L55 20L55 21L54 21L54 22L53 22L53 21L52 21L52 22L50 22L50 21L49 21L49 20L51 20L51 18L52 18L52 17L51 17L51 18L50 18L50 17L49 17L49 16L48 16L48 15L47 15L47 14L46 14L46 12L45 12L45 11L43 11L43 10L42 10L42 9L41 9L41 8L42 8L42 7L43 7L43 6L42 6L42 7L41 7L41 8L40 8L40 9L39 9L39 10L40 10L40 12L41 12L41 14L40 14L40 15L41 15L41 14L42 14L42 15L43 15L43 12L45 12L45 13L44 13L44 14L46 14L46 15L47 15L47 16L48 16L48 19L47 19L47 18L45 18L45 17L46 17L46 16L45 16L45 17L44 17L44 16L43 16L43 17L42 17L42 18L45 18L45 20L46 20L46 19L47 19L47 21L49 21L49 22L48 22L48 23L49 23L49 24L48 24L48 25L47 25L47 22L46 22L46 24L45 24L45 23L43 23L43 24L41 24L41 23L40 23L40 20L42 20L42 22L44 22L44 21L43 21L43 20L44 20L44 19L43 19L43 20L42 20L42 19L40 19L40 18L41 18L41 17L40 17L40 18L32 18L32 17L34 17L34 16L32 16L32 17L31 17L31 15L30 15L30 14L31 14L31 13L33 13L33 14L32 14L32 15L35 15L35 14L34 14L34 13L33 13L33 12L31 12L31 10L30 10L30 11L29 11L29 12L28 12L28 14L27 14L27 18L28 18L28 19L27 19L27 20L26 20L26 21L28 21L28 20L29 20L29 21L31 21L31 19L39 19L39 23L40 23L40 24L41 24L41 25L42 25L42 26L43 26L43 24L45 24L45 25L44 25L44 26L45 26L45 27L44 27L44 28L43 28L43 27L41 27L41 26L39 26L39 27L40 27L40 28L42 28L42 29L41 29L41 30L43 30L43 31L42 31L42 32L45 32L45 33L42 33L42 34L41 34L41 33L39 33L39 34L38 34L38 31L40 31L40 32L41 32L41 31L40 31L40 30L38 30L38 31L37 31L37 32L36 32L36 31L35 31L35 30L34 30L34 27L35 27L35 28L36 28L36 29L38 29L38 25L39 25L39 24L38 24L38 25L37 25L37 28L36 28L36 26L34 26L34 25L31 25L31 24L34 24L34 23L36 23L36 24L35 24L35 25L36 25L36 24L37 24L37 23L38 23L38 22L37 22L37 21L38 21L38 20L36 20L36 21L35 21L35 22L34 22L34 21L33 21L33 20L32 20L32 21L33 21L33 22L34 22L34 23L31 23L31 22L30 22L30 25L28 25L28 24L29 24L29 23L27 23L27 22L26 22L26 25L22 25L22 23L20 23L20 21L22 21L22 22L23 22L23 21L24 21L24 20L25 20L25 18L26 18L26 17L25 17L25 16L26 16L26 13L24 13L24 12L25 12L25 10L26 10L26 9L25 9L25 10L24 10L24 11L23 11L23 13L22 13L22 10L23 10L23 9L24 9L24 7L25 7L25 8L26 8L26 7L27 7L27 6L26 6L26 7L25 7L25 6L24 6L24 7L23 7L23 5ZM29 5L29 8L32 8L32 5ZM57 5L57 8L60 8L60 5ZM20 6L20 7L21 7L21 6ZM30 6L30 7L31 7L31 6ZM34 6L34 7L35 7L35 6ZM36 6L36 7L37 7L37 6ZM51 6L51 7L52 7L52 6ZM54 6L54 7L55 7L55 6ZM58 6L58 7L59 7L59 6ZM62 6L62 7L63 7L63 6ZM79 6L79 7L80 7L80 6ZM22 8L22 9L23 9L23 8ZM73 8L73 9L74 9L74 8ZM91 8L91 10L93 10L93 9L92 9L92 8ZM32 10L32 11L33 11L33 10ZM41 10L41 12L43 12L43 11L42 11L42 10ZM26 11L26 12L27 12L27 11ZM36 11L36 12L37 12L37 11ZM70 11L70 12L71 12L71 13L72 13L72 12L71 12L71 11ZM73 11L73 12L74 12L74 13L73 13L73 14L71 14L71 15L70 15L70 14L69 14L69 13L68 13L68 14L67 14L67 13L65 13L65 14L67 14L67 15L68 15L68 14L69 14L69 16L71 16L71 17L72 17L72 19L73 19L73 20L74 20L74 21L73 21L73 22L74 22L74 23L75 23L75 20L77 20L77 21L76 21L76 22L78 22L78 20L79 20L79 18L78 18L78 15L77 15L77 19L76 19L76 17L75 17L75 16L76 16L76 14L75 14L75 15L73 15L73 14L74 14L74 13L75 13L75 12L74 12L74 11ZM92 11L92 12L93 12L93 11ZM1 12L1 13L2 13L2 12ZM8 12L8 13L7 13L7 14L6 14L6 15L7 15L7 14L8 14L8 13L9 13L9 12ZM29 12L29 13L30 13L30 12ZM23 13L23 14L22 14L22 15L21 15L21 16L20 16L20 17L19 17L19 19L20 19L20 18L22 18L22 17L23 17L23 18L24 18L24 17L23 17L23 16L24 16L24 15L23 15L23 14L24 14L24 13ZM56 13L56 14L55 14L55 15L56 15L56 14L57 14L57 13ZM38 14L38 15L39 15L39 14ZM28 15L28 18L29 18L29 19L31 19L31 17L30 17L30 15ZM71 15L71 16L72 16L72 17L73 17L73 16L72 16L72 15ZM3 16L3 17L2 17L2 18L4 18L4 19L5 19L5 18L7 18L7 17L5 17L5 16ZM21 16L21 17L22 17L22 16ZM35 16L35 17L37 17L37 16ZM38 16L38 17L39 17L39 16ZM79 16L79 17L80 17L80 16ZM10 18L10 19L11 19L11 20L10 20L10 21L11 21L11 20L12 20L12 21L13 21L13 20L12 20L12 18ZM14 18L14 19L15 19L15 18ZM49 18L49 19L48 19L48 20L49 20L49 19L50 19L50 18ZM62 18L62 20L63 20L63 18ZM73 18L73 19L75 19L75 18ZM6 19L6 20L8 20L8 19ZM21 19L21 20L22 20L22 21L23 21L23 20L24 20L24 19L23 19L23 20L22 20L22 19ZM66 19L66 20L67 20L67 19ZM17 20L17 22L19 22L19 21L20 21L20 20ZM15 21L15 22L16 22L16 21ZM55 21L55 22L54 22L54 23L55 23L55 22L56 22L56 24L55 24L55 26L53 26L53 24L51 24L51 23L50 23L50 22L49 22L49 23L50 23L50 25L49 25L49 27L48 27L48 26L46 26L46 25L45 25L45 26L46 26L46 28L47 28L47 29L45 29L45 28L44 28L44 29L45 29L45 31L46 31L46 32L47 32L47 31L48 31L48 32L49 32L49 33L45 33L45 34L42 34L42 35L41 35L41 34L40 34L40 35L39 35L39 36L38 36L38 35L36 35L36 34L37 34L37 33L36 33L36 32L35 32L35 34L34 34L34 33L33 33L33 34L30 34L30 33L28 33L28 32L27 32L27 33L26 33L26 31L27 31L27 29L26 29L26 27L28 27L28 28L31 28L31 27L32 27L32 26L31 26L31 25L30 25L30 26L24 26L24 27L25 27L25 28L24 28L24 29L23 29L23 32L22 32L22 29L21 29L21 30L20 30L20 28L21 28L21 26L22 26L22 28L23 28L23 26L22 26L22 25L21 25L21 26L20 26L20 25L19 25L19 23L18 23L18 24L17 24L17 23L16 23L16 26L17 26L17 27L19 27L19 28L17 28L17 30L18 30L18 31L16 31L16 33L15 33L15 34L16 34L16 35L18 35L18 36L19 36L19 38L20 38L20 39L21 39L21 38L22 38L22 40L23 40L23 39L25 39L25 41L26 41L26 42L24 42L24 41L23 41L23 42L22 42L22 43L21 43L21 44L22 44L22 45L23 45L23 46L22 46L22 47L23 47L23 46L24 46L24 47L25 47L25 45L26 45L26 47L27 47L27 45L28 45L28 48L26 48L26 49L25 49L25 48L24 48L24 49L23 49L23 50L24 50L24 49L25 49L25 51L26 51L26 52L25 52L25 53L26 53L26 52L27 52L27 53L28 53L28 54L27 54L27 55L28 55L28 56L30 56L30 55L31 55L31 56L33 56L33 55L34 55L34 54L35 54L35 55L36 55L36 56L35 56L35 57L34 57L34 58L33 58L33 59L34 59L34 60L33 60L33 61L34 61L34 62L32 62L32 63L30 63L30 62L31 62L31 61L29 61L29 63L30 63L30 64L28 64L28 66L29 66L29 67L30 67L30 69L31 69L31 71L30 71L30 72L31 72L31 74L32 74L32 73L33 73L33 71L34 71L34 72L37 72L37 71L38 71L38 70L39 70L39 68L40 68L40 66L39 66L39 65L40 65L40 64L41 64L41 65L42 65L42 66L41 66L41 67L42 67L42 66L44 66L44 67L45 67L45 66L47 66L47 64L50 64L50 66L51 66L51 67L50 67L50 70L51 70L51 71L50 71L50 72L49 72L49 71L48 71L48 70L49 70L49 69L48 69L48 70L47 70L47 72L49 72L49 73L48 73L48 74L47 74L47 75L46 75L46 76L49 76L49 75L48 75L48 74L49 74L49 73L50 73L50 74L51 74L51 75L53 75L53 76L52 76L52 78L54 78L54 77L53 77L53 76L54 76L54 75L55 75L55 74L53 74L53 72L51 72L51 71L52 71L52 70L53 70L53 69L55 69L55 70L57 70L57 69L56 69L56 68L58 68L58 67L55 67L55 66L56 66L56 65L57 65L57 64L60 64L60 63L61 63L61 62L62 62L62 63L63 63L63 64L64 64L64 63L65 63L65 62L66 62L66 60L67 60L67 61L68 61L68 62L67 62L67 63L68 63L68 64L67 64L67 66L68 66L68 64L69 64L69 63L71 63L71 61L70 61L70 60L71 60L71 59L70 59L70 58L71 58L71 57L73 57L73 58L74 58L74 57L75 57L75 56L76 56L76 55L77 55L77 54L78 54L78 53L77 53L77 54L76 54L76 53L75 53L75 52L74 52L74 51L72 51L72 50L71 50L71 49L70 49L70 50L69 50L69 51L68 51L68 48L67 48L67 47L70 47L70 48L71 48L71 47L70 47L70 46L71 46L71 45L72 45L72 44L74 44L74 45L73 45L73 46L72 46L72 47L73 47L73 46L74 46L74 45L75 45L75 43L72 43L72 44L71 44L71 43L70 43L70 42L71 42L71 41L72 41L72 40L71 40L71 41L70 41L70 42L66 42L66 40L67 40L67 41L69 41L69 40L70 40L70 39L72 39L72 38L74 38L74 39L75 39L75 38L76 38L76 37L75 37L75 36L77 36L77 34L76 34L76 35L75 35L75 36L74 36L74 35L73 35L73 36L70 36L70 37L71 37L71 38L69 38L69 37L68 37L68 36L69 36L69 35L72 35L72 34L71 34L71 33L72 33L72 32L71 32L71 31L72 31L72 30L74 30L74 29L73 29L73 28L71 28L71 29L70 29L70 30L68 30L68 28L66 28L66 27L68 27L68 25L69 25L69 23L70 23L70 25L71 25L71 27L72 27L72 26L74 26L74 28L76 28L76 27L75 27L75 24L74 24L74 25L72 25L72 24L71 24L71 23L70 23L70 22L69 22L69 23L68 23L68 24L65 24L65 25L64 25L64 26L62 26L62 27L61 27L61 30L63 30L63 31L62 31L62 32L61 32L61 33L60 33L60 34L59 34L59 35L58 35L58 34L57 34L57 33L55 33L55 32L54 32L54 31L56 31L56 28L54 28L54 27L55 27L55 26L56 26L56 24L57 24L57 22L56 22L56 21ZM61 21L61 22L62 22L62 21ZM24 22L24 23L23 23L23 24L25 24L25 22ZM52 22L52 23L53 23L53 22ZM8 23L8 24L9 24L9 23ZM86 23L86 24L85 24L85 25L86 25L86 26L85 26L85 27L86 27L86 26L88 26L88 25L89 25L89 24L88 24L88 23ZM5 24L5 26L4 26L4 27L5 27L5 26L6 26L6 25L7 25L7 24ZM13 24L13 27L15 27L15 24ZM58 24L58 25L59 25L59 24ZM86 24L86 25L87 25L87 24ZM11 25L11 26L10 26L10 27L11 27L11 26L12 26L12 25ZM51 25L51 26L50 26L50 27L51 27L51 26L52 26L52 25ZM66 25L66 26L65 26L65 27L66 27L66 26L67 26L67 25ZM19 26L19 27L20 27L20 26ZM30 26L30 27L31 27L31 26ZM33 26L33 27L34 27L34 26ZM69 26L69 27L70 27L70 26ZM47 27L47 28L48 28L48 29L49 29L49 28L48 28L48 27ZM52 27L52 28L50 28L50 29L51 29L51 30L48 30L48 31L51 31L51 32L50 32L50 33L51 33L51 34L50 34L50 35L49 35L49 34L48 34L48 35L47 35L47 34L45 34L45 35L44 35L44 36L45 36L45 35L46 35L46 36L47 36L47 37L48 37L48 38L45 38L45 37L44 37L44 38L43 38L43 35L42 35L42 36L41 36L41 37L42 37L42 38L41 38L41 39L40 39L40 38L37 38L37 36L36 36L36 35L34 35L34 34L33 34L33 35L32 35L32 36L31 36L31 35L30 35L30 34L29 34L29 36L28 36L28 37L30 37L30 38L33 38L33 41L32 41L32 42L31 42L31 40L32 40L32 39L30 39L30 42L29 42L29 44L28 44L28 43L27 43L27 42L28 42L28 41L27 41L27 39L26 39L26 37L24 37L24 36L25 36L25 35L26 35L26 36L27 36L27 35L28 35L28 34L26 34L26 33L25 33L25 31L26 31L26 29L24 29L24 32L23 32L23 33L21 33L21 32L20 32L20 30L19 30L19 29L18 29L18 30L19 30L19 32L17 32L17 33L21 33L21 35L20 35L20 36L21 36L21 37L20 37L20 38L21 38L21 37L24 37L24 38L25 38L25 39L26 39L26 41L27 41L27 42L26 42L26 43L25 43L25 44L26 44L26 43L27 43L27 44L28 44L28 45L29 45L29 46L30 46L30 48L31 48L31 46L33 46L33 47L32 47L32 48L33 48L33 49L29 49L29 48L28 48L28 49L26 49L26 50L28 50L28 51L27 51L27 52L28 52L28 53L29 53L29 54L31 54L31 55L32 55L32 54L34 54L34 53L35 53L35 54L36 54L36 55L37 55L37 54L38 54L38 55L39 55L39 56L42 56L42 57L41 57L41 59L39 59L39 58L38 58L38 57L37 57L37 56L36 56L36 57L35 57L35 58L34 58L34 59L35 59L35 58L38 58L38 59L39 59L39 60L38 60L38 61L37 61L37 60L36 60L36 61L37 61L37 64L36 64L36 65L35 65L35 63L34 63L34 64L33 64L33 65L35 65L35 66L34 66L34 69L35 69L35 70L34 70L34 71L36 71L36 69L37 69L37 68L38 68L38 67L39 67L39 66L37 66L37 64L38 64L38 65L39 65L39 64L40 64L40 63L41 63L41 64L42 64L42 63L41 63L41 62L40 62L40 60L41 60L41 61L42 61L42 62L44 62L44 61L42 61L42 60L45 60L45 61L47 61L47 62L45 62L45 63L44 63L44 64L45 64L45 63L47 63L47 62L49 62L49 60L51 60L51 58L52 58L52 56L53 56L53 54L55 54L55 53L57 53L57 54L56 54L56 56L55 56L55 57L54 57L54 58L55 58L55 57L56 57L56 60L55 60L55 59L52 59L52 60L55 60L55 61L54 61L54 62L55 62L55 65L54 65L54 63L52 63L52 61L51 61L51 62L50 62L50 63L51 63L51 64L53 64L53 65L51 65L51 66L52 66L52 67L51 67L51 70L52 70L52 68L55 68L55 67L53 67L53 66L55 66L55 65L56 65L56 63L60 63L60 62L61 62L61 59L64 59L64 60L63 60L63 61L62 61L62 62L63 62L63 63L64 63L64 62L65 62L65 60L66 60L66 59L64 59L64 58L63 58L63 57L64 57L64 56L62 56L62 58L61 58L61 55L64 55L64 53L65 53L65 52L66 52L66 53L67 53L67 52L68 52L68 54L67 54L67 56L69 56L69 57L68 57L68 58L67 58L67 57L66 57L66 58L67 58L67 60L70 60L70 59L68 59L68 58L70 58L70 56L69 56L69 55L68 55L68 54L70 54L70 55L71 55L71 56L72 56L72 55L73 55L73 56L75 56L75 55L74 55L74 54L71 54L71 52L72 52L72 51L69 51L69 52L68 52L68 51L67 51L67 48L65 48L65 47L67 47L67 46L65 46L65 45L67 45L67 44L70 44L70 43L67 43L67 44L65 44L65 45L64 45L64 44L63 44L63 43L64 43L64 42L65 42L65 43L66 43L66 42L65 42L65 40L62 40L62 39L63 39L63 38L64 38L64 39L67 39L67 40L69 40L69 39L67 39L67 36L68 36L68 35L69 35L69 34L70 34L70 33L71 33L71 32L70 32L70 31L71 31L71 30L70 30L70 31L66 31L66 30L65 30L65 29L64 29L64 28L62 28L62 29L63 29L63 30L65 30L65 32L66 32L66 33L67 33L67 32L70 32L70 33L68 33L68 35L67 35L67 34L65 34L65 33L64 33L64 32L62 32L62 34L60 34L60 35L59 35L59 36L60 36L60 37L59 37L59 38L58 38L58 35L57 35L57 36L55 36L55 37L53 37L53 39L52 39L52 38L50 38L50 35L51 35L51 36L54 36L54 35L51 35L51 34L52 34L52 33L51 33L51 32L53 32L53 31L54 31L54 30L55 30L55 29L54 29L54 30L53 30L53 29L52 29L52 28L53 28L53 27ZM77 27L77 28L78 28L78 27ZM11 28L11 29L12 29L12 28ZM5 29L5 32L8 32L8 29ZM29 29L29 32L32 32L32 29ZM57 29L57 32L60 32L60 29ZM85 29L85 32L88 32L88 29ZM6 30L6 31L7 31L7 30ZM30 30L30 31L31 31L31 30ZM33 30L33 32L34 32L34 30ZM52 30L52 31L53 31L53 30ZM58 30L58 31L59 31L59 30ZM86 30L86 31L87 31L87 30ZM90 30L90 31L89 31L89 32L90 32L90 31L91 31L91 30ZM0 32L0 33L1 33L1 34L2 34L2 32ZM23 33L23 34L22 34L22 35L21 35L21 36L22 36L22 35L23 35L23 36L24 36L24 35L25 35L25 34L24 34L24 33ZM53 33L53 34L55 34L55 33ZM63 33L63 35L60 35L60 36L62 36L62 37L60 37L60 38L59 38L59 40L57 40L57 39L58 39L58 38L57 38L57 37L55 37L55 38L56 38L56 40L57 40L57 41L58 41L58 42L56 42L56 41L55 41L55 42L54 42L54 43L55 43L55 44L57 44L57 43L58 43L58 42L59 42L59 44L58 44L58 46L56 46L56 45L55 45L55 46L56 46L56 47L55 47L55 48L58 48L58 49L60 49L60 50L59 50L59 51L58 51L58 50L57 50L57 49L55 49L55 50L52 50L52 51L50 51L50 50L51 50L51 49L53 49L53 48L51 48L51 47L53 47L53 45L54 45L54 44L51 44L51 43L50 43L50 42L51 42L51 41L53 41L53 40L54 40L54 39L53 39L53 40L52 40L52 39L50 39L50 38L49 38L49 39L48 39L48 40L49 40L49 41L50 41L50 42L49 42L49 43L48 43L48 44L47 44L47 45L46 45L46 42L47 42L47 40L44 40L44 39L43 39L43 40L42 40L42 41L44 41L44 45L45 45L45 46L43 46L43 48L42 48L42 47L41 47L41 46L40 46L40 45L43 45L43 44L42 44L42 42L41 42L41 40L40 40L40 41L39 41L39 40L38 40L38 39L37 39L37 38L36 38L36 39L34 39L34 41L33 41L33 42L32 42L32 43L31 43L31 42L30 42L30 44L29 44L29 45L30 45L30 46L31 46L31 45L32 45L32 44L33 44L33 45L34 45L34 46L35 46L35 47L34 47L34 50L32 50L32 51L31 51L31 50L29 50L29 49L28 49L28 50L29 50L29 51L28 51L28 52L29 52L29 53L30 53L30 52L29 52L29 51L31 51L31 52L32 52L32 53L31 53L31 54L32 54L32 53L34 53L34 52L35 52L35 53L36 53L36 52L35 52L35 51L34 51L34 50L36 50L36 49L35 49L35 48L37 48L37 49L38 49L38 48L37 48L37 47L36 47L36 46L35 46L35 43L33 43L33 42L36 42L36 41L35 41L35 40L38 40L38 42L37 42L37 43L36 43L36 44L39 44L39 45L38 45L38 47L39 47L39 48L40 48L40 49L39 49L39 50L37 50L37 51L39 51L39 50L40 50L40 51L42 51L42 52L43 52L43 54L42 54L42 53L41 53L41 52L39 52L39 53L38 53L38 54L39 54L39 55L40 55L40 54L42 54L42 55L44 55L44 57L43 57L43 58L42 58L42 59L41 59L41 60L42 60L42 59L45 59L45 60L46 60L46 59L47 59L47 61L48 61L48 60L49 60L49 59L48 59L48 58L51 58L51 56L50 56L50 54L51 54L51 52L52 52L52 54L53 54L53 53L54 53L54 52L57 52L57 53L58 53L58 54L57 54L57 55L58 55L58 54L59 54L59 55L61 55L61 54L63 54L63 52L65 52L65 51L60 51L60 50L66 50L66 49L65 49L65 48L64 48L64 47L62 47L62 48L64 48L64 49L61 49L61 48L59 48L59 47L61 47L61 46L62 46L62 44L61 44L61 45L60 45L60 46L59 46L59 44L60 44L60 43L61 43L61 42L63 42L63 41L60 41L60 40L61 40L61 38L63 38L63 36L64 36L64 33ZM91 33L91 35L90 35L90 36L91 36L91 37L90 37L90 38L91 38L91 37L92 37L92 38L93 38L93 36L92 36L92 34L93 34L93 33ZM6 34L6 35L7 35L7 34ZM79 34L79 35L80 35L80 34ZM81 34L81 35L82 35L82 34ZM66 35L66 36L67 36L67 35ZM6 36L6 37L7 37L7 36ZM35 36L35 37L33 37L33 38L35 38L35 37L36 37L36 36ZM39 36L39 37L40 37L40 36ZM64 37L64 38L66 38L66 37ZM74 37L74 38L75 38L75 37ZM0 38L0 40L1 40L1 38ZM6 38L6 39L8 39L8 38ZM28 38L28 40L29 40L29 38ZM49 39L49 40L50 40L50 41L51 41L51 40L50 40L50 39ZM73 40L73 42L74 42L74 41L75 41L75 40ZM45 41L45 42L46 42L46 41ZM59 41L59 42L60 42L60 41ZM38 42L38 43L40 43L40 44L41 44L41 42ZM52 42L52 43L53 43L53 42ZM85 42L85 43L83 43L83 44L85 44L85 43L86 43L86 42ZM23 43L23 45L24 45L24 43ZM48 44L48 45L49 45L49 46L45 46L45 47L47 47L47 50L46 50L46 48L43 48L43 49L41 49L41 50L43 50L43 52L46 52L46 51L47 51L47 52L48 52L48 53L49 53L49 54L50 54L50 53L49 53L49 52L48 52L48 51L49 51L49 50L50 50L50 47L51 47L51 46L50 46L50 44ZM69 45L69 46L70 46L70 45ZM9 46L9 47L10 47L10 46ZM39 46L39 47L40 47L40 48L41 48L41 47L40 47L40 46ZM58 46L58 47L59 47L59 46ZM2 47L2 48L3 48L3 47ZM48 47L48 48L49 48L49 47ZM81 48L81 49L82 49L82 48ZM90 48L90 49L92 49L92 48ZM0 49L0 50L1 50L1 49ZM43 49L43 50L44 50L44 49ZM47 50L47 51L48 51L48 50ZM33 51L33 52L34 52L34 51ZM52 51L52 52L54 52L54 51ZM57 51L57 52L58 52L58 51ZM86 51L86 52L85 52L85 53L86 53L86 52L87 52L87 51ZM0 52L0 55L1 55L1 54L2 54L2 53L1 53L1 52ZM13 52L13 53L15 53L15 52ZM59 52L59 54L60 54L60 53L61 53L61 52ZM73 52L73 53L74 53L74 52ZM39 53L39 54L40 54L40 53ZM44 53L44 54L46 54L46 53ZM65 54L65 55L66 55L66 54ZM86 54L86 55L85 55L85 56L88 56L88 54ZM20 55L20 56L21 56L21 55ZM81 55L81 56L82 56L82 55ZM23 56L23 57L22 57L22 58L23 58L23 57L24 57L24 56ZM48 56L48 57L47 57L47 58L48 58L48 57L50 57L50 56ZM5 57L5 60L8 60L8 57ZM17 57L17 58L18 58L18 57ZM19 57L19 58L20 58L20 57ZM29 57L29 60L32 60L32 57ZM44 57L44 58L45 58L45 59L46 59L46 58L45 58L45 57ZM57 57L57 60L60 60L60 57ZM85 57L85 60L88 60L88 57ZM90 57L90 58L91 58L91 57ZM92 57L92 58L93 58L93 57ZM6 58L6 59L7 59L7 58ZM30 58L30 59L31 59L31 58ZM58 58L58 59L59 59L59 58ZM76 58L76 59L77 59L77 58ZM86 58L86 59L87 59L87 58ZM3 59L3 60L2 60L2 61L1 61L1 63L2 63L2 61L3 61L3 64L2 64L2 65L3 65L3 64L8 64L8 63L6 63L6 62L8 62L8 61L4 61L4 59ZM25 59L25 60L26 60L26 59ZM90 60L90 61L88 61L88 64L87 64L87 62L86 62L86 65L88 65L88 66L87 66L87 67L88 67L88 68L89 68L89 67L90 67L90 66L89 66L89 65L88 65L88 64L90 64L90 63L91 63L91 62L92 62L92 61L91 61L91 60ZM38 61L38 62L39 62L39 63L38 63L38 64L39 64L39 63L40 63L40 62L39 62L39 61ZM55 61L55 62L60 62L60 61ZM69 61L69 62L68 62L68 63L69 63L69 62L70 62L70 61ZM76 61L76 62L78 62L78 61ZM90 61L90 62L91 62L91 61ZM82 62L82 63L83 63L83 62ZM23 64L23 65L24 65L24 64ZM30 64L30 65L29 65L29 66L30 66L30 67L31 67L31 65L32 65L32 64ZM32 66L32 67L33 67L33 66ZM35 66L35 68L37 68L37 67L36 67L36 66ZM88 66L88 67L89 67L89 66ZM0 67L0 68L1 68L1 69L0 69L0 72L1 72L1 73L0 73L0 74L1 74L1 73L2 73L2 74L5 74L5 72L4 72L4 73L2 73L2 72L3 72L3 71L2 71L2 70L1 70L1 69L2 69L2 68L1 68L1 67ZM48 67L48 68L49 68L49 67ZM6 68L6 69L7 69L7 68ZM22 68L22 69L21 69L21 70L22 70L22 72L24 72L24 71L23 71L23 70L24 70L24 69L23 69L23 68ZM31 68L31 69L33 69L33 68ZM72 68L72 70L73 70L73 71L71 71L71 72L70 72L70 71L69 71L69 72L68 72L68 73L67 73L67 74L68 74L68 73L69 73L69 74L70 74L70 75L71 75L71 76L75 76L75 77L74 77L74 78L75 78L75 79L76 79L76 78L75 78L75 77L76 77L76 76L75 76L75 74L76 74L76 75L78 75L78 77L79 77L79 76L81 76L81 75L78 75L78 74L80 74L80 73L81 73L81 72L83 72L83 71L81 71L81 70L82 70L82 69L81 69L81 70L80 70L80 69L79 69L79 68L77 68L77 69L78 69L78 70L80 70L80 71L79 71L79 72L77 72L77 70L76 70L76 68ZM86 68L86 69L87 69L87 68ZM22 69L22 70L23 70L23 69ZM73 69L73 70L74 70L74 69ZM83 69L83 70L84 70L84 69ZM32 70L32 71L31 71L31 72L32 72L32 71L33 71L33 70ZM58 70L58 71L59 71L59 70ZM1 71L1 72L2 72L2 71ZM73 71L73 74L71 74L71 73L72 73L72 72L71 72L71 73L70 73L70 74L71 74L71 75L73 75L73 74L74 74L74 73L75 73L75 72L76 72L76 71ZM79 72L79 73L80 73L80 72ZM89 72L89 73L88 73L88 74L90 74L90 75L91 75L91 74L90 74L90 73L91 73L91 72ZM25 73L25 74L26 74L26 73ZM34 73L34 74L35 74L35 73ZM51 73L51 74L52 74L52 73ZM76 73L76 74L78 74L78 73ZM6 74L6 75L7 75L7 74ZM16 74L16 75L18 75L18 74ZM56 75L56 76L57 76L57 75ZM33 76L33 77L34 77L34 76ZM89 76L89 77L88 77L88 78L86 78L86 81L87 81L87 80L90 80L90 79L91 79L91 78L92 78L92 77L91 77L91 76ZM2 77L2 78L3 78L3 79L4 79L4 78L3 78L3 77ZM13 77L13 79L14 79L14 78L15 78L15 77ZM16 77L16 78L18 78L18 79L19 79L19 78L20 78L20 79L21 79L21 78L22 78L22 77L21 77L21 78L20 78L20 77ZM23 77L23 78L24 78L24 77ZM46 77L46 78L47 78L47 79L48 79L48 77ZM67 77L67 78L68 78L68 77ZM90 77L90 78L91 78L91 77ZM67 79L67 80L68 80L68 79ZM79 79L79 80L81 80L81 79ZM39 80L39 81L38 81L38 82L39 82L39 83L41 83L41 82L42 82L42 80ZM47 80L47 82L46 82L46 81L45 81L45 82L46 82L46 83L45 83L45 84L44 84L44 87L45 87L45 86L46 86L46 87L47 87L47 85L45 85L45 84L46 84L46 83L48 83L48 84L50 84L50 83L48 83L48 82L49 82L49 81L48 81L48 80ZM65 80L65 81L66 81L66 80ZM59 82L59 83L60 83L60 82ZM30 83L30 84L31 84L31 83ZM77 83L77 84L78 84L78 83ZM10 84L10 85L9 85L9 86L10 86L10 85L11 85L11 84ZM83 84L83 85L84 85L84 84ZM29 85L29 88L32 88L32 85ZM39 85L39 86L40 86L40 85ZM57 85L57 88L60 88L60 85ZM85 85L85 88L88 88L88 85ZM92 85L92 86L93 86L93 85ZM30 86L30 87L31 87L31 86ZM49 86L49 87L48 87L48 88L49 88L49 89L50 89L50 88L51 88L51 87L50 87L50 86ZM58 86L58 87L59 87L59 86ZM73 86L73 87L74 87L74 86ZM77 86L77 87L78 87L78 86ZM86 86L86 87L87 87L87 86ZM27 87L27 88L28 88L28 87ZM54 87L54 88L55 88L55 87ZM62 87L62 88L61 88L61 89L58 89L58 90L62 90L62 89L63 89L63 88L64 88L64 87ZM89 87L89 88L90 88L90 87ZM40 88L40 89L41 89L41 90L42 90L42 91L43 91L43 90L42 90L42 89L41 89L41 88ZM72 88L72 89L71 89L71 90L70 90L70 89L68 89L68 90L67 90L67 91L66 91L66 90L65 90L65 92L68 92L68 93L71 93L71 92L73 92L73 91L74 91L74 92L75 92L75 93L76 93L76 92L75 92L75 91L74 91L74 90L73 90L73 91L72 91L72 89L73 89L73 88ZM32 89L32 91L31 91L31 92L32 92L32 91L33 91L33 90L34 90L34 89ZM28 90L28 91L27 91L27 92L28 92L28 91L29 91L29 90ZM68 90L68 92L69 92L69 91L70 91L70 92L71 92L71 91L70 91L70 90ZM58 91L58 92L59 92L59 91ZM90 91L90 92L89 92L89 93L90 93L90 92L91 92L91 93L92 93L92 92L91 92L91 91ZM62 92L62 93L64 93L64 92ZM0 0L0 7L7 7L7 0ZM1 1L1 6L6 6L6 1ZM2 2L2 5L5 5L5 2ZM86 0L86 7L93 7L93 0ZM87 1L87 6L92 6L92 1ZM88 2L88 5L91 5L91 2ZM0 86L0 93L7 93L7 86ZM1 87L1 92L6 92L6 87ZM2 88L2 91L5 91L5 88Z" fill="#000000"/></g></g></svg>
