<?xml version="1.0" encoding="UTF-8"?>
<svg xmlns="http://www.w3.org/2000/svg" version="1.1" width="400" height="400" viewBox="0 0 400 400"><rect x="0" y="0" width="400" height="400" fill="#ffffff"/><g transform="scale(13.793)"><g transform="translate(0,0)"><path fill-rule="evenodd" d="M8 0L8 1L9 1L9 2L8 2L8 5L9 5L9 4L11 4L11 5L10 5L10 10L9 10L9 13L11 13L11 14L9 14L9 15L10 15L10 16L8 16L8 15L7 15L7 14L8 14L8 13L7 13L7 12L8 12L8 11L7 11L7 10L6 10L6 9L7 9L7 8L6 8L6 9L5 9L5 11L7 11L7 12L5 12L5 14L3 14L3 13L2 13L2 12L0 12L0 13L2 13L2 18L3 18L3 17L4 17L4 19L2 19L2 20L1 20L1 21L2 21L2 20L3 20L3 21L7 21L7 20L8 20L8 22L11 22L11 20L12 20L12 19L10 19L10 20L9 20L9 19L8 19L8 18L9 18L9 17L10 17L10 18L11 18L11 16L12 16L12 17L13 17L13 16L12 16L12 14L13 14L13 15L14 15L14 18L13 18L13 21L15 21L15 19L16 19L16 22L17 22L17 21L18 21L18 19L17 19L17 18L16 18L16 17L15 17L15 15L14 15L14 14L16 14L16 15L17 15L17 14L18 14L18 17L21 17L21 18L20 18L20 19L21 19L21 18L22 18L22 17L21 17L21 15L22 15L22 14L23 14L23 15L24 15L24 17L25 17L25 19L26 19L26 21L27 21L27 20L28 20L28 19L26 19L26 17L25 17L25 16L26 16L26 14L24 14L24 12L23 12L23 13L22 13L22 12L21 12L21 13L22 13L22 14L20 14L20 13L19 13L19 14L18 14L18 12L16 12L16 11L15 11L15 12L14 12L14 14L13 14L13 12L12 12L12 13L11 13L11 11L14 11L14 10L15 10L15 9L14 9L14 8L13 8L13 6L14 6L14 7L15 7L15 8L16 8L16 10L17 10L17 9L18 9L18 10L20 10L20 9L21 9L21 11L22 11L22 10L24 10L24 11L25 11L25 13L27 13L27 14L28 14L28 15L29 15L29 13L28 13L28 11L27 11L27 10L25 10L25 9L27 9L27 8L24 8L24 9L22 9L22 8L21 8L21 6L20 6L20 4L19 4L19 1L20 1L20 3L21 3L21 1L20 1L20 0L19 0L19 1L16 1L16 0L15 0L15 1L16 1L16 4L15 4L15 3L14 3L14 5L13 5L13 3L12 3L12 4L11 4L11 2L14 2L14 0L12 0L12 1L11 1L11 0L10 0L10 1L9 1L9 0ZM17 2L17 3L18 3L18 2ZM16 4L16 5L14 5L14 6L15 6L15 7L16 7L16 5L17 5L17 7L18 7L18 5L19 5L19 4ZM12 5L12 6L11 6L11 8L12 8L12 6L13 6L13 5ZM8 6L8 7L9 7L9 6ZM19 6L19 9L20 9L20 6ZM0 8L0 9L1 9L1 10L0 10L0 11L1 11L1 10L2 10L2 11L3 11L3 9L4 9L4 8ZM8 8L8 9L9 9L9 8ZM28 8L28 10L29 10L29 8ZM11 9L11 10L12 10L12 9ZM19 11L19 12L20 12L20 11ZM26 11L26 12L27 12L27 11ZM6 13L6 14L7 14L7 13ZM16 13L16 14L17 14L17 13ZM0 15L0 17L1 17L1 15ZM4 15L4 17L5 17L5 19L6 19L6 20L7 20L7 19L6 19L6 18L7 18L7 17L5 17L5 16L7 16L7 15ZM19 15L19 16L20 16L20 15ZM0 18L0 19L1 19L1 18ZM23 18L23 19L24 19L24 18ZM19 20L19 22L18 22L18 23L19 23L19 24L20 24L20 25L24 25L24 26L25 26L25 27L23 27L23 28L24 28L24 29L25 29L25 27L26 27L26 26L27 26L27 24L26 24L26 25L25 25L25 23L27 23L27 22L25 22L25 20ZM21 21L21 24L24 24L24 21ZM28 21L28 22L29 22L29 21ZM14 22L14 23L11 23L11 24L10 24L10 25L8 25L8 29L9 29L9 26L12 26L12 28L11 28L11 29L12 29L12 28L14 28L14 27L15 27L15 28L16 28L16 29L17 29L17 28L16 28L16 27L15 27L15 26L16 26L16 25L17 25L17 26L18 26L18 28L20 28L20 29L21 29L21 27L22 27L22 26L21 26L21 27L20 27L20 26L18 26L18 24L17 24L17 23L16 23L16 25L15 25L15 26L14 26L14 25L13 25L13 26L12 26L12 24L15 24L15 22ZM22 22L22 23L23 23L23 22ZM28 23L28 24L29 24L29 23ZM28 25L28 27L27 27L27 29L28 29L28 27L29 27L29 25ZM13 26L13 27L14 27L14 26ZM0 0L0 7L7 7L7 0ZM1 1L1 6L6 6L6 1ZM2 2L2 5L5 5L5 2ZM22 0L22 7L29 7L29 0ZM23 1L23 6L28 6L28 1ZM24 2L24 5L27 5L27 2ZM0 22L0 29L7 29L7 22ZM1 23L1 28L6 28L6 23ZM2 24L2 27L5 27L5 24Z" fill="#000000"/></g></g></svg>
