<?xml version="1.0" encoding="UTF-8"?>
<svg xmlns="http://www.w3.org/2000/svg" version="1.1" width="400" height="400" viewBox="0 0 400 400"><rect x="0" y="0" width="400" height="400" fill="#ffffff"/><g transform="scale(4.494)"><g transform="translate(0,0)"><path fill-rule="evenodd" d="M9 0L9 1L8 1L8 2L9 2L9 3L8 3L8 4L9 4L9 5L8 5L8 7L9 7L9 8L6 8L6 9L5 9L5 8L0 8L0 10L1 10L1 11L0 11L0 12L1 12L1 11L2 11L2 13L0 13L0 16L2 16L2 17L3 17L3 19L4 19L4 18L5 18L5 17L9 17L9 18L10 18L10 19L8 19L8 18L6 18L6 19L5 19L5 20L4 20L4 21L3 21L3 20L2 20L2 18L1 18L1 17L0 17L0 18L1 18L1 19L0 19L0 20L2 20L2 21L1 21L1 23L2 23L2 22L3 22L3 24L1 24L1 25L2 25L2 26L1 26L1 27L2 27L2 29L3 29L3 30L2 30L2 31L1 31L1 30L0 30L0 31L1 31L1 32L0 32L0 33L1 33L1 35L0 35L0 37L1 37L1 36L2 36L2 33L3 33L3 36L5 36L5 35L7 35L7 36L6 36L6 37L7 37L7 38L5 38L5 37L4 37L4 39L3 39L3 40L2 40L2 39L1 39L1 38L0 38L0 40L2 40L2 42L4 42L4 43L3 43L3 44L2 44L2 43L0 43L0 45L1 45L1 47L3 47L3 46L2 46L2 45L3 45L3 44L4 44L4 43L5 43L5 44L6 44L6 45L5 45L5 46L6 46L6 47L4 47L4 49L1 49L1 48L0 48L0 50L6 50L6 51L3 51L3 52L2 52L2 53L4 53L4 54L3 54L3 56L1 56L1 55L0 55L0 57L2 57L2 58L4 58L4 60L2 60L2 59L1 59L1 61L0 61L0 62L2 62L2 61L3 61L3 62L5 62L5 63L3 63L3 65L2 65L2 63L0 63L0 64L1 64L1 65L0 65L0 67L3 67L3 68L1 68L1 70L0 70L0 74L1 74L1 75L2 75L2 74L1 74L1 71L2 71L2 72L3 72L3 71L2 71L2 69L3 69L3 70L5 70L5 69L8 69L8 67L12 67L12 69L11 69L11 68L9 68L9 69L10 69L10 72L9 72L9 73L10 73L10 74L8 74L8 73L7 73L7 72L5 72L5 71L4 71L4 73L3 73L3 75L4 75L4 74L6 74L6 75L9 75L9 76L8 76L8 77L7 77L7 76L6 76L6 77L4 77L4 76L2 76L2 78L3 78L3 79L4 79L4 80L3 80L3 81L4 81L4 80L6 80L6 81L8 81L8 83L10 83L10 85L9 85L9 84L8 84L8 89L10 89L10 88L9 88L9 87L11 87L11 89L12 89L12 88L13 88L13 89L16 89L16 88L17 88L17 89L18 89L18 88L17 88L17 87L14 87L14 88L13 88L13 87L12 87L12 86L15 86L15 85L16 85L16 86L18 86L18 87L19 87L19 89L20 89L20 88L21 88L21 89L22 89L22 88L21 88L21 87L23 87L23 89L25 89L25 88L26 88L26 89L28 89L28 88L33 88L33 87L31 87L31 86L33 86L33 85L35 85L35 86L34 86L34 87L35 87L35 86L39 86L39 89L40 89L40 88L41 88L41 87L42 87L42 86L44 86L44 84L45 84L45 83L44 83L44 82L43 82L43 81L44 81L44 80L46 80L46 79L45 79L45 78L46 78L46 77L45 77L45 76L46 76L46 75L47 75L47 76L48 76L48 78L47 78L47 79L49 79L49 80L47 80L47 83L49 83L49 84L47 84L47 85L48 85L48 86L45 86L45 87L43 87L43 89L44 89L44 88L45 88L45 87L46 87L46 89L50 89L50 87L51 87L51 88L53 88L53 89L54 89L54 87L52 87L52 86L53 86L53 85L54 85L54 86L55 86L55 89L56 89L56 88L57 88L57 89L59 89L59 88L60 88L60 87L61 87L61 88L62 88L62 89L64 89L64 88L65 88L65 89L66 89L66 87L67 87L67 88L68 88L68 89L69 89L69 88L73 88L73 87L74 87L74 86L75 86L75 87L78 87L78 88L79 88L79 89L80 89L80 87L78 87L78 86L76 86L76 84L75 84L75 85L74 85L74 84L73 84L73 85L74 85L74 86L73 86L73 87L69 87L69 86L70 86L70 85L69 85L69 84L72 84L72 82L73 82L73 83L77 83L77 85L78 85L78 84L79 84L79 83L80 83L80 86L82 86L82 87L81 87L81 88L83 88L83 89L85 89L85 88L86 88L86 89L87 89L87 88L88 88L88 85L87 85L87 84L86 84L86 85L85 85L85 83L87 83L87 82L89 82L89 81L88 81L88 80L89 80L89 79L88 79L88 78L89 78L89 77L88 77L88 76L86 76L86 73L88 73L88 74L87 74L87 75L88 75L88 74L89 74L89 73L88 73L88 72L86 72L86 73L82 73L82 74L81 74L81 72L85 72L85 69L86 69L86 71L87 71L87 70L89 70L89 69L87 69L87 68L88 68L88 67L87 67L87 68L85 68L85 69L84 69L84 67L85 67L85 66L86 66L86 65L88 65L88 64L89 64L89 62L87 62L87 64L86 64L86 63L85 63L85 62L86 62L86 61L87 61L87 60L88 60L88 61L89 61L89 59L87 59L87 58L86 58L86 59L87 59L87 60L85 60L85 61L82 61L82 62L81 62L81 61L79 61L79 62L80 62L80 63L79 63L79 64L77 64L77 65L79 65L79 66L80 66L80 65L81 65L81 69L78 69L78 70L77 70L77 71L76 71L76 72L75 72L75 73L76 73L76 76L75 76L75 75L74 75L74 74L73 74L73 73L74 73L74 72L73 72L73 73L71 73L71 72L72 72L72 69L74 69L74 68L73 68L73 67L76 67L76 68L75 68L75 70L73 70L73 71L75 71L75 70L76 70L76 69L77 69L77 67L78 67L78 68L79 68L79 67L78 67L78 66L77 66L77 67L76 67L76 66L75 66L75 65L76 65L76 64L75 64L75 63L74 63L74 62L76 62L76 61L77 61L77 60L75 60L75 61L74 61L74 62L73 62L73 61L72 61L72 62L73 62L73 63L71 63L71 64L75 64L75 65L74 65L74 66L73 66L73 65L71 65L71 66L70 66L70 65L69 65L69 64L70 64L70 63L69 63L69 62L70 62L70 61L71 61L71 60L72 60L72 59L71 59L71 60L70 60L70 59L68 59L68 58L65 58L65 59L64 59L64 58L61 58L61 57L60 57L60 58L59 58L59 56L61 56L61 55L62 55L62 57L65 57L65 56L63 56L63 55L62 55L62 54L63 54L63 53L64 53L64 54L65 54L65 53L67 53L67 54L68 54L68 56L69 56L69 58L73 58L73 59L75 59L75 58L76 58L76 59L78 59L78 60L79 60L79 59L78 59L78 58L79 58L79 56L80 56L80 59L81 59L81 60L84 60L84 59L85 59L85 56L86 56L86 57L88 57L88 58L89 58L89 55L88 55L88 54L89 54L89 53L88 53L88 52L86 52L86 51L85 51L85 50L86 50L86 49L87 49L87 51L88 51L88 50L89 50L89 49L87 49L87 48L88 48L88 46L89 46L89 43L88 43L88 45L87 45L87 44L86 44L86 42L85 42L85 40L86 40L86 41L87 41L87 42L89 42L89 39L87 39L87 38L86 38L86 39L85 39L85 37L87 37L87 36L88 36L88 35L87 35L87 36L84 36L84 35L83 35L83 34L85 34L85 33L88 33L88 32L89 32L89 31L88 31L88 30L89 30L89 29L88 29L88 28L89 28L89 27L88 27L88 26L89 26L89 24L88 24L88 25L87 25L87 24L86 24L86 25L87 25L87 26L86 26L86 27L84 27L84 26L85 26L85 25L84 25L84 26L83 26L83 27L82 27L82 28L80 28L80 27L81 27L81 26L80 26L80 27L79 27L79 25L80 25L80 24L77 24L77 23L79 23L79 21L81 21L81 22L80 22L80 23L82 23L82 24L83 24L83 23L84 23L84 24L85 24L85 23L84 23L84 22L86 22L86 21L88 21L88 22L87 22L87 23L88 23L88 22L89 22L89 21L88 21L88 20L85 20L85 19L86 19L86 18L87 18L87 17L88 17L88 18L89 18L89 15L88 15L88 14L89 14L89 11L88 11L88 13L87 13L87 12L85 12L85 11L84 11L84 12L83 12L83 11L82 11L82 10L80 10L80 12L79 12L79 11L78 11L78 10L79 10L79 9L80 9L80 7L81 7L81 6L80 6L80 4L81 4L81 3L80 3L80 4L79 4L79 3L78 3L78 4L79 4L79 6L78 6L78 5L77 5L77 2L76 2L76 3L75 3L75 4L76 4L76 5L73 5L73 4L74 4L74 2L75 2L75 0L74 0L74 1L73 1L73 4L71 4L71 5L73 5L73 6L72 6L72 7L71 7L71 6L70 6L70 7L69 7L69 6L68 6L68 7L67 7L67 6L66 6L66 5L68 5L68 4L67 4L67 3L69 3L69 5L70 5L70 2L71 2L71 3L72 3L72 0L68 0L68 1L70 1L70 2L67 2L67 1L65 1L65 0L63 0L63 2L62 2L62 1L61 1L61 2L59 2L59 0L57 0L57 1L56 1L56 0L55 0L55 1L56 1L56 3L57 3L57 4L55 4L55 2L54 2L54 3L53 3L53 2L52 2L52 1L53 1L53 0L51 0L51 1L50 1L50 3L46 3L46 2L47 2L47 1L48 1L48 2L49 2L49 1L48 1L48 0L47 0L47 1L46 1L46 2L45 2L45 4L48 4L48 5L46 5L46 7L45 7L45 6L44 6L44 8L43 8L43 6L42 6L42 7L41 7L41 5L44 5L44 4L43 4L43 3L44 3L44 1L45 1L45 0L41 0L41 1L36 1L36 0L35 0L35 1L36 1L36 2L34 2L34 3L33 3L33 4L32 4L32 2L31 2L31 1L32 1L32 0L31 0L31 1L28 1L28 0L27 0L27 1L26 1L26 0L24 0L24 1L23 1L23 0L22 0L22 3L23 3L23 4L21 4L21 3L20 3L20 4L21 4L21 5L23 5L23 6L22 6L22 7L21 7L21 6L20 6L20 5L19 5L19 4L17 4L17 5L19 5L19 6L18 6L18 7L17 7L17 6L16 6L16 4L15 4L15 3L16 3L16 2L17 2L17 3L19 3L19 2L20 2L20 1L21 1L21 0L19 0L19 2L18 2L18 0L17 0L17 1L16 1L16 0L13 0L13 1L14 1L14 5L13 5L13 4L12 4L12 2L10 2L10 0ZM11 0L11 1L12 1L12 0ZM76 0L76 1L79 1L79 2L80 2L80 1L81 1L81 0ZM25 1L25 2L23 2L23 3L25 3L25 4L23 4L23 5L24 5L24 6L23 6L23 8L22 8L22 9L21 9L21 7L20 7L20 6L19 6L19 7L18 7L18 8L17 8L17 7L16 7L16 6L15 6L15 5L14 5L14 6L13 6L13 5L12 5L12 4L11 4L11 3L9 3L9 4L10 4L10 5L12 5L12 6L11 6L11 7L12 7L12 8L9 8L9 9L11 9L11 10L8 10L8 9L6 9L6 10L3 10L3 13L2 13L2 16L3 16L3 15L4 15L4 17L5 17L5 16L7 16L7 15L4 15L4 14L3 14L3 13L5 13L5 14L7 14L7 13L6 13L6 12L7 12L7 11L6 11L6 10L8 10L8 11L10 11L10 12L8 12L8 13L10 13L10 12L11 12L11 14L8 14L8 16L9 16L9 15L10 15L10 16L11 16L11 17L10 17L10 18L12 18L12 22L13 22L13 23L12 23L12 24L10 24L10 23L9 23L9 21L10 21L10 22L11 22L11 21L10 21L10 20L11 20L11 19L10 19L10 20L8 20L8 22L7 22L7 21L6 21L6 20L7 20L7 19L6 19L6 20L5 20L5 22L4 22L4 25L3 25L3 26L4 26L4 25L5 25L5 27L4 27L4 28L8 28L8 27L10 27L10 26L13 26L13 27L12 27L12 29L14 29L14 28L15 28L15 31L14 31L14 32L12 32L12 31L11 31L11 29L9 29L9 31L10 31L10 33L12 33L12 36L11 36L11 40L10 40L10 41L8 41L8 40L7 40L7 39L6 39L6 40L7 40L7 41L5 41L5 40L3 40L3 41L4 41L4 42L5 42L5 43L6 43L6 44L9 44L9 45L6 45L6 46L8 46L8 51L6 51L6 52L5 52L5 53L6 53L6 54L8 54L8 53L10 53L10 54L9 54L9 56L10 56L10 54L11 54L11 53L13 53L13 54L12 54L12 55L11 55L11 56L12 56L12 57L13 57L13 56L14 56L14 57L15 57L15 56L16 56L16 57L17 57L17 56L16 56L16 55L18 55L18 56L21 56L21 54L20 54L20 53L23 53L23 54L22 54L22 57L18 57L18 58L19 58L19 60L21 60L21 59L20 59L20 58L22 58L22 59L23 59L23 60L22 60L22 61L19 61L19 63L15 63L15 62L14 62L14 61L13 61L13 59L14 59L14 60L15 60L15 61L17 61L17 60L16 60L16 59L14 59L14 58L12 58L12 59L11 59L11 60L10 60L10 59L8 59L8 60L7 60L7 59L6 59L6 60L7 60L7 61L5 61L5 62L7 62L7 63L5 63L5 66L4 66L4 65L3 65L3 66L4 66L4 68L3 68L3 69L4 69L4 68L5 68L5 66L7 66L7 67L6 67L6 68L7 68L7 67L8 67L8 66L7 66L7 65L11 65L11 66L12 66L12 65L13 65L13 64L12 64L12 62L11 62L11 60L12 60L12 61L13 61L13 63L14 63L14 64L18 64L18 65L14 65L14 66L13 66L13 67L14 67L14 69L12 69L12 70L13 70L13 72L12 72L12 73L14 73L14 74L12 74L12 75L14 75L14 74L15 74L15 76L11 76L11 74L10 74L10 76L9 76L9 79L10 79L10 80L9 80L9 82L11 82L11 85L10 85L10 86L12 86L12 83L13 83L13 82L11 82L11 80L13 80L13 81L15 81L15 80L17 80L17 82L18 82L18 81L19 81L19 84L18 84L18 83L17 83L17 85L18 85L18 86L19 86L19 87L20 87L20 85L21 85L21 86L22 86L22 85L21 85L21 84L20 84L20 83L21 83L21 82L22 82L22 81L21 81L21 82L20 82L20 81L19 81L19 79L17 79L17 78L16 78L16 77L18 77L18 78L19 78L19 77L20 77L20 78L21 78L21 77L20 77L20 76L21 76L21 74L22 74L22 76L23 76L23 74L24 74L24 73L23 73L23 72L24 72L24 70L25 70L25 69L27 69L27 70L26 70L26 71L25 71L25 73L26 73L26 74L25 74L25 76L24 76L24 77L22 77L22 78L23 78L23 79L22 79L22 80L24 80L24 81L23 81L23 83L22 83L22 84L24 84L24 85L23 85L23 87L24 87L24 86L25 86L25 87L27 87L27 86L26 86L26 85L27 85L27 84L26 84L26 85L25 85L25 82L26 82L26 81L27 81L27 80L29 80L29 79L30 79L30 78L29 78L29 77L30 77L30 76L31 76L31 78L32 78L32 80L34 80L34 82L35 82L35 84L37 84L37 85L38 85L38 84L37 84L37 83L36 83L36 80L37 80L37 82L39 82L39 81L41 81L41 82L40 82L40 83L39 83L39 84L40 84L40 85L39 85L39 86L40 86L40 87L41 87L41 84L42 84L42 85L43 85L43 84L44 84L44 83L43 83L43 82L42 82L42 80L40 80L40 79L41 79L41 78L39 78L39 77L41 77L41 76L42 76L42 75L43 75L43 76L45 76L45 75L46 75L46 74L48 74L48 76L49 76L49 77L50 77L50 78L49 78L49 79L50 79L50 78L51 78L51 77L50 77L50 76L52 76L52 77L53 77L53 78L52 78L52 79L55 79L55 78L56 78L56 79L58 79L58 80L59 80L59 83L60 83L60 84L59 84L59 85L57 85L57 86L59 86L59 87L60 87L60 85L61 85L61 86L62 86L62 87L63 87L63 88L64 88L64 87L63 87L63 84L64 84L64 83L61 83L61 82L62 82L62 80L64 80L64 79L65 79L65 81L64 81L64 82L67 82L67 83L71 83L71 82L69 82L69 81L68 81L68 80L67 80L67 81L66 81L66 79L67 79L67 77L68 77L68 79L69 79L69 80L70 80L70 79L69 79L69 75L70 75L70 78L75 78L75 79L73 79L73 80L74 80L74 81L73 81L73 82L74 82L74 81L75 81L75 82L78 82L78 83L79 83L79 81L80 81L80 79L81 79L81 80L84 80L84 79L85 79L85 78L86 78L86 80L87 80L87 78L88 78L88 77L86 77L86 76L85 76L85 75L84 75L84 74L82 74L82 75L80 75L80 72L79 72L79 71L81 71L81 70L82 70L82 71L84 71L84 70L82 70L82 69L83 69L83 68L82 68L82 69L81 69L81 70L79 70L79 71L78 71L78 72L79 72L79 73L77 73L77 72L76 72L76 73L77 73L77 74L79 74L79 76L80 76L80 78L79 78L79 77L77 77L77 78L76 78L76 77L74 77L74 76L73 76L73 77L72 77L72 76L71 76L71 75L70 75L70 74L71 74L71 73L70 73L70 74L67 74L67 75L66 75L66 77L65 77L65 76L64 76L64 75L65 75L65 74L66 74L66 73L68 73L68 72L69 72L69 71L70 71L70 72L71 72L71 71L70 71L70 70L71 70L71 69L72 69L72 68L71 68L71 67L73 67L73 66L71 66L71 67L70 67L70 66L69 66L69 67L68 67L68 66L66 66L66 65L65 65L65 66L64 66L64 67L63 67L63 66L62 66L62 64L64 64L64 63L65 63L65 62L66 62L66 61L67 61L67 62L68 62L68 60L67 60L67 59L65 59L65 60L64 60L64 59L60 59L60 60L59 60L59 59L58 59L58 60L57 60L57 59L56 59L56 60L54 60L54 61L53 61L53 60L52 60L52 61L53 61L53 64L51 64L51 63L50 63L50 64L49 64L49 63L47 63L47 64L44 64L44 63L45 63L45 62L47 62L47 61L48 61L48 60L50 60L50 62L51 62L51 60L50 60L50 58L51 58L51 59L52 59L52 58L53 58L53 59L54 59L54 58L53 58L53 57L54 57L54 54L58 54L58 53L59 53L59 55L61 55L61 54L62 54L62 53L63 53L63 52L64 52L64 51L60 51L60 52L58 52L58 51L59 51L59 50L60 50L60 49L61 49L61 50L62 50L62 48L64 48L64 49L65 49L65 50L66 50L66 51L65 51L65 52L66 52L66 51L67 51L67 50L68 50L68 52L67 52L67 53L68 53L68 54L69 54L69 55L71 55L71 54L72 54L72 55L73 55L73 54L74 54L74 52L76 52L76 51L77 51L77 50L78 50L78 52L77 52L77 53L75 53L75 54L76 54L76 55L74 55L74 56L73 56L73 58L74 58L74 57L75 57L75 56L76 56L76 55L77 55L77 56L79 56L79 55L80 55L80 54L81 54L81 53L80 53L80 52L81 52L81 51L82 51L82 52L83 52L83 53L82 53L82 54L83 54L83 53L84 53L84 52L85 52L85 53L86 53L86 54L85 54L85 55L86 55L86 56L87 56L87 53L86 53L86 52L85 52L85 51L84 51L84 50L85 50L85 49L84 49L84 48L87 48L87 47L86 47L86 46L87 46L87 45L86 45L86 44L85 44L85 43L84 43L84 44L85 44L85 46L83 46L83 45L82 45L82 44L83 44L83 41L82 41L82 40L83 40L83 39L84 39L84 40L85 40L85 39L84 39L84 36L83 36L83 35L82 35L82 36L81 36L81 35L80 35L80 34L81 34L81 33L79 33L79 34L78 34L78 33L77 33L77 32L78 32L78 31L79 31L79 32L80 32L80 29L79 29L79 30L78 30L78 29L76 29L76 30L75 30L75 29L73 29L73 30L71 30L71 29L72 29L72 28L73 28L73 27L72 27L72 24L73 24L73 26L74 26L74 25L75 25L75 24L73 24L73 23L74 23L74 22L78 22L78 21L77 21L77 20L78 20L78 19L79 19L79 20L80 20L80 19L81 19L81 20L82 20L82 21L83 21L83 22L82 22L82 23L83 23L83 22L84 22L84 19L85 19L85 18L86 18L86 16L88 16L88 15L87 15L87 14L84 14L84 13L85 13L85 12L84 12L84 13L83 13L83 12L80 12L80 13L78 13L78 12L77 12L77 11L75 11L75 12L74 12L74 11L73 11L73 10L78 10L78 9L77 9L77 8L78 8L78 6L77 6L77 7L76 7L76 6L75 6L75 7L74 7L74 6L73 6L73 8L70 8L70 9L71 9L71 10L69 10L69 9L68 9L68 8L67 8L67 10L66 10L66 6L65 6L65 7L64 7L64 5L66 5L66 4L64 4L64 5L62 5L62 4L63 4L63 3L64 3L64 2L65 2L65 3L66 3L66 2L65 2L65 1L64 1L64 2L63 2L63 3L62 3L62 2L61 2L61 3L59 3L59 5L62 5L62 6L61 6L61 7L60 7L60 6L59 6L59 7L60 7L60 8L59 8L59 9L58 9L58 10L54 10L54 8L52 8L52 5L53 5L53 7L54 7L54 5L53 5L53 3L52 3L52 5L51 5L51 3L50 3L50 5L49 5L49 7L48 7L48 6L47 6L47 7L46 7L46 8L49 8L49 9L45 9L45 8L44 8L44 9L45 9L45 11L46 11L46 12L47 12L47 13L45 13L45 12L44 12L44 11L43 11L43 12L42 12L42 11L40 11L40 9L42 9L42 8L39 8L39 7L40 7L40 4L42 4L42 1L41 1L41 3L40 3L40 2L39 2L39 4L38 4L38 5L37 5L37 7L36 7L36 6L35 6L35 5L36 5L36 4L35 4L35 5L34 5L34 4L33 4L33 5L34 5L34 6L33 6L33 9L32 9L32 10L35 10L35 9L36 9L36 8L37 8L37 10L39 10L39 11L31 11L31 13L30 13L30 11L28 11L28 10L27 10L27 8L28 8L28 6L27 6L27 7L26 7L26 5L27 5L27 4L28 4L28 3L29 3L29 4L30 4L30 2L28 2L28 1L27 1L27 2L26 2L26 1ZM57 1L57 3L58 3L58 1ZM25 2L25 3L26 3L26 4L25 4L25 5L26 5L26 4L27 4L27 3L28 3L28 2L27 2L27 3L26 3L26 2ZM36 2L36 3L37 3L37 2ZM29 5L29 8L32 8L32 5ZM38 5L38 7L39 7L39 5ZM50 5L50 9L49 9L49 10L47 10L47 11L49 11L49 12L48 12L48 13L49 13L49 14L50 14L50 15L49 15L49 16L48 16L48 17L49 17L49 18L50 18L50 19L52 19L52 20L50 20L50 21L49 21L49 20L48 20L48 21L47 21L47 20L46 20L46 19L47 19L47 18L46 18L46 19L45 19L45 17L44 17L44 16L45 16L45 15L42 15L42 16L41 16L41 12L40 12L40 11L39 11L39 12L40 12L40 13L39 13L39 14L40 14L40 16L36 16L36 15L38 15L38 14L37 14L37 13L38 13L38 12L33 12L33 13L31 13L31 14L32 14L32 15L31 15L31 16L30 16L30 17L29 17L29 16L28 16L28 18L30 18L30 19L29 19L29 20L30 20L30 21L28 21L28 19L26 19L26 20L27 20L27 21L25 21L25 20L24 20L24 21L25 21L25 22L24 22L24 24L23 24L23 22L21 22L21 23L20 23L20 22L18 22L18 21L20 21L20 20L21 20L21 21L23 21L23 20L22 20L22 19L23 19L23 18L22 18L22 19L19 19L19 18L21 18L21 17L24 17L24 19L25 19L25 18L27 18L27 17L25 17L25 16L26 16L26 15L29 15L29 14L28 14L28 13L27 13L27 12L28 12L28 11L27 11L27 10L26 10L26 9L24 9L24 8L25 8L25 6L24 6L24 8L23 8L23 9L24 9L24 10L26 10L26 11L27 11L27 12L26 12L26 13L27 13L27 14L26 14L26 15L25 15L25 13L24 13L24 12L22 12L22 11L21 11L21 9L16 9L16 8L15 8L15 6L14 6L14 8L13 8L13 9L14 9L14 8L15 8L15 9L16 9L16 10L18 10L18 11L17 11L17 12L16 12L16 11L15 11L15 12L16 12L16 13L17 13L17 12L18 12L18 15L17 15L17 16L15 16L15 15L16 15L16 14L15 14L15 15L13 15L13 14L14 14L14 13L13 13L13 12L14 12L14 10L12 10L12 11L13 11L13 12L12 12L12 15L13 15L13 16L14 16L14 17L12 17L12 18L13 18L13 19L14 19L14 20L13 20L13 22L14 22L14 23L13 23L13 24L12 24L12 25L13 25L13 26L15 26L15 28L16 28L16 31L17 31L17 32L18 32L18 33L16 33L16 34L15 34L15 32L14 32L14 34L13 34L13 39L12 39L12 40L11 40L11 41L10 41L10 42L11 42L11 43L12 43L12 44L13 44L13 43L14 43L14 42L13 42L13 41L15 41L15 42L16 42L16 44L17 44L17 42L16 42L16 40L14 40L14 34L15 34L15 35L16 35L16 36L15 36L15 38L16 38L16 37L17 37L17 34L18 34L18 36L19 36L19 37L18 37L18 39L20 39L20 38L19 38L19 37L20 37L20 36L21 36L21 37L22 37L22 38L23 38L23 37L24 37L24 36L23 36L23 33L24 33L24 35L25 35L25 37L26 37L26 38L25 38L25 39L26 39L26 38L27 38L27 37L26 37L26 36L27 36L27 35L28 35L28 37L29 37L29 38L31 38L31 39L30 39L30 40L32 40L32 41L30 41L30 42L29 42L29 43L30 43L30 44L28 44L28 43L26 43L26 45L23 45L23 46L21 46L21 45L22 45L22 44L25 44L25 42L28 42L28 41L27 41L27 40L26 40L26 41L25 41L25 40L23 40L23 41L22 41L22 39L21 39L21 40L19 40L19 41L20 41L20 43L22 43L22 44L21 44L21 45L20 45L20 44L19 44L19 43L18 43L18 46L19 46L19 45L20 45L20 47L21 47L21 48L19 48L19 49L20 49L20 51L18 51L18 53L16 53L16 54L15 54L15 53L14 53L14 54L13 54L13 55L12 55L12 56L13 56L13 55L14 55L14 54L15 54L15 55L16 55L16 54L18 54L18 55L19 55L19 52L21 52L21 49L22 49L22 50L23 50L23 51L22 51L22 52L23 52L23 53L25 53L25 54L28 54L28 55L27 55L27 56L28 56L28 58L26 58L26 57L25 57L25 56L23 56L23 57L22 57L22 58L23 58L23 57L25 57L25 58L26 58L26 59L34 59L34 61L36 61L36 62L33 62L33 61L32 61L32 60L31 60L31 61L32 61L32 63L33 63L33 64L34 64L34 65L33 65L33 66L32 66L32 65L31 65L31 64L30 64L30 63L31 63L31 62L30 62L30 60L29 60L29 62L25 62L25 61L24 61L24 60L25 60L25 59L24 59L24 60L23 60L23 61L22 61L22 62L20 62L20 64L19 64L19 65L20 65L20 66L21 66L21 67L22 67L22 68L18 68L18 66L16 66L16 67L15 67L15 68L17 68L17 71L19 71L19 69L23 69L23 67L26 67L26 68L30 68L30 67L31 67L31 68L32 68L32 69L33 69L33 68L34 68L34 69L35 69L35 70L34 70L34 71L31 71L31 70L30 70L30 71L31 71L31 72L30 72L30 73L28 73L28 72L27 72L27 71L26 71L26 73L28 73L28 75L29 75L29 74L30 74L30 75L33 75L33 76L32 76L32 78L34 78L34 77L33 77L33 76L34 76L34 75L35 75L35 74L37 74L37 75L39 75L39 76L38 76L38 77L37 77L37 76L35 76L35 79L34 79L34 80L36 80L36 77L37 77L37 79L38 79L38 77L39 77L39 76L41 76L41 75L40 75L40 74L41 74L41 73L40 73L40 72L42 72L42 74L45 74L45 73L44 73L44 71L43 71L43 70L44 70L44 68L45 68L45 69L47 69L47 70L45 70L45 72L46 72L46 71L49 71L49 72L48 72L48 74L50 74L50 75L52 75L52 76L54 76L54 77L55 77L55 76L56 76L56 75L55 75L55 74L54 74L54 75L52 75L52 74L53 74L53 73L52 73L52 72L54 72L54 73L55 73L55 72L60 72L60 73L62 73L62 72L60 72L60 71L63 71L63 69L64 69L64 68L63 68L63 69L62 69L62 68L60 68L60 67L62 67L62 66L61 66L61 65L60 65L60 67L59 67L59 64L61 64L61 63L62 63L62 62L61 62L61 63L58 63L58 62L59 62L59 61L58 61L58 62L56 62L56 61L54 61L54 63L55 63L55 64L56 64L56 63L57 63L57 65L55 65L55 66L57 66L57 67L53 67L53 66L50 66L50 65L49 65L49 64L48 64L48 65L47 65L47 66L48 66L48 67L47 67L47 68L45 68L45 67L43 67L43 70L42 70L42 69L41 69L41 70L42 70L42 71L40 71L40 72L38 72L38 71L39 71L39 70L38 70L38 69L39 69L39 68L37 68L37 66L38 66L38 67L40 67L40 68L42 68L42 66L45 66L45 65L44 65L44 64L43 64L43 63L42 63L42 64L43 64L43 65L42 65L42 66L41 66L41 65L40 65L40 64L41 64L41 62L45 62L45 61L46 61L46 60L47 60L47 59L48 59L48 58L50 58L50 55L51 55L51 58L52 58L52 56L53 56L53 54L54 54L54 53L56 53L56 52L54 52L54 51L58 51L58 49L57 49L57 50L54 50L54 51L52 51L52 50L53 50L53 49L56 49L56 48L55 48L55 47L58 47L58 48L60 48L60 45L61 45L61 44L62 44L62 43L63 43L63 42L64 42L64 43L67 43L67 44L68 44L68 43L67 43L67 42L68 42L68 41L67 41L67 40L68 40L68 39L66 39L66 38L65 38L65 36L66 36L66 37L67 37L67 36L68 36L68 38L70 38L70 39L71 39L71 40L73 40L73 41L72 41L72 42L73 42L73 43L69 43L69 44L72 44L72 46L73 46L73 47L74 47L74 49L78 49L78 50L80 50L80 51L81 51L81 50L82 50L82 51L83 51L83 52L84 52L84 51L83 51L83 50L82 50L82 49L83 49L83 48L84 48L84 47L83 47L83 46L82 46L82 45L81 45L81 46L80 46L80 44L77 44L77 45L76 45L76 44L75 44L75 43L76 43L76 42L75 42L75 43L74 43L74 42L73 42L73 41L74 41L74 40L75 40L75 41L76 41L76 40L75 40L75 39L74 39L74 38L73 38L73 39L71 39L71 36L72 36L72 35L73 35L73 37L74 37L74 35L78 35L78 34L77 34L77 33L76 33L76 32L75 32L75 30L73 30L73 31L68 31L68 30L70 30L70 27L71 27L71 28L72 28L72 27L71 27L71 26L70 26L70 25L69 25L69 24L71 24L71 20L72 20L72 22L73 22L73 21L76 21L76 20L74 20L74 18L73 18L73 17L74 17L74 16L75 16L75 18L76 18L76 19L78 19L78 18L77 18L77 17L76 17L76 16L75 16L75 15L76 15L76 14L77 14L77 16L78 16L78 17L80 17L80 16L81 16L81 17L82 17L82 18L81 18L81 19L82 19L82 20L83 20L83 19L84 19L84 18L85 18L85 17L82 17L82 16L85 16L85 15L81 15L81 14L83 14L83 13L80 13L80 15L79 15L79 16L78 16L78 14L77 14L77 13L76 13L76 12L75 12L75 15L74 15L74 14L73 14L73 13L72 13L72 14L70 14L70 13L69 13L69 14L68 14L68 13L67 13L67 14L68 14L68 15L66 15L66 14L65 14L65 13L66 13L66 12L67 12L67 11L68 11L68 12L72 12L72 10L73 10L73 9L74 9L74 8L73 8L73 9L72 9L72 10L71 10L71 11L69 11L69 10L67 10L67 11L66 11L66 10L64 10L64 9L65 9L65 8L63 8L63 6L62 6L62 7L61 7L61 8L62 8L62 9L63 9L63 10L64 10L64 11L63 11L63 12L62 12L62 10L58 10L58 11L57 11L57 12L56 12L56 11L54 11L54 10L53 10L53 9L52 9L52 10L50 10L50 9L51 9L51 5ZM55 5L55 8L58 8L58 5ZM9 6L9 7L10 7L10 6ZM12 6L12 7L13 7L13 6ZM30 6L30 7L31 7L31 6ZM34 6L34 7L35 7L35 6ZM56 6L56 7L57 7L57 6ZM79 6L79 7L80 7L80 6ZM38 8L38 9L39 9L39 8ZM75 8L75 9L76 9L76 8ZM81 8L81 9L82 9L82 8ZM83 8L83 9L84 9L84 8ZM85 8L85 9L86 9L86 8ZM87 8L87 9L88 9L88 10L89 10L89 9L88 9L88 8ZM1 9L1 10L2 10L2 9ZM30 9L30 10L31 10L31 9ZM19 10L19 12L20 12L20 13L19 13L19 14L20 14L20 15L18 15L18 16L17 16L17 19L16 19L16 17L15 17L15 20L14 20L14 21L16 21L16 22L15 22L15 23L17 23L17 21L18 21L18 18L19 18L19 17L20 17L20 15L21 15L21 12L20 12L20 10ZM49 10L49 11L50 11L50 14L51 14L51 15L50 15L50 16L49 16L49 17L50 17L50 18L51 18L51 16L52 16L52 17L53 17L53 18L52 18L52 19L53 19L53 18L54 18L54 19L55 19L55 20L52 20L52 22L51 22L51 21L50 21L50 22L47 22L47 21L46 21L46 22L45 22L45 20L44 20L44 19L43 19L43 18L42 18L42 20L39 20L39 19L38 19L38 18L39 18L39 17L38 17L38 18L37 18L37 17L35 17L35 16L34 16L34 14L35 14L35 15L36 15L36 13L33 13L33 17L30 17L30 18L31 18L31 21L32 21L32 23L31 23L31 22L30 22L30 24L32 24L32 23L33 23L33 24L34 24L34 26L33 26L33 25L30 25L30 28L31 28L31 26L32 26L32 27L34 27L34 28L33 28L33 29L34 29L34 30L33 30L33 32L34 32L34 33L33 33L33 34L32 34L32 33L31 33L31 34L29 34L29 33L28 33L28 32L27 32L27 31L28 31L28 30L27 30L27 29L26 29L26 28L27 28L27 27L28 27L28 28L29 28L29 26L27 26L27 25L26 25L26 24L27 24L27 23L29 23L29 22L26 22L26 23L25 23L25 25L26 25L26 26L24 26L24 25L23 25L23 27L22 27L22 28L23 28L23 27L24 27L24 28L25 28L25 29L22 29L22 30L23 30L23 31L20 31L20 32L22 32L22 33L21 33L21 36L22 36L22 33L23 33L23 31L24 31L24 32L25 32L25 33L26 33L26 34L27 34L27 33L28 33L28 35L29 35L29 37L30 37L30 35L31 35L31 37L33 37L33 38L32 38L32 40L33 40L33 41L32 41L32 42L30 42L30 43L32 43L32 44L31 44L31 45L33 45L33 46L30 46L30 45L28 45L28 44L27 44L27 45L28 45L28 48L29 48L29 49L26 49L26 48L27 48L27 46L24 46L24 47L25 47L25 49L26 49L26 51L25 51L25 53L28 53L28 54L29 54L29 53L31 53L31 54L32 54L32 53L31 53L31 52L30 52L30 50L32 50L32 51L33 51L33 52L34 52L34 50L35 50L35 49L36 49L36 48L39 48L39 47L37 47L37 45L38 45L38 46L40 46L40 47L41 47L41 48L40 48L40 49L41 49L41 51L44 51L44 52L43 52L43 53L44 53L44 54L41 54L41 52L40 52L40 53L39 53L39 51L38 51L38 50L39 50L39 49L38 49L38 50L36 50L36 51L35 51L35 52L37 52L37 51L38 51L38 54L39 54L39 56L38 56L38 57L37 57L37 58L40 58L40 60L39 60L39 59L35 59L35 60L38 60L38 61L37 61L37 62L38 62L38 64L37 64L37 63L36 63L36 64L35 64L35 63L34 63L34 64L35 64L35 65L34 65L34 66L33 66L33 67L32 67L32 66L31 66L31 67L32 67L32 68L33 68L33 67L34 67L34 68L35 68L35 69L36 69L36 68L35 68L35 67L36 67L36 66L37 66L37 65L38 65L38 66L39 66L39 64L40 64L40 62L39 62L39 61L40 61L40 60L41 60L41 61L45 61L45 60L46 60L46 59L47 59L47 58L48 58L48 57L45 57L45 56L46 56L46 55L47 55L47 56L49 56L49 55L50 55L50 54L51 54L51 52L52 52L52 53L54 53L54 52L52 52L52 51L51 51L51 52L50 52L50 54L49 54L49 53L47 53L47 54L46 54L46 53L45 53L45 52L46 52L46 51L45 51L45 50L48 50L48 51L47 51L47 52L49 52L49 51L50 51L50 50L52 50L52 49L53 49L53 48L51 48L51 47L50 47L50 46L56 46L56 45L57 45L57 46L58 46L58 44L59 44L59 45L60 45L60 44L61 44L61 42L62 42L62 41L63 41L63 40L64 40L64 41L65 41L65 42L66 42L66 41L65 41L65 40L66 40L66 39L65 39L65 38L64 38L64 39L63 39L63 40L62 40L62 39L61 39L61 38L62 38L62 37L63 37L63 36L64 36L64 35L65 35L65 34L66 34L66 35L67 35L67 33L68 33L68 32L67 32L67 30L68 30L68 29L69 29L69 27L70 27L70 26L68 26L68 24L69 24L69 23L70 23L70 22L69 22L69 23L68 23L68 24L65 24L65 23L64 23L64 22L66 22L66 23L67 23L67 22L68 22L68 21L69 21L69 19L71 19L71 18L72 18L72 19L73 19L73 18L72 18L72 16L73 16L73 15L72 15L72 16L71 16L71 15L70 15L70 14L69 14L69 15L68 15L68 16L66 16L66 15L65 15L65 14L64 14L64 15L60 15L60 16L59 16L59 15L58 15L58 14L59 14L59 13L60 13L60 14L62 14L62 13L61 13L61 11L60 11L60 12L59 12L59 11L58 11L58 12L57 12L57 13L56 13L56 12L55 12L55 13L54 13L54 12L51 12L51 11L50 11L50 10ZM52 10L52 11L53 11L53 10ZM86 10L86 11L87 11L87 10ZM4 11L4 12L6 12L6 11ZM64 12L64 13L65 13L65 12ZM23 13L23 14L24 14L24 13ZM42 13L42 14L43 14L43 13ZM44 13L44 14L45 14L45 13ZM51 13L51 14L52 14L52 13ZM55 13L55 14L56 14L56 13ZM57 13L57 14L58 14L58 13ZM53 14L53 15L52 15L52 16L53 16L53 15L54 15L54 14ZM22 15L22 16L24 16L24 15ZM55 15L55 16L54 16L54 18L57 18L57 19L56 19L56 21L54 21L54 22L53 22L53 23L51 23L51 22L50 22L50 23L49 23L49 24L46 24L46 23L47 23L47 22L46 22L46 23L45 23L45 25L49 25L49 24L51 24L51 26L50 26L50 27L49 27L49 26L48 26L48 27L47 27L47 26L44 26L44 24L43 24L43 25L42 25L42 26L44 26L44 27L46 27L46 28L48 28L48 29L47 29L47 34L49 34L49 36L48 36L48 35L47 35L47 36L48 36L48 37L49 37L49 38L48 38L48 39L47 39L47 38L45 38L45 39L44 39L44 40L43 40L43 39L40 39L40 38L39 38L39 37L40 37L40 36L39 36L39 35L40 35L40 34L43 34L43 35L44 35L44 36L42 36L42 35L41 35L41 36L42 36L42 38L44 38L44 36L45 36L45 37L46 37L46 34L45 34L45 35L44 35L44 34L43 34L43 33L44 33L44 31L46 31L46 29L45 29L45 28L42 28L42 27L40 27L40 26L41 26L41 25L40 25L40 24L42 24L42 23L44 23L44 21L43 21L43 22L42 22L42 21L41 21L41 22L42 22L42 23L40 23L40 24L39 24L39 22L40 22L40 21L39 21L39 22L38 22L38 19L36 19L36 18L34 18L34 17L33 17L33 18L34 18L34 19L33 19L33 20L32 20L32 21L35 21L35 22L33 22L33 23L35 23L35 24L36 24L36 25L37 25L37 26L36 26L36 27L37 27L37 28L35 28L35 29L36 29L36 30L35 30L35 31L34 31L34 32L36 32L36 33L35 33L35 34L33 34L33 37L35 37L35 38L33 38L33 40L34 40L34 39L37 39L37 40L35 40L35 41L37 41L37 42L38 42L38 43L36 43L36 44L35 44L35 45L36 45L36 44L38 44L38 43L40 43L40 44L41 44L41 45L40 45L40 46L41 46L41 47L42 47L42 48L43 48L43 49L42 49L42 50L45 50L45 49L44 49L44 48L43 48L43 46L46 46L46 47L47 47L47 46L46 46L46 44L47 44L47 45L49 45L49 46L48 46L48 47L49 47L49 46L50 46L50 45L52 45L52 44L53 44L53 45L56 45L56 44L53 44L53 43L58 43L58 42L60 42L60 41L59 41L59 40L61 40L61 41L62 41L62 40L61 40L61 39L60 39L60 38L61 38L61 37L60 37L60 38L59 38L59 36L60 36L60 35L63 35L63 34L65 34L65 32L63 32L63 31L66 31L66 30L65 30L65 29L64 29L64 28L66 28L66 29L67 29L67 28L68 28L68 27L67 27L67 26L65 26L65 25L64 25L64 24L60 24L60 23L63 23L63 22L64 22L64 21L65 21L65 19L66 19L66 20L68 20L68 18L71 18L71 16L70 16L70 15L69 15L69 16L68 16L68 18L67 18L67 17L66 17L66 18L65 18L65 17L64 17L64 16L61 16L61 17L63 17L63 18L60 18L60 19L59 19L59 18L58 18L58 17L59 17L59 16L58 16L58 17L57 17L57 16L56 16L56 15ZM40 16L40 19L41 19L41 16ZM55 16L55 17L56 17L56 16ZM63 18L63 19L60 19L60 20L59 20L59 21L58 21L58 22L57 22L57 23L56 23L56 22L54 22L54 23L53 23L53 24L52 24L52 25L53 25L53 26L52 26L52 27L53 27L53 28L52 28L52 29L51 29L51 27L50 27L50 28L49 28L49 27L48 27L48 28L49 28L49 31L48 31L48 32L49 32L49 33L50 33L50 34L51 34L51 33L54 33L54 34L52 34L52 35L54 35L54 36L56 36L56 37L53 37L53 36L49 36L49 37L50 37L50 38L49 38L49 39L48 39L48 40L47 40L47 39L46 39L46 40L47 40L47 41L45 41L45 40L44 40L44 41L43 41L43 42L42 42L42 40L40 40L40 39L39 39L39 38L37 38L37 39L39 39L39 40L40 40L40 41L41 41L41 42L40 42L40 43L41 43L41 44L42 44L42 43L43 43L43 44L44 44L44 45L45 45L45 44L44 44L44 43L43 43L43 42L45 42L45 43L46 43L46 42L47 42L47 43L48 43L48 44L49 44L49 45L50 45L50 44L49 44L49 43L48 43L48 42L49 42L49 41L48 41L48 40L50 40L50 42L51 42L51 44L52 44L52 43L53 43L53 42L58 42L58 41L57 41L57 40L58 40L58 39L59 39L59 38L58 38L58 39L57 39L57 40L56 40L56 39L55 39L55 41L53 41L53 40L54 40L54 38L57 38L57 37L58 37L58 35L60 35L60 34L59 34L59 33L60 33L60 32L59 32L59 33L56 33L56 34L58 34L58 35L54 35L54 34L55 34L55 33L54 33L54 30L53 30L53 28L54 28L54 27L55 27L55 28L56 28L56 26L57 26L57 27L60 27L60 26L62 26L62 27L61 27L61 28L59 28L59 31L60 31L60 30L62 30L62 31L61 31L61 32L62 32L62 33L61 33L61 34L63 34L63 32L62 32L62 31L63 31L63 30L62 30L62 29L63 29L63 28L64 28L64 27L65 27L65 26L64 26L64 27L63 27L63 26L62 26L62 25L60 25L60 24L59 24L59 25L60 25L60 26L57 26L57 25L58 25L58 24L57 24L57 23L60 23L60 22L63 22L63 21L61 21L61 20L64 20L64 19L65 19L65 18ZM79 18L79 19L80 19L80 18ZM82 18L82 19L83 19L83 18ZM34 19L34 20L35 20L35 21L36 21L36 20L35 20L35 19ZM16 20L16 21L17 21L17 20ZM66 21L66 22L67 22L67 21ZM6 22L6 23L5 23L5 25L7 25L7 26L6 26L6 27L7 27L7 26L9 26L9 25L8 25L8 23L7 23L7 22ZM35 22L35 23L36 23L36 24L38 24L38 26L37 26L37 27L38 27L38 26L39 26L39 24L38 24L38 23L36 23L36 22ZM6 23L6 24L7 24L7 23ZM19 23L19 24L18 24L18 25L16 25L16 27L17 27L17 28L18 28L18 31L19 31L19 29L20 29L20 30L21 30L21 29L20 29L20 28L21 28L21 26L22 26L22 25L21 25L21 24L20 24L20 23ZM54 23L54 24L53 24L53 25L54 25L54 26L53 26L53 27L54 27L54 26L56 26L56 25L57 25L57 24L56 24L56 25L54 25L54 24L55 24L55 23ZM13 24L13 25L14 25L14 24ZM28 24L28 25L29 25L29 24ZM76 24L76 26L75 26L75 27L74 27L74 28L76 28L76 27L77 27L77 28L79 28L79 27L77 27L77 26L78 26L78 25L77 25L77 24ZM18 25L18 26L17 26L17 27L18 27L18 28L19 28L19 25ZM20 25L20 26L21 26L21 25ZM26 26L26 27L27 27L27 26ZM34 26L34 27L35 27L35 26ZM66 27L66 28L67 28L67 27ZM86 27L86 28L85 28L85 30L88 30L88 29L86 29L86 28L87 28L87 27ZM0 28L0 29L1 29L1 28ZM38 28L38 30L37 30L37 31L36 31L36 32L39 32L39 33L37 33L37 34L35 34L35 35L34 35L34 36L35 36L35 37L36 37L36 36L37 36L37 37L38 37L38 36L37 36L37 35L38 35L38 34L39 34L39 33L41 33L41 31L42 31L42 33L43 33L43 30L44 30L44 29L43 29L43 30L41 30L41 29L42 29L42 28ZM61 28L61 29L62 29L62 28ZM5 29L5 32L8 32L8 29ZM25 29L25 30L26 30L26 31L27 31L27 30L26 30L26 29ZM29 29L29 32L32 32L32 29ZM39 29L39 30L38 30L38 31L40 31L40 29ZM55 29L55 32L58 32L58 29ZM81 29L81 32L84 32L84 29ZM6 30L6 31L7 31L7 30ZM30 30L30 31L31 31L31 30ZM50 30L50 31L49 31L49 32L50 32L50 33L51 33L51 31L52 31L52 32L53 32L53 31L52 31L52 30ZM56 30L56 31L57 31L57 30ZM77 30L77 31L78 31L78 30ZM82 30L82 31L83 31L83 30ZM2 31L2 32L3 32L3 31ZM73 31L73 32L70 32L70 33L71 33L71 34L72 34L72 33L73 33L73 34L75 34L75 32L74 32L74 31ZM86 31L86 32L87 32L87 31ZM5 33L5 34L4 34L4 35L5 35L5 34L7 34L7 33ZM18 33L18 34L19 34L19 36L20 36L20 33ZM82 33L82 34L83 34L83 33ZM10 34L10 35L11 35L11 34ZM31 34L31 35L32 35L32 34ZM69 34L69 35L70 35L70 36L71 36L71 35L70 35L70 34ZM79 35L79 36L78 36L78 38L77 38L77 39L78 39L78 41L80 41L80 42L77 42L77 43L81 43L81 41L80 41L80 40L79 40L79 39L78 39L78 38L79 38L79 37L80 37L80 39L81 39L81 40L82 40L82 39L81 39L81 37L80 37L80 35ZM7 36L7 37L8 37L8 36ZM75 36L75 37L76 37L76 36ZM82 36L82 38L83 38L83 36ZM9 37L9 39L10 39L10 37ZM51 37L51 38L50 38L50 39L51 39L51 42L52 42L52 40L53 40L53 39L52 39L52 38L53 38L53 37ZM88 37L88 38L89 38L89 37ZM64 39L64 40L65 40L65 39ZM73 39L73 40L74 40L74 39ZM86 39L86 40L87 40L87 41L88 41L88 40L87 40L87 39ZM69 40L69 42L70 42L70 40ZM0 41L0 42L1 42L1 41ZM7 41L7 42L6 42L6 43L9 43L9 42L8 42L8 41ZM11 41L11 42L12 42L12 43L13 43L13 42L12 42L12 41ZM21 41L21 42L22 42L22 43L23 43L23 42L24 42L24 41L23 41L23 42L22 42L22 41ZM33 41L33 42L34 42L34 43L35 43L35 42L34 42L34 41ZM38 41L38 42L39 42L39 41ZM59 43L59 44L60 44L60 43ZM10 44L10 47L9 47L9 48L10 48L10 47L12 47L12 46L13 46L13 45L12 45L12 46L11 46L11 44ZM14 44L14 45L15 45L15 44ZM63 44L63 45L62 45L62 46L61 46L61 48L62 48L62 47L66 47L66 48L68 48L68 49L69 49L69 50L70 50L70 51L69 51L69 54L70 54L70 52L72 52L72 53L73 53L73 51L74 51L74 50L72 50L72 51L71 51L71 49L70 49L70 48L72 48L72 47L71 47L71 45L69 45L69 46L70 46L70 47L66 47L66 46L63 46L63 45L64 45L64 44ZM41 45L41 46L42 46L42 45ZM73 45L73 46L74 46L74 45ZM77 45L77 46L76 46L76 47L75 47L75 48L76 48L76 47L78 47L78 48L79 48L79 46L78 46L78 45ZM14 46L14 47L13 47L13 49L12 49L12 48L11 48L11 50L10 50L10 51L11 51L11 52L10 52L10 53L11 53L11 52L13 52L13 51L14 51L14 52L17 52L17 51L16 51L16 49L17 49L17 47L16 47L16 46ZM29 46L29 48L30 48L30 46ZM34 46L34 47L33 47L33 49L32 49L32 48L31 48L31 49L32 49L32 50L34 50L34 47L35 47L35 48L36 48L36 46ZM6 47L6 48L5 48L5 49L6 49L6 50L7 50L7 49L6 49L6 48L7 48L7 47ZM14 47L14 48L15 48L15 47ZM22 47L22 49L23 49L23 50L24 50L24 49L23 49L23 47ZM80 47L80 48L83 48L83 47ZM48 48L48 50L50 50L50 49L51 49L51 48L50 48L50 49L49 49L49 48ZM14 49L14 50L15 50L15 49ZM29 49L29 50L30 50L30 49ZM66 49L66 50L67 50L67 49ZM11 50L11 51L12 51L12 50ZM75 50L75 51L76 51L76 50ZM0 51L0 54L1 54L1 51ZM8 51L8 52L6 52L6 53L8 53L8 52L9 52L9 51ZM23 51L23 52L24 52L24 51ZM27 51L27 52L28 52L28 53L29 53L29 51ZM57 52L57 53L58 53L58 52ZM78 52L78 53L79 53L79 52ZM33 53L33 54L34 54L34 55L33 55L33 56L34 56L34 58L36 58L36 56L37 56L37 55L36 55L36 54L34 54L34 53ZM60 53L60 54L61 54L61 53ZM45 54L45 55L44 55L44 56L41 56L41 55L40 55L40 56L41 56L41 58L43 58L43 59L42 59L42 60L45 60L45 59L46 59L46 58L45 58L45 59L44 59L44 56L45 56L45 55L46 55L46 54ZM48 54L48 55L49 55L49 54ZM77 54L77 55L78 55L78 54ZM5 55L5 58L8 58L8 55ZM29 55L29 58L32 58L32 55ZM34 55L34 56L36 56L36 55ZM55 55L55 58L58 58L58 55ZM81 55L81 58L84 58L84 55ZM6 56L6 57L7 57L7 56ZM30 56L30 57L31 57L31 56ZM56 56L56 57L57 57L57 56ZM71 56L71 57L72 57L72 56ZM82 56L82 57L83 57L83 56ZM9 57L9 58L10 58L10 57ZM76 57L76 58L78 58L78 57ZM26 60L26 61L28 61L28 60ZM60 60L60 61L61 61L61 60ZM62 60L62 61L63 61L63 63L64 63L64 62L65 62L65 61L64 61L64 60ZM7 61L7 62L10 62L10 63L9 63L9 64L10 64L10 63L11 63L11 62L10 62L10 61ZM23 61L23 62L22 62L22 63L21 63L21 64L20 64L20 65L21 65L21 66L24 66L24 65L23 65L23 64L25 64L25 65L27 65L27 66L26 66L26 67L27 67L27 66L28 66L28 67L30 67L30 66L29 66L29 65L30 65L30 64L29 64L29 65L27 65L27 64L28 64L28 63L27 63L27 64L25 64L25 62L24 62L24 61ZM23 62L23 63L24 63L24 62ZM55 62L55 63L56 63L56 62ZM83 62L83 63L84 63L84 65L83 65L83 64L82 64L82 65L83 65L83 66L82 66L82 67L83 67L83 66L84 66L84 65L86 65L86 64L85 64L85 63L84 63L84 62ZM7 63L7 64L6 64L6 65L7 65L7 64L8 64L8 63ZM68 63L68 64L67 64L67 65L68 65L68 64L69 64L69 63ZM11 64L11 65L12 65L12 64ZM21 64L21 65L22 65L22 64ZM36 64L36 65L37 65L37 64ZM1 65L1 66L2 66L2 65ZM48 65L48 66L49 66L49 65ZM57 65L57 66L58 66L58 65ZM34 66L34 67L35 67L35 66ZM40 66L40 67L41 67L41 66ZM65 66L65 68L68 68L68 67L66 67L66 66ZM48 67L48 68L49 68L49 67ZM51 67L51 68L52 68L52 69L50 69L50 70L51 70L51 71L50 71L50 72L49 72L49 73L50 73L50 74L52 74L52 73L51 73L51 72L52 72L52 70L53 70L53 71L54 71L54 70L55 70L55 69L58 69L58 70L56 70L56 71L58 71L58 70L59 70L59 69L60 69L60 68L55 68L55 69L54 69L54 68L52 68L52 67ZM69 67L69 70L68 70L68 69L66 69L66 70L64 70L64 71L66 71L66 72L63 72L63 74L65 74L65 73L66 73L66 72L68 72L68 71L69 71L69 70L70 70L70 69L71 69L71 68L70 68L70 67ZM24 68L24 69L25 69L25 68ZM15 69L15 71L14 71L14 72L15 72L15 73L16 73L16 72L15 72L15 71L16 71L16 69ZM28 69L28 71L29 71L29 69ZM61 69L61 70L62 70L62 69ZM6 70L6 71L9 71L9 70ZM20 70L20 71L21 71L21 72L19 72L19 73L20 73L20 74L21 74L21 73L22 73L22 74L23 74L23 73L22 73L22 72L23 72L23 71L22 71L22 70ZM35 70L35 72L33 72L33 73L34 73L34 74L33 74L33 75L34 75L34 74L35 74L35 73L36 73L36 72L37 72L37 74L39 74L39 73L38 73L38 72L37 72L37 71L38 71L38 70L37 70L37 71L36 71L36 70ZM66 70L66 71L67 71L67 70ZM42 71L42 72L43 72L43 71ZM17 72L17 73L18 73L18 72ZM31 72L31 73L30 73L30 74L31 74L31 73L32 73L32 72ZM6 73L6 74L7 74L7 73ZM56 73L56 74L57 74L57 76L58 76L58 77L56 77L56 78L58 78L58 79L59 79L59 80L61 80L61 79L63 79L63 78L61 78L61 77L60 77L60 78L61 78L61 79L59 79L59 78L58 78L58 77L59 77L59 76L63 76L63 77L64 77L64 78L65 78L65 79L66 79L66 78L65 78L65 77L64 77L64 76L63 76L63 75L62 75L62 74L61 74L61 75L60 75L60 74L59 74L59 73ZM16 74L16 75L17 75L17 74ZM18 74L18 76L20 76L20 75L19 75L19 74ZM26 74L26 75L27 75L27 74ZM67 75L67 76L68 76L68 75ZM77 75L77 76L78 76L78 75ZM82 75L82 76L81 76L81 77L82 77L82 79L83 79L83 77L84 77L84 78L85 78L85 77L84 77L84 75ZM0 76L0 81L1 81L1 80L2 80L2 79L1 79L1 76ZM26 76L26 77L25 77L25 78L24 78L24 80L25 80L25 78L26 78L26 79L28 79L28 78L26 78L26 77L28 77L28 76ZM82 76L82 77L83 77L83 76ZM6 77L6 78L4 78L4 79L6 79L6 80L8 80L8 79L6 79L6 78L7 78L7 77ZM12 77L12 78L10 78L10 79L13 79L13 77ZM43 77L43 78L42 78L42 79L43 79L43 80L44 80L44 79L43 79L43 78L44 78L44 77ZM15 78L15 79L16 79L16 78ZM76 79L76 80L75 80L75 81L76 81L76 80L77 80L77 79ZM49 80L49 81L50 81L50 82L49 82L49 83L50 83L50 84L49 84L49 85L50 85L50 86L49 86L49 87L48 87L48 88L49 88L49 87L50 87L50 86L51 86L51 85L50 85L50 84L52 84L52 85L53 85L53 84L52 84L52 83L54 83L54 81L53 81L53 80L52 80L52 81L53 81L53 82L52 82L52 83L50 83L50 82L51 82L51 80ZM71 80L71 81L72 81L72 80ZM78 80L78 81L79 81L79 80ZM29 81L29 84L32 84L32 81ZM55 81L55 84L58 84L58 81ZM67 81L67 82L68 82L68 81ZM81 81L81 84L84 84L84 81ZM85 81L85 82L87 82L87 81ZM15 82L15 83L14 83L14 84L15 84L15 83L16 83L16 82ZM30 82L30 83L31 83L31 82ZM56 82L56 83L57 83L57 82ZM82 82L82 83L83 83L83 82ZM33 83L33 84L34 84L34 83ZM42 83L42 84L43 84L43 83ZM65 83L65 84L66 84L66 83ZM19 84L19 85L20 85L20 84ZM61 84L61 85L62 85L62 84ZM67 84L67 85L68 85L68 84ZM55 85L55 86L56 86L56 85ZM65 85L65 86L66 86L66 85ZM82 85L82 86L83 86L83 87L84 87L84 86L85 86L85 85ZM86 85L86 88L87 88L87 85ZM28 86L28 87L29 87L29 86ZM37 87L37 88L36 88L36 89L38 89L38 87ZM57 87L57 88L58 88L58 87ZM68 87L68 88L69 88L69 87ZM75 88L75 89L77 89L77 88ZM0 0L0 7L7 7L7 0ZM1 1L1 6L6 6L6 1ZM2 2L2 5L5 5L5 2ZM82 0L82 7L89 7L89 0ZM83 1L83 6L88 6L88 1ZM84 2L84 5L87 5L87 2ZM0 82L0 89L7 89L7 82ZM1 83L1 88L6 88L6 83ZM2 84L2 87L5 87L5 84Z" fill="#000000"/></g></g></svg>
