<?xml version="1.0" encoding="UTF-8"?>
<svg xmlns="http://www.w3.org/2000/svg" version="1.1" width="400" height="400" viewBox="0 0 400 400"><rect x="0" y="0" width="400" height="400" fill="#ffffff"/><g transform="scale(12.121)"><g transform="translate(0,0)"><path fill-rule="evenodd" d="M9 0L9 1L8 1L8 2L9 2L9 3L8 3L8 4L10 4L10 7L11 7L11 4L12 4L12 5L13 5L13 6L12 6L12 9L14 9L14 8L13 8L13 6L14 6L14 7L15 7L15 9L16 9L16 10L15 10L15 12L12 12L12 11L14 11L14 10L11 10L11 11L10 11L10 9L11 9L11 8L6 8L6 9L9 9L9 12L8 12L8 10L5 10L5 8L0 8L0 9L1 9L1 10L2 10L2 11L1 11L1 12L2 12L2 13L1 13L1 14L0 14L0 15L2 15L2 16L3 16L3 17L1 17L1 16L0 16L0 18L1 18L1 19L0 19L0 25L1 25L1 21L3 21L3 17L4 17L4 19L5 19L5 17L8 17L8 18L6 18L6 19L8 19L8 20L10 20L10 18L9 18L9 17L10 17L10 16L9 16L9 15L10 15L10 14L11 14L11 13L12 13L12 14L13 14L13 13L15 13L15 12L16 12L16 14L14 14L14 15L15 15L15 16L13 16L13 17L16 17L16 18L14 18L14 20L13 20L13 18L12 18L12 16L11 16L11 18L12 18L12 19L11 19L11 20L12 20L12 21L11 21L11 22L10 22L10 23L11 23L11 22L14 22L14 23L15 23L15 24L13 24L13 23L12 23L12 24L10 24L10 25L8 25L8 27L9 27L9 26L10 26L10 28L13 28L13 29L14 29L14 30L13 30L13 31L15 31L15 32L12 32L12 33L21 33L21 32L23 32L23 33L25 33L25 32L26 32L26 31L27 31L27 30L29 30L29 31L28 31L28 33L32 33L32 32L31 32L31 31L32 31L32 30L29 30L29 29L30 29L30 28L31 28L31 27L32 27L32 26L33 26L33 23L31 23L31 21L29 21L29 20L31 20L31 19L32 19L32 20L33 20L33 19L32 19L32 18L33 18L33 17L32 17L32 16L31 16L31 15L32 15L32 14L33 14L33 13L32 13L32 10L33 10L33 9L32 9L32 8L31 8L31 9L32 9L32 10L30 10L30 8L29 8L29 10L28 10L28 8L27 8L27 9L26 9L26 8L25 8L25 9L23 9L23 10L20 10L20 9L21 9L21 8L24 8L24 7L25 7L25 4L23 4L23 2L22 2L22 0L18 0L18 1L15 1L15 4L14 4L14 3L13 3L13 4L12 4L12 2L14 2L14 1L11 1L11 2L10 2L10 0ZM23 0L23 1L24 1L24 2L25 2L25 1L24 1L24 0ZM19 1L19 2L17 2L17 3L16 3L16 4L15 4L15 5L14 5L14 6L15 6L15 7L16 7L16 8L18 8L18 9L17 9L17 10L18 10L18 9L20 9L20 5L21 5L21 7L22 7L22 6L23 6L23 7L24 7L24 5L23 5L23 4L22 4L22 3L21 3L21 2L20 2L20 1ZM10 3L10 4L11 4L11 3ZM17 3L17 4L16 4L16 5L15 5L15 6L16 6L16 7L17 7L17 6L18 6L18 7L19 7L19 5L20 5L20 4L21 4L21 5L22 5L22 4L21 4L21 3L20 3L20 4L18 4L18 3ZM17 4L17 5L16 5L16 6L17 6L17 5L18 5L18 4ZM8 5L8 7L9 7L9 5ZM2 9L2 10L3 10L3 9ZM25 9L25 10L23 10L23 12L21 12L21 11L20 11L20 10L19 10L19 12L18 12L18 11L16 11L16 12L18 12L18 13L17 13L17 14L16 14L16 15L17 15L17 16L20 16L20 18L19 18L19 17L17 17L17 18L16 18L16 19L15 19L15 20L16 20L16 21L14 21L14 22L16 22L16 23L17 23L17 24L15 24L15 25L14 25L14 26L13 26L13 24L12 24L12 26L11 26L11 25L10 25L10 26L11 26L11 27L12 27L12 26L13 26L13 28L14 28L14 27L15 27L15 28L16 28L16 29L15 29L15 30L16 30L16 31L17 31L17 32L18 32L18 31L19 31L19 32L21 32L21 30L24 30L24 27L23 27L23 25L24 25L24 22L22 22L22 21L27 21L27 23L26 23L26 22L25 22L25 23L26 23L26 24L27 24L27 23L29 23L29 21L27 21L27 20L29 20L29 19L31 19L31 18L32 18L32 17L31 17L31 16L30 16L30 17L31 17L31 18L29 18L29 17L28 17L28 19L27 19L27 18L26 18L26 17L27 17L27 15L26 15L26 14L23 14L23 15L22 15L22 16L20 16L20 14L18 14L18 13L23 13L23 12L25 12L25 13L28 13L28 14L32 14L32 13L31 13L31 12L29 12L29 13L28 13L28 12L26 12L26 11L27 11L27 10L26 10L26 9ZM29 10L29 11L30 11L30 10ZM3 11L3 13L2 13L2 14L4 14L4 12L5 12L5 11ZM6 11L6 12L7 12L7 11ZM10 12L10 13L9 13L9 14L8 14L8 13L5 13L5 16L4 16L4 15L3 15L3 16L4 16L4 17L5 17L5 16L8 16L8 15L9 15L9 14L10 14L10 13L11 13L11 12ZM6 14L6 15L8 15L8 14ZM24 15L24 16L22 16L22 17L21 17L21 18L20 18L20 19L19 19L19 18L18 18L18 20L17 20L17 21L18 21L18 22L20 22L20 23L19 23L19 24L17 24L17 25L19 25L19 26L20 26L20 25L21 25L21 26L22 26L22 25L23 25L23 24L22 24L22 22L20 22L20 21L21 21L21 20L22 20L22 19L23 19L23 18L25 18L25 17L26 17L26 15ZM28 15L28 16L29 16L29 15ZM24 16L24 17L25 17L25 16ZM22 17L22 18L21 18L21 19L20 19L20 20L18 20L18 21L20 21L20 20L21 20L21 19L22 19L22 18L23 18L23 17ZM8 18L8 19L9 19L9 18ZM1 19L1 20L2 20L2 19ZM25 19L25 20L26 20L26 19ZM5 20L5 21L7 21L7 20ZM32 21L32 22L33 22L33 21ZM3 22L3 23L2 23L2 24L3 24L3 25L4 25L4 24L3 24L3 23L4 23L4 22ZM6 22L6 23L7 23L7 24L5 24L5 25L7 25L7 24L8 24L8 23L9 23L9 22L8 22L8 23L7 23L7 22ZM20 23L20 24L19 24L19 25L20 25L20 24L21 24L21 25L22 25L22 24L21 24L21 23ZM30 24L30 25L29 25L29 27L31 27L31 26L30 26L30 25L32 25L32 24ZM25 25L25 28L28 28L28 25ZM15 26L15 27L16 27L16 26ZM26 26L26 27L27 27L27 26ZM18 27L18 28L17 28L17 29L18 29L18 30L17 30L17 31L18 31L18 30L20 30L20 29L21 29L21 28L23 28L23 27L21 27L21 28L20 28L20 29L18 29L18 28L19 28L19 27ZM8 28L8 33L9 33L9 31L10 31L10 32L11 32L11 31L10 31L10 30L9 30L9 28ZM32 28L32 29L33 29L33 28ZM11 29L11 30L12 30L12 29ZM26 29L26 30L25 30L25 31L23 31L23 32L25 32L25 31L26 31L26 30L27 30L27 29ZM0 0L0 7L7 7L7 0ZM1 1L1 6L6 6L6 1ZM2 2L2 5L5 5L5 2ZM26 0L26 7L33 7L33 0ZM27 1L27 6L32 6L32 1ZM28 2L28 5L31 5L31 2ZM0 26L0 33L7 33L7 26ZM1 27L1 32L6 32L6 27ZM2 28L2 31L5 31L5 28Z" fill="#000000"/></g></g></svg>
