<?xml version="1.0" encoding="UTF-8"?>
<svg xmlns="http://www.w3.org/2000/svg" version="1.1" width="400" height="400" viewBox="0 0 400 400"><rect x="0" y="0" width="400" height="400" fill="#ffffff"/><g transform="scale(13.793)"><g transform="translate(0,0)"><path fill-rule="evenodd" d="M8 0L8 4L10 4L10 3L11 3L11 4L12 4L12 2L11 2L11 0ZM12 0L12 1L13 1L13 0ZM14 0L14 1L15 1L15 0ZM20 0L20 1L18 1L18 2L17 2L17 3L18 3L18 2L19 2L19 3L20 3L20 5L19 5L19 4L17 4L17 5L19 5L19 6L18 6L18 7L17 7L17 6L16 6L16 7L15 7L15 5L16 5L16 2L15 2L15 3L14 3L14 2L13 2L13 3L14 3L14 4L13 4L13 5L11 5L11 6L10 6L10 7L9 7L9 5L8 5L8 7L9 7L9 8L10 8L10 7L11 7L11 6L12 6L12 8L11 8L11 9L7 9L7 8L4 8L4 10L3 10L3 9L2 9L2 8L0 8L0 9L2 9L2 10L0 10L0 11L1 11L1 12L0 12L0 14L1 14L1 15L0 15L0 18L2 18L2 20L0 20L0 21L2 21L2 20L3 20L3 21L4 21L4 20L6 20L6 21L7 21L7 20L6 20L6 19L8 19L8 22L9 22L9 23L8 23L8 25L9 25L9 26L10 26L10 27L8 27L8 29L10 29L10 27L11 27L11 28L12 28L12 29L14 29L14 27L16 27L16 28L17 28L17 29L18 29L18 27L17 27L17 26L16 26L16 25L18 25L18 26L19 26L19 29L21 29L21 27L22 27L22 29L24 29L24 28L23 28L23 27L24 27L24 25L25 25L25 23L26 23L26 22L27 22L27 25L26 25L26 26L25 26L25 27L26 27L26 26L27 26L27 29L28 29L28 28L29 28L29 25L28 25L28 24L29 24L29 13L28 13L28 17L26 17L26 13L24 13L24 12L25 12L25 11L22 11L22 10L23 10L23 9L24 9L24 10L27 10L27 12L28 12L28 11L29 11L29 8L25 8L25 9L24 9L24 8L23 8L23 9L21 9L21 3L20 3L20 2L21 2L21 0ZM9 2L9 3L10 3L10 2ZM13 6L13 8L12 8L12 9L11 9L11 10L8 10L8 11L9 11L9 12L8 12L8 13L5 13L5 12L4 12L4 11L3 11L3 13L5 13L5 14L8 14L8 15L9 15L9 14L10 14L10 17L9 17L9 16L8 16L8 18L9 18L9 19L11 19L11 18L12 18L12 17L13 17L13 18L15 18L15 17L17 17L17 18L16 18L16 19L18 19L18 20L21 20L21 19L22 19L22 18L21 18L21 19L20 19L20 14L21 14L21 17L23 17L23 20L25 20L25 19L24 19L24 17L25 17L25 14L24 14L24 13L23 13L23 12L21 12L21 11L20 11L20 10L21 10L21 9L17 9L17 7L16 7L16 8L15 8L15 9L13 9L13 8L14 8L14 6ZM19 6L19 8L20 8L20 6ZM5 9L5 10L7 10L7 9ZM12 9L12 10L11 10L11 11L10 11L10 13L11 13L11 12L12 12L12 13L13 13L13 14L15 14L15 15L14 15L14 16L13 16L13 15L12 15L12 16L11 16L11 17L12 17L12 16L13 16L13 17L15 17L15 15L16 15L16 16L17 16L17 17L19 17L19 16L18 16L18 15L19 15L19 14L18 14L18 15L17 15L17 14L16 14L16 13L21 13L21 12L18 12L18 11L19 11L19 10L18 10L18 11L17 11L17 9L15 9L15 10L13 10L13 9ZM6 11L6 12L7 12L7 11ZM12 11L12 12L13 12L13 11ZM14 11L14 13L16 13L16 12L17 12L17 11L16 11L16 12L15 12L15 11ZM1 12L1 14L2 14L2 12ZM8 13L8 14L9 14L9 13ZM22 13L22 14L23 14L23 15L22 15L22 16L23 16L23 17L24 17L24 14L23 14L23 13ZM1 15L1 16L2 16L2 18L3 18L3 20L4 20L4 18L5 18L5 17L6 17L6 18L7 18L7 17L6 17L6 16L7 16L7 15L6 15L6 16L5 16L5 15L4 15L4 16L2 16L2 15ZM3 17L3 18L4 18L4 17ZM18 18L18 19L19 19L19 18ZM26 18L26 21L25 21L25 22L26 22L26 21L28 21L28 19L27 19L27 18ZM12 19L12 20L11 20L11 22L10 22L10 21L9 21L9 22L10 22L10 23L9 23L9 25L10 25L10 26L12 26L12 25L13 25L13 26L15 26L15 25L13 25L13 24L14 24L14 23L15 23L15 22L13 22L13 21L12 21L12 20L13 20L13 19ZM14 19L14 21L17 21L17 22L16 22L16 23L17 23L17 22L18 22L18 23L19 23L19 24L18 24L18 25L19 25L19 26L20 26L20 27L21 27L21 25L19 25L19 24L20 24L20 23L19 23L19 22L20 22L20 21L17 21L17 20L15 20L15 19ZM21 21L21 24L24 24L24 21ZM22 22L22 23L23 23L23 22ZM12 23L12 24L11 24L11 25L12 25L12 24L13 24L13 23ZM22 25L22 27L23 27L23 25ZM27 25L27 26L28 26L28 25ZM12 27L12 28L13 28L13 27ZM25 28L25 29L26 29L26 28ZM0 0L0 7L7 7L7 0ZM1 1L1 6L6 6L6 1ZM2 2L2 5L5 5L5 2ZM22 0L22 7L29 7L29 0ZM23 1L23 6L28 6L28 1ZM24 2L24 5L27 5L27 2ZM0 22L0 29L7 29L7 22ZM1 23L1 28L6 28L6 23ZM2 24L2 27L5 27L5 24Z" fill="#000000"/></g></g></svg>
