<?xml version="1.0" encoding="UTF-8"?>
<svg xmlns="http://www.w3.org/2000/svg" version="1.1" width="400" height="400" viewBox="0 0 400 400"><rect x="0" y="0" width="400" height="400" fill="#ffffff"/><g transform="scale(13.793)"><g transform="translate(0,0)"><path fill-rule="evenodd" d="M8 0L8 1L9 1L9 2L8 2L8 5L9 5L9 4L11 4L11 5L10 5L10 10L9 10L9 12L8 12L8 10L6 10L6 9L7 9L7 8L6 8L6 9L5 9L5 10L6 10L6 11L4 11L4 10L3 10L3 9L4 9L4 8L0 8L0 11L1 11L1 9L2 9L2 12L3 12L3 11L4 11L4 13L0 13L0 14L3 14L3 19L2 19L2 20L1 20L1 21L2 21L2 20L3 20L3 21L5 21L5 20L6 20L6 21L8 21L8 22L9 22L9 20L12 20L12 19L11 19L11 16L12 16L12 17L13 17L13 16L12 16L12 14L13 14L13 15L14 15L14 18L13 18L13 21L15 21L15 19L16 19L16 20L17 20L17 21L18 21L18 23L19 23L19 24L17 24L17 23L16 23L16 25L15 25L15 26L14 26L14 25L13 25L13 26L12 26L12 24L15 24L15 22L14 22L14 23L11 23L11 22L10 22L10 23L9 23L9 24L10 24L10 26L12 26L12 28L11 28L11 29L12 29L12 28L14 28L14 27L15 27L15 28L16 28L16 29L17 29L17 28L16 28L16 27L17 27L17 26L18 26L18 27L19 27L19 28L20 28L20 29L22 29L22 26L21 26L21 25L24 25L24 26L25 26L25 25L26 25L26 26L27 26L27 24L26 24L26 23L27 23L27 20L28 20L28 17L29 17L29 16L28 16L28 17L27 17L27 19L26 19L26 18L24 18L24 17L25 17L25 16L26 16L26 15L29 15L29 13L28 13L28 12L29 12L29 11L28 11L28 10L29 10L29 8L28 8L28 9L27 9L27 8L24 8L24 11L21 11L21 12L20 12L20 11L19 11L19 10L21 10L21 9L22 9L22 10L23 10L23 9L22 9L22 8L21 8L21 9L20 9L20 8L19 8L19 6L20 6L20 7L21 7L21 3L20 3L20 2L21 2L21 1L20 1L20 0L19 0L19 1L20 1L20 2L19 2L19 3L17 3L17 2L18 2L18 1L17 1L17 2L16 2L16 4L15 4L15 3L14 3L14 5L13 5L13 3L12 3L12 4L11 4L11 2L14 2L14 0L12 0L12 1L11 1L11 0L10 0L10 1L9 1L9 0ZM15 0L15 1L16 1L16 0ZM19 3L19 4L16 4L16 5L14 5L14 6L13 6L13 5L12 5L12 6L11 6L11 8L12 8L12 6L13 6L13 8L14 8L14 9L15 9L15 10L14 10L14 11L11 11L11 13L10 13L10 15L9 15L9 13L6 13L6 12L7 12L7 11L6 11L6 12L5 12L5 13L4 13L4 19L3 19L3 20L5 20L5 19L6 19L6 20L9 20L9 19L10 19L10 18L9 18L9 17L10 17L10 16L11 16L11 13L12 13L12 12L13 12L13 14L14 14L14 15L15 15L15 17L16 17L16 18L17 18L17 19L18 19L18 20L25 20L25 22L26 22L26 19L23 19L23 14L22 14L22 13L23 13L23 12L22 12L22 13L21 13L21 14L22 14L22 15L21 15L21 17L19 17L19 16L20 16L20 15L18 15L18 14L17 14L17 13L16 13L16 14L14 14L14 12L15 12L15 11L16 11L16 12L19 12L19 11L18 11L18 10L19 10L19 8L18 8L18 9L17 9L17 8L15 8L15 7L16 7L16 6L17 6L17 7L18 7L18 5L19 5L19 4L20 4L20 3ZM8 6L8 7L9 7L9 6ZM14 6L14 7L15 7L15 6ZM8 8L8 9L9 9L9 8ZM11 9L11 10L12 10L12 9ZM26 9L26 10L27 10L27 9ZM24 11L24 15L25 15L25 13L26 13L26 12L27 12L27 11ZM5 13L5 18L6 18L6 19L8 19L8 17L9 17L9 16L8 16L8 14L6 14L6 13ZM27 13L27 14L28 14L28 13ZM16 14L16 15L17 15L17 14ZM1 15L1 16L0 16L0 17L1 17L1 16L2 16L2 15ZM6 15L6 16L7 16L7 17L6 17L6 18L7 18L7 17L8 17L8 16L7 16L7 15ZM18 17L18 19L19 19L19 17ZM21 17L21 18L20 18L20 19L21 19L21 18L22 18L22 17ZM0 18L0 19L1 19L1 18ZM21 21L21 24L24 24L24 21ZM28 21L28 22L29 22L29 21ZM22 22L22 23L23 23L23 22ZM28 23L28 24L29 24L29 23ZM19 24L19 25L20 25L20 24ZM8 25L8 29L9 29L9 25ZM16 25L16 26L15 26L15 27L16 27L16 26L17 26L17 25ZM28 25L28 27L27 27L27 29L28 29L28 27L29 27L29 25ZM13 26L13 27L14 27L14 26ZM19 26L19 27L21 27L21 26ZM23 27L23 28L24 28L24 29L25 29L25 27ZM0 0L0 7L7 7L7 0ZM1 1L1 6L6 6L6 1ZM2 2L2 5L5 5L5 2ZM22 0L22 7L29 7L29 0ZM23 1L23 6L28 6L28 1ZM24 2L24 5L27 5L27 2ZM0 22L0 29L7 29L7 22ZM1 23L1 28L6 28L6 23ZM2 24L2 27L5 27L5 24Z" fill="#000000"/></g></g></svg>
