<?xml version="1.0" encoding="UTF-8"?>
<svg xmlns="http://www.w3.org/2000/svg" version="1.1" width="400" height="400" viewBox="0 0 400 400"><rect x="0" y="0" width="400" height="400" fill="#ffffff"/><g transform="scale(13.793)"><g transform="translate(0,0)"><path fill-rule="evenodd" d="M9 0L9 1L8 1L8 3L9 3L9 4L8 4L8 8L6 8L6 9L4 9L4 8L3 8L3 9L2 9L2 8L0 8L0 9L2 9L2 10L3 10L3 9L4 9L4 10L6 10L6 11L7 11L7 12L6 12L6 13L7 13L7 14L5 14L5 13L2 13L2 12L1 12L1 11L0 11L0 14L5 14L5 15L2 15L2 21L4 21L4 20L5 20L5 21L8 21L8 23L9 23L9 21L10 21L10 24L9 24L9 25L8 25L8 26L9 26L9 25L10 25L10 27L8 27L8 29L11 29L11 28L12 28L12 29L14 29L14 28L12 28L12 24L14 24L14 25L13 25L13 27L15 27L15 24L16 24L16 25L17 25L17 29L18 29L18 24L19 24L19 23L18 23L18 24L17 24L17 22L20 22L20 25L19 25L19 26L20 26L20 25L21 25L21 27L19 27L19 28L20 28L20 29L21 29L21 27L22 27L22 26L23 26L23 27L25 27L25 29L26 29L26 27L25 27L25 26L26 26L26 25L25 25L25 22L26 22L26 24L27 24L27 26L28 26L28 27L27 27L27 29L28 29L28 27L29 27L29 26L28 26L28 25L29 25L29 24L28 24L28 23L27 23L27 22L26 22L26 21L27 21L27 20L26 20L26 18L27 18L27 17L26 17L26 16L25 16L25 18L23 18L23 17L24 17L24 15L25 15L25 14L26 14L26 13L25 13L25 14L23 14L23 17L22 17L22 18L21 18L21 15L22 15L22 13L23 13L23 12L24 12L24 11L25 11L25 10L26 10L26 12L28 12L28 13L27 13L27 15L29 15L29 14L28 14L28 13L29 13L29 11L28 11L28 10L29 10L29 9L28 9L28 8L26 8L26 9L25 9L25 8L22 8L22 10L19 10L19 9L21 9L21 8L19 8L19 6L20 6L20 7L21 7L21 6L20 6L20 5L19 5L19 4L20 4L20 2L21 2L21 1L20 1L20 0L18 0L18 2L17 2L17 3L19 3L19 4L16 4L16 3L14 3L14 2L16 2L16 1L17 1L17 0L16 0L16 1L15 1L15 0L12 0L12 1L11 1L11 2L9 2L9 1L10 1L10 0ZM19 1L19 2L20 2L20 1ZM12 3L12 4L9 4L9 5L10 5L10 6L9 6L9 7L10 7L10 8L8 8L8 10L7 10L7 9L6 9L6 10L7 10L7 11L9 11L9 12L7 12L7 13L12 13L12 12L13 12L13 15L15 15L15 17L13 17L13 16L12 16L12 14L10 14L10 15L9 15L9 14L7 14L7 15L6 15L6 16L3 16L3 18L5 18L5 17L6 17L6 18L8 18L8 16L9 16L9 17L10 17L10 16L12 16L12 17L11 17L11 19L10 19L10 18L9 18L9 20L8 20L8 19L6 19L6 20L8 20L8 21L9 21L9 20L10 20L10 21L11 21L11 19L12 19L12 20L13 20L13 21L14 21L14 22L15 22L15 23L14 23L14 24L15 24L15 23L16 23L16 22L17 22L17 21L18 21L18 20L19 20L19 21L20 21L20 20L21 20L21 18L20 18L20 16L19 16L19 15L20 15L20 14L21 14L21 13L22 13L22 11L23 11L23 10L22 10L22 11L21 11L21 12L20 12L20 14L19 14L19 12L18 12L18 11L19 11L19 10L17 10L17 9L18 9L18 8L16 8L16 6L15 6L15 8L14 8L14 6L13 6L13 3ZM11 5L11 6L10 6L10 7L11 7L11 6L12 6L12 8L13 8L13 6L12 6L12 5ZM17 5L17 7L18 7L18 5ZM10 8L10 10L9 10L9 11L11 11L11 10L12 10L12 9L11 9L11 8ZM14 9L14 10L15 10L15 9ZM24 9L24 10L25 10L25 9ZM26 9L26 10L27 10L27 9ZM4 11L4 12L5 12L5 11ZM14 11L14 12L17 12L17 13L16 13L16 17L18 17L18 12L17 12L17 11ZM7 15L7 16L6 16L6 17L7 17L7 16L8 16L8 15ZM0 16L0 17L1 17L1 16ZM28 16L28 20L29 20L29 16ZM0 18L0 19L1 19L1 18ZM13 18L13 20L14 20L14 21L16 21L16 20L18 20L18 18L17 18L17 19L15 19L15 20L14 20L14 18ZM3 19L3 20L4 20L4 19ZM24 19L24 20L25 20L25 21L26 21L26 20L25 20L25 19ZM0 20L0 21L1 21L1 20ZM21 21L21 24L24 24L24 21ZM28 21L28 22L29 22L29 21ZM22 22L22 23L23 23L23 22ZM23 25L23 26L24 26L24 25ZM22 28L22 29L24 29L24 28ZM0 0L0 7L7 7L7 0ZM1 1L1 6L6 6L6 1ZM2 2L2 5L5 5L5 2ZM22 0L22 7L29 7L29 0ZM23 1L23 6L28 6L28 1ZM24 2L24 5L27 5L27 2ZM0 22L0 29L7 29L7 22ZM1 23L1 28L6 28L6 23ZM2 24L2 27L5 27L5 24Z" fill="#000000"/></g></g></svg>
