<?xml version="1.0" encoding="UTF-8"?>
<svg xmlns="http://www.w3.org/2000/svg" version="1.1" width="400" height="400" viewBox="0 0 400 400"><rect x="0" y="0" width="400" height="400" fill="#ffffff"/><g transform="scale(13.793)"><g transform="translate(0,0)"><path fill-rule="evenodd" d="M8 0L8 1L9 1L9 2L10 2L10 3L11 3L11 1L13 1L13 0L11 0L11 1L9 1L9 0ZM14 0L14 1L19 1L19 2L18 2L18 3L17 3L17 2L15 2L15 3L17 3L17 4L18 4L18 5L17 5L17 6L16 6L16 8L15 8L15 11L16 11L16 12L15 12L15 13L14 13L14 7L15 7L15 6L14 6L14 7L13 7L13 5L12 5L12 4L13 4L13 2L12 2L12 4L11 4L11 5L10 5L10 4L9 4L9 5L10 5L10 8L9 8L9 6L8 6L8 8L9 8L9 10L10 10L10 11L9 11L9 12L8 12L8 11L7 11L7 10L6 10L6 11L7 11L7 12L5 12L5 14L6 14L6 15L4 15L4 13L3 13L3 15L2 15L2 13L0 13L0 14L1 14L1 15L0 15L0 21L3 21L3 20L4 20L4 21L5 21L5 18L6 18L6 19L8 19L8 22L9 22L9 20L11 20L11 19L12 19L12 21L14 21L14 24L13 24L13 25L12 25L12 26L13 26L13 25L15 25L15 26L14 26L14 27L12 27L12 28L9 28L9 27L10 27L10 26L9 26L9 24L10 24L10 25L11 25L11 24L10 24L10 23L9 23L9 24L8 24L8 26L9 26L9 27L8 27L8 29L13 29L13 28L15 28L15 29L16 29L16 28L17 28L17 27L16 27L16 25L15 25L15 23L16 23L16 24L18 24L18 25L20 25L20 26L18 26L18 27L19 27L19 28L20 28L20 29L22 29L22 28L25 28L25 27L26 27L26 28L27 28L27 27L28 27L28 28L29 28L29 23L28 23L28 19L29 19L29 18L28 18L28 19L26 19L26 16L27 16L27 17L28 17L28 16L29 16L29 12L28 12L28 11L27 11L27 9L24 9L24 10L26 10L26 11L27 11L27 13L26 13L26 14L25 14L25 13L24 13L24 14L23 14L23 12L25 12L25 11L23 11L23 12L22 12L22 9L23 9L23 8L22 8L22 9L21 9L21 6L20 6L20 7L19 7L19 6L18 6L18 5L20 5L20 4L21 4L21 3L20 3L20 1L19 1L19 0ZM19 3L19 4L20 4L20 3ZM14 4L14 5L15 5L15 4ZM11 5L11 7L12 7L12 9L10 9L10 10L12 10L12 11L13 11L13 10L12 10L12 9L13 9L13 7L12 7L12 5ZM17 6L17 8L19 8L19 9L16 9L16 10L18 10L18 11L19 11L19 13L18 13L18 12L17 12L17 14L16 14L16 15L17 15L17 16L16 16L16 18L17 18L17 20L16 20L16 21L17 21L17 22L16 22L16 23L17 23L17 22L18 22L18 24L20 24L20 23L19 23L19 22L18 22L18 21L19 21L19 17L18 17L18 16L21 16L21 15L23 15L23 16L22 16L22 18L21 18L21 17L20 17L20 18L21 18L21 19L20 19L20 20L23 20L23 19L22 19L22 18L24 18L24 17L25 17L25 16L26 16L26 15L27 15L27 14L26 14L26 15L25 15L25 16L24 16L24 15L23 15L23 14L22 14L22 13L21 13L21 11L20 11L20 10L19 10L19 9L20 9L20 8L19 8L19 7L18 7L18 6ZM0 8L0 9L1 9L1 10L2 10L2 11L1 11L1 12L2 12L2 11L5 11L5 8L3 8L3 10L2 10L2 8ZM6 8L6 9L7 9L7 8ZM28 8L28 9L29 9L29 8ZM7 12L7 13L6 13L6 14L7 14L7 15L6 15L6 16L7 16L7 17L6 17L6 18L7 18L7 17L8 17L8 18L9 18L9 19L11 19L11 18L9 18L9 17L14 17L14 16L15 16L15 14L14 14L14 15L12 15L12 16L11 16L11 14L13 14L13 13L11 13L11 12L10 12L10 14L9 14L9 13L8 13L8 12ZM20 13L20 14L18 14L18 15L21 15L21 13ZM1 15L1 18L2 18L2 20L3 20L3 19L4 19L4 17L5 17L5 16L4 16L4 15L3 15L3 16L2 16L2 15ZM7 15L7 16L8 16L8 17L9 17L9 16L8 16L8 15ZM3 16L3 17L4 17L4 16ZM23 16L23 17L24 17L24 16ZM17 17L17 18L18 18L18 17ZM12 18L12 19L13 19L13 20L14 20L14 19L15 19L15 18ZM6 20L6 21L7 21L7 20ZM17 20L17 21L18 21L18 20ZM25 20L25 21L26 21L26 20ZM21 21L21 24L24 24L24 21ZM12 22L12 23L13 23L13 22ZM22 22L22 23L23 23L23 22ZM26 22L26 23L25 23L25 25L24 25L24 26L23 26L23 25L21 25L21 27L20 27L20 28L22 28L22 27L24 27L24 26L26 26L26 25L27 25L27 26L28 26L28 23L27 23L27 22ZM0 0L0 7L7 7L7 0ZM1 1L1 6L6 6L6 1ZM2 2L2 5L5 5L5 2ZM22 0L22 7L29 7L29 0ZM23 1L23 6L28 6L28 1ZM24 2L24 5L27 5L27 2ZM0 22L0 29L7 29L7 22ZM1 23L1 28L6 28L6 23ZM2 24L2 27L5 27L5 24Z" fill="#000000"/></g></g></svg>
