<?xml version="1.0" encoding="UTF-8"?>
<svg xmlns="http://www.w3.org/2000/svg" version="1.1" width="400" height="400" viewBox="0 0 400 400"><rect x="0" y="0" width="400" height="400" fill="#ffffff"/><g transform="scale(13.793)"><g transform="translate(0,0)"><path fill-rule="evenodd" d="M8 0L8 4L10 4L10 3L11 3L11 4L12 4L12 2L11 2L11 0ZM12 0L12 1L13 1L13 0ZM14 0L14 1L15 1L15 0ZM17 0L17 1L16 1L16 2L15 2L15 3L14 3L14 2L13 2L13 3L14 3L14 4L13 4L13 5L11 5L11 6L10 6L10 7L9 7L9 5L8 5L8 7L9 7L9 8L10 8L10 7L11 7L11 6L12 6L12 8L11 8L11 9L9 9L9 10L11 10L11 11L10 11L10 13L7 13L7 12L9 12L9 11L8 11L8 10L6 10L6 9L7 9L7 8L4 8L4 9L2 9L2 8L0 8L0 9L2 9L2 10L1 10L1 11L0 11L0 12L2 12L2 13L5 13L5 15L7 15L7 14L8 14L8 16L5 16L5 17L4 17L4 15L3 15L3 14L2 14L2 16L1 16L1 17L0 17L0 18L2 18L2 17L3 17L3 19L2 19L2 20L0 20L0 21L3 21L3 19L7 19L7 20L6 20L6 21L8 21L8 22L9 22L9 23L8 23L8 25L9 25L9 27L8 27L8 29L10 29L10 25L9 25L9 23L11 23L11 22L10 22L10 20L9 20L9 21L8 21L8 19L9 19L9 18L8 18L8 16L10 16L10 18L11 18L11 20L12 20L12 21L13 21L13 22L15 22L15 23L14 23L14 24L13 24L13 23L12 23L12 24L11 24L11 25L12 25L12 26L11 26L11 28L12 28L12 29L14 29L14 27L16 27L16 28L17 28L17 29L18 29L18 27L16 27L16 25L19 25L19 27L20 27L20 29L24 29L24 28L23 28L23 27L20 27L20 26L21 26L21 25L25 25L25 26L26 26L26 27L27 27L27 29L28 29L28 28L29 28L29 25L28 25L28 24L29 24L29 17L28 17L28 21L26 21L26 23L25 23L25 20L23 20L23 17L24 17L24 18L25 18L25 19L26 19L26 18L27 18L27 17L24 17L24 15L26 15L26 14L27 14L27 15L28 15L28 16L29 16L29 13L26 13L26 14L25 14L25 13L24 13L24 11L23 11L23 10L25 10L25 9L26 9L26 10L27 10L27 9L28 9L28 11L29 11L29 8L25 8L25 9L24 9L24 8L23 8L23 9L22 9L22 11L21 11L21 9L20 9L20 8L19 8L19 6L20 6L20 7L21 7L21 6L20 6L20 5L21 5L21 3L20 3L20 5L19 5L19 4L17 4L17 5L16 5L16 4L15 4L15 3L19 3L19 2L20 2L20 1L21 1L21 0L20 0L20 1L18 1L18 0ZM17 1L17 2L18 2L18 1ZM9 2L9 3L10 3L10 2ZM15 5L15 9L13 9L13 8L14 8L14 6L13 6L13 8L12 8L12 9L11 9L11 10L12 10L12 9L13 9L13 10L15 10L15 9L17 9L17 10L18 10L18 9L19 9L19 12L18 12L18 13L17 13L17 12L16 12L16 11L14 11L14 13L17 13L17 14L18 14L18 13L19 13L19 15L18 15L18 17L16 17L16 16L17 16L17 15L15 15L15 14L13 14L13 13L12 13L12 12L13 12L13 11L12 11L12 12L11 12L11 13L10 13L10 16L12 16L12 17L11 17L11 18L12 18L12 17L13 17L13 18L15 18L15 17L16 17L16 19L14 19L14 21L16 21L16 23L15 23L15 25L13 25L13 24L12 24L12 25L13 25L13 26L15 26L15 25L16 25L16 23L18 23L18 24L20 24L20 23L19 23L19 22L20 22L20 21L16 21L16 19L17 19L17 18L18 18L18 17L19 17L19 20L21 20L21 19L22 19L22 18L21 18L21 19L20 19L20 13L21 13L21 17L23 17L23 16L22 16L22 15L23 15L23 14L24 14L24 13L23 13L23 11L22 11L22 12L21 12L21 11L20 11L20 9L19 9L19 8L18 8L18 9L17 9L17 8L16 8L16 5ZM17 5L17 7L18 7L18 6L19 6L19 5ZM4 9L4 10L5 10L5 9ZM2 11L2 12L5 12L5 13L6 13L6 14L7 14L7 13L6 13L6 12L7 12L7 11L6 11L6 12L5 12L5 11ZM22 13L22 14L23 14L23 13ZM0 14L0 15L1 15L1 14ZM12 15L12 16L13 16L13 17L15 17L15 15L14 15L14 16L13 16L13 15ZM5 17L5 18L7 18L7 19L8 19L8 18L7 18L7 17ZM12 19L12 20L13 20L13 19ZM4 20L4 21L5 21L5 20ZM21 21L21 24L24 24L24 21ZM22 22L22 23L23 23L23 22ZM26 23L26 25L27 25L27 26L28 26L28 25L27 25L27 23ZM12 27L12 28L13 28L13 27ZM25 28L25 29L26 29L26 28ZM0 0L0 7L7 7L7 0ZM1 1L1 6L6 6L6 1ZM2 2L2 5L5 5L5 2ZM22 0L22 7L29 7L29 0ZM23 1L23 6L28 6L28 1ZM24 2L24 5L27 5L27 2ZM0 22L0 29L7 29L7 22ZM1 23L1 28L6 28L6 23ZM2 24L2 27L5 27L5 24Z" fill="#000000"/></g></g></svg>
