<?xml version="1.0" encoding="UTF-8"?>
<svg xmlns="http://www.w3.org/2000/svg" version="1.1" width="400" height="400" viewBox="0 0 400 400"><rect x="0" y="0" width="400" height="400" fill="#ffffff"/><g transform="scale(12.121)"><g transform="translate(0,0)"><path fill-rule="evenodd" d="M9 0L9 1L8 1L8 2L9 2L9 3L8 3L8 4L10 4L10 7L11 7L11 4L12 4L12 5L13 5L13 6L12 6L12 9L13 9L13 10L11 10L11 11L10 11L10 9L11 9L11 8L6 8L6 9L5 9L5 8L0 8L0 10L1 10L1 11L0 11L0 14L1 14L1 15L0 15L0 17L1 17L1 18L0 18L0 25L1 25L1 22L5 22L5 23L4 23L4 25L8 25L8 27L9 27L9 26L10 26L10 27L11 27L11 29L12 29L12 30L13 30L13 31L12 31L12 33L13 33L13 32L14 32L14 33L15 33L15 32L16 32L16 33L18 33L18 32L19 32L19 31L18 31L18 32L16 32L16 31L17 31L17 29L18 29L18 28L19 28L19 30L20 30L20 29L21 29L21 28L23 28L23 27L24 27L24 29L23 29L23 30L21 30L21 32L20 32L20 33L21 33L21 32L24 32L24 33L26 33L26 32L27 32L27 33L28 33L28 32L29 32L29 31L28 31L28 30L29 30L29 29L30 29L30 28L31 28L31 30L33 30L33 27L32 27L32 26L33 26L33 23L31 23L31 21L29 21L29 20L31 20L31 19L32 19L32 20L33 20L33 19L32 19L32 18L33 18L33 17L32 17L32 18L29 18L29 20L28 20L28 19L27 19L27 21L19 21L19 18L20 18L20 19L21 19L21 20L23 20L23 19L22 19L22 17L23 17L23 18L25 18L25 19L24 19L24 20L26 20L26 18L28 18L28 17L29 17L29 16L31 16L31 15L32 15L32 16L33 16L33 15L32 15L32 14L33 14L33 13L32 13L32 14L31 14L31 15L30 15L30 13L31 13L31 12L32 12L32 10L33 10L33 9L32 9L32 8L31 8L31 9L30 9L30 8L29 8L29 12L27 12L27 11L28 11L28 8L27 8L27 9L26 9L26 8L25 8L25 9L23 9L23 10L21 10L21 9L18 9L18 8L17 8L17 9L16 9L16 8L13 8L13 6L14 6L14 7L15 7L15 6L16 6L16 7L17 7L17 6L18 6L18 7L19 7L19 5L20 5L20 7L21 7L21 8L22 8L22 7L23 7L23 5L24 5L24 7L25 7L25 4L21 4L21 3L22 3L22 2L23 2L23 3L24 3L24 2L23 2L23 1L24 1L24 0L23 0L23 1L22 1L22 0L21 0L21 1L20 1L20 0L19 0L19 1L20 1L20 4L19 4L19 2L18 2L18 3L17 3L17 4L16 4L16 2L17 2L17 0L16 0L16 1L11 1L11 2L10 2L10 0ZM21 1L21 2L22 2L22 1ZM12 2L12 4L13 4L13 5L14 5L14 6L15 6L15 5L16 5L16 6L17 6L17 5L19 5L19 4L17 4L17 5L16 5L16 4L15 4L15 3L14 3L14 2ZM10 3L10 4L11 4L11 3ZM13 3L13 4L14 4L14 3ZM20 4L20 5L21 5L21 7L22 7L22 5L21 5L21 4ZM8 5L8 7L9 7L9 5ZM2 9L2 11L3 11L3 9ZM4 9L4 10L5 10L5 11L4 11L4 12L5 12L5 11L6 11L6 12L7 12L7 13L5 13L5 14L4 14L4 13L3 13L3 12L2 12L2 13L1 13L1 14L4 14L4 15L2 15L2 17L5 17L5 16L8 16L8 15L9 15L9 14L8 14L8 15L5 15L5 14L7 14L7 13L8 13L8 12L7 12L7 11L8 11L8 9L6 9L6 10L5 10L5 9ZM15 9L15 10L16 10L16 11L15 11L15 12L14 12L14 10L13 10L13 11L12 11L12 13L11 13L11 12L10 12L10 13L11 13L11 15L10 15L10 16L9 16L9 17L10 17L10 16L11 16L11 18L10 18L10 19L11 19L11 18L13 18L13 19L12 19L12 21L10 21L10 22L11 22L11 23L8 23L8 24L11 24L11 26L13 26L13 27L12 27L12 29L15 29L15 30L16 30L16 29L15 29L15 28L14 28L14 27L15 27L15 26L16 26L16 28L18 28L18 27L17 27L17 26L18 26L18 25L17 25L17 24L18 24L18 23L19 23L19 24L21 24L21 25L20 25L20 26L19 26L19 28L21 28L21 27L20 27L20 26L21 26L21 25L22 25L22 26L23 26L23 25L24 25L24 24L23 24L23 25L22 25L22 24L21 24L21 23L22 23L22 22L17 22L17 20L18 20L18 19L17 19L17 18L18 18L18 17L16 17L16 16L18 16L18 14L19 14L19 17L20 17L20 18L21 18L21 17L22 17L22 16L21 16L21 14L22 14L22 15L24 15L24 14L22 14L22 13L23 13L23 12L26 12L26 13L25 13L25 16L23 16L23 17L28 17L28 16L29 16L29 13L27 13L27 12L26 12L26 11L27 11L27 10L26 10L26 11L25 11L25 10L23 10L23 12L20 12L20 11L21 11L21 10L19 10L19 11L17 11L17 10L18 10L18 9L17 9L17 10L16 10L16 9ZM31 9L31 10L30 10L30 11L31 11L31 10L32 10L32 9ZM6 10L6 11L7 11L7 10ZM15 12L15 13L16 13L16 12ZM17 12L17 14L18 14L18 13L19 13L19 14L21 14L21 13L19 13L19 12ZM12 13L12 14L13 14L13 15L12 15L12 17L13 17L13 16L14 16L14 17L15 17L15 16L14 16L14 15L16 15L16 14L14 14L14 13ZM26 13L26 14L27 14L27 15L26 15L26 16L27 16L27 15L28 15L28 14L27 14L27 13ZM20 16L20 17L21 17L21 16ZM6 17L6 18L5 18L5 20L4 20L4 21L6 21L6 22L9 22L9 19L8 19L8 18L7 18L7 17ZM3 18L3 19L4 19L4 18ZM6 18L6 19L7 19L7 20L6 20L6 21L7 21L7 20L8 20L8 19L7 19L7 18ZM15 18L15 19L14 19L14 20L15 20L15 21L12 21L12 22L13 22L13 23L12 23L12 25L13 25L13 24L14 24L14 25L16 25L16 26L17 26L17 25L16 25L16 24L17 24L17 22L15 22L15 21L16 21L16 20L15 20L15 19L16 19L16 18ZM1 19L1 20L2 20L2 21L3 21L3 20L2 20L2 19ZM27 21L27 22L26 22L26 24L27 24L27 23L29 23L29 28L30 28L30 27L31 27L31 28L32 28L32 27L31 27L31 26L30 26L30 25L32 25L32 24L30 24L30 22L29 22L29 21ZM32 21L32 22L33 22L33 21ZM23 22L23 23L25 23L25 22ZM6 23L6 24L7 24L7 23ZM14 23L14 24L15 24L15 23ZM2 24L2 25L3 25L3 24ZM25 25L25 28L28 28L28 25ZM26 26L26 27L27 27L27 26ZM8 28L8 33L10 33L10 31L9 31L9 30L10 30L10 29L9 29L9 28ZM25 29L25 30L23 30L23 31L24 31L24 32L25 32L25 31L26 31L26 30L28 30L28 29ZM14 31L14 32L15 32L15 31ZM30 31L30 32L31 32L31 33L32 33L32 32L31 32L31 31ZM0 0L0 7L7 7L7 0ZM1 1L1 6L6 6L6 1ZM2 2L2 5L5 5L5 2ZM26 0L26 7L33 7L33 0ZM27 1L27 6L32 6L32 1ZM28 2L28 5L31 5L31 2ZM0 26L0 33L7 33L7 26ZM1 27L1 32L6 32L6 27ZM2 28L2 31L5 31L5 28Z" fill="#000000"/></g></g></svg>
