<?xml version="1.0" encoding="UTF-8"?>
<svg xmlns="http://www.w3.org/2000/svg" version="1.1" width="400" height="400" viewBox="0 0 400 400"><rect x="0" y="0" width="400" height="400" fill="#ffffff"/><g transform="scale(12.121)"><g transform="translate(0,0)"><path fill-rule="evenodd" d="M9 0L9 1L8 1L8 2L9 2L9 3L8 3L8 4L10 4L10 7L11 7L11 4L12 4L12 5L13 5L13 6L12 6L12 9L13 9L13 10L11 10L11 11L10 11L10 9L11 9L11 8L6 8L6 9L5 9L5 8L0 8L0 11L1 11L1 12L2 12L2 11L3 11L3 13L2 13L2 14L4 14L4 13L5 13L5 12L6 12L6 13L9 13L9 15L10 15L10 14L11 14L11 13L12 13L12 14L13 14L13 15L12 15L12 17L13 17L13 16L14 16L14 17L15 17L15 16L14 16L14 15L16 15L16 14L14 14L14 13L12 13L12 11L13 11L13 10L14 10L14 12L15 12L15 13L16 13L16 12L15 12L15 11L16 11L16 10L17 10L17 9L18 9L18 11L19 11L19 12L17 12L17 13L19 13L19 14L20 14L20 17L19 17L19 15L18 15L18 16L16 16L16 17L18 17L18 18L17 18L17 19L18 19L18 20L17 20L17 22L15 22L15 21L16 21L16 20L15 20L15 19L16 19L16 18L15 18L15 19L14 19L14 20L15 20L15 21L12 21L12 19L13 19L13 18L10 18L10 16L9 16L9 17L8 17L8 14L5 14L5 15L7 15L7 16L5 16L5 17L4 17L4 16L3 16L3 15L0 15L0 16L2 16L2 18L0 18L0 20L1 20L1 21L0 21L0 25L1 25L1 21L2 21L2 20L3 20L3 22L5 22L5 23L2 23L2 25L4 25L4 24L5 24L5 25L7 25L7 24L6 24L6 23L10 23L10 22L11 22L11 21L12 21L12 22L13 22L13 23L12 23L12 25L13 25L13 24L14 24L14 25L16 25L16 26L15 26L15 27L14 27L14 28L15 28L15 29L12 29L12 27L13 27L13 26L11 26L11 29L10 29L10 28L8 28L8 33L9 33L9 32L11 32L11 31L10 31L10 30L11 30L11 29L12 29L12 30L13 30L13 31L12 31L12 33L13 33L13 32L14 32L14 33L15 33L15 32L16 32L16 33L18 33L18 32L19 32L19 31L18 31L18 32L16 32L16 31L17 31L17 29L18 29L18 28L19 28L19 30L20 30L20 32L22 32L22 33L26 33L26 32L27 32L27 33L28 33L28 32L29 32L29 31L28 31L28 30L29 30L29 29L30 29L30 28L31 28L31 30L33 30L33 27L32 27L32 26L33 26L33 23L31 23L31 21L29 21L29 20L31 20L31 19L32 19L32 20L33 20L33 19L32 19L32 18L33 18L33 17L32 17L32 18L29 18L29 20L28 20L28 19L24 19L24 20L27 20L27 21L23 21L23 20L22 20L22 19L23 19L23 18L28 18L28 17L29 17L29 16L31 16L31 15L32 15L32 16L33 16L33 15L32 15L32 14L33 14L33 13L32 13L32 14L31 14L31 15L30 15L30 13L31 13L31 12L32 12L32 10L33 10L33 9L32 9L32 8L31 8L31 9L30 9L30 8L29 8L29 10L28 10L28 11L29 11L29 12L28 12L28 13L25 13L25 12L23 12L23 10L25 10L25 9L26 9L26 10L27 10L27 9L28 9L28 8L27 8L27 9L26 9L26 8L25 8L25 9L23 9L23 10L20 10L20 9L21 9L21 8L22 8L22 7L23 7L23 5L24 5L24 7L25 7L25 5L24 5L24 4L25 4L25 1L24 1L24 0L23 0L23 1L24 1L24 2L23 2L23 3L22 3L22 2L21 2L21 3L22 3L22 4L19 4L19 3L20 3L20 2L19 2L19 1L20 1L20 0L19 0L19 1L18 1L18 3L17 3L17 4L16 4L16 2L17 2L17 0L16 0L16 1L11 1L11 2L10 2L10 0ZM21 0L21 1L22 1L22 0ZM12 2L12 4L13 4L13 5L14 5L14 6L13 6L13 8L16 8L16 9L15 9L15 10L16 10L16 9L17 9L17 8L18 8L18 9L20 9L20 8L21 8L21 7L22 7L22 6L21 6L21 5L19 5L19 4L18 4L18 5L16 5L16 4L15 4L15 3L14 3L14 2ZM10 3L10 4L11 4L11 3ZM13 3L13 4L14 4L14 3ZM23 3L23 4L22 4L22 5L23 5L23 4L24 4L24 3ZM8 5L8 7L9 7L9 5ZM15 5L15 6L14 6L14 7L15 7L15 6L16 6L16 7L17 7L17 6L16 6L16 5ZM18 5L18 7L19 7L19 8L20 8L20 7L21 7L21 6L20 6L20 7L19 7L19 5ZM1 9L1 11L2 11L2 10L3 10L3 9ZM6 9L6 10L7 10L7 11L6 11L6 12L9 12L9 11L8 11L8 10L9 10L9 9L8 9L8 10L7 10L7 9ZM31 9L31 10L30 10L30 11L31 11L31 10L32 10L32 9ZM4 10L4 12L5 12L5 10ZM19 10L19 11L20 11L20 10ZM26 11L26 12L27 12L27 11ZM10 12L10 13L11 13L11 12ZM19 12L19 13L20 13L20 14L22 14L22 16L21 16L21 17L20 17L20 18L19 18L19 21L20 21L20 22L17 22L17 24L16 24L16 25L17 25L17 26L16 26L16 28L18 28L18 27L17 27L17 26L18 26L18 25L17 25L17 24L18 24L18 23L19 23L19 25L23 25L23 26L21 26L21 27L20 27L20 26L19 26L19 28L21 28L21 29L20 29L20 30L23 30L23 29L24 29L24 28L21 28L21 27L23 27L23 26L24 26L24 24L21 24L21 23L20 23L20 22L21 22L21 21L22 21L22 22L23 22L23 23L25 23L25 24L27 24L27 23L29 23L29 28L30 28L30 27L31 27L31 28L32 28L32 27L31 27L31 26L30 26L30 25L32 25L32 24L30 24L30 22L29 22L29 21L27 21L27 22L26 22L26 23L25 23L25 22L23 22L23 21L22 21L22 20L21 20L21 21L20 21L20 18L21 18L21 17L28 17L28 16L29 16L29 13L28 13L28 15L27 15L27 14L22 14L22 13L23 13L23 12L21 12L21 13L20 13L20 12ZM25 15L25 16L27 16L27 15ZM3 17L3 20L4 20L4 21L5 21L5 22L9 22L9 21L11 21L11 20L9 20L9 19L8 19L8 17L5 17L5 18L4 18L4 17ZM5 18L5 19L4 19L4 20L5 20L5 19L7 19L7 18ZM6 20L6 21L9 21L9 20ZM32 21L32 22L33 22L33 21ZM14 23L14 24L15 24L15 23ZM8 25L8 27L9 27L9 25ZM25 25L25 28L28 28L28 25ZM26 26L26 27L27 27L27 26ZM15 29L15 30L16 30L16 29ZM25 29L25 31L23 31L23 32L25 32L25 31L26 31L26 30L28 30L28 29ZM14 31L14 32L15 32L15 31ZM30 31L30 32L31 32L31 33L32 33L32 32L31 32L31 31ZM0 0L0 7L7 7L7 0ZM1 1L1 6L6 6L6 1ZM2 2L2 5L5 5L5 2ZM26 0L26 7L33 7L33 0ZM27 1L27 6L32 6L32 1ZM28 2L28 5L31 5L31 2ZM0 26L0 33L7 33L7 26ZM1 27L1 32L6 32L6 27ZM2 28L2 31L5 31L5 28Z" fill="#000000"/></g></g></svg>
