<?xml version="1.0" encoding="UTF-8"?>
<svg xmlns="http://www.w3.org/2000/svg" version="1.1" width="400" height="400" viewBox="0 0 400 400"><rect x="0" y="0" width="400" height="400" fill="#ffffff"/><g transform="scale(12.121)"><g transform="translate(0,0)"><path fill-rule="evenodd" d="M9 0L9 1L8 1L8 2L9 2L9 3L8 3L8 4L10 4L10 7L11 7L11 4L12 4L12 5L13 5L13 6L12 6L12 9L13 9L13 10L11 10L11 11L10 11L10 9L11 9L11 8L6 8L6 9L5 9L5 8L0 8L0 10L1 10L1 9L2 9L2 14L3 14L3 13L4 13L4 14L5 14L5 15L3 15L3 17L2 17L2 18L1 18L1 20L0 20L0 25L1 25L1 20L3 20L3 21L2 21L2 23L3 23L3 25L8 25L8 27L10 27L10 28L11 28L11 29L9 29L9 28L8 28L8 33L11 33L11 29L12 29L12 30L13 30L13 31L12 31L12 33L13 33L13 32L14 32L14 33L15 33L15 32L16 32L16 33L18 33L18 32L19 32L19 33L21 33L21 32L24 32L24 33L26 33L26 32L27 32L27 33L28 33L28 32L29 32L29 31L28 31L28 30L29 30L29 29L30 29L30 28L31 28L31 30L33 30L33 27L32 27L32 26L33 26L33 23L31 23L31 21L29 21L29 20L31 20L31 19L32 19L32 20L33 20L33 19L32 19L32 18L33 18L33 17L32 17L32 18L29 18L29 20L28 20L28 19L26 19L26 18L28 18L28 17L29 17L29 16L31 16L31 15L32 15L32 16L33 16L33 15L32 15L32 14L33 14L33 13L32 13L32 14L31 14L31 15L30 15L30 13L31 13L31 12L32 12L32 10L33 10L33 9L32 9L32 8L31 8L31 9L30 9L30 8L29 8L29 12L28 12L28 13L25 13L25 12L23 12L23 10L25 10L25 11L26 11L26 12L27 12L27 11L26 11L26 10L28 10L28 8L27 8L27 9L26 9L26 8L25 8L25 9L23 9L23 10L20 10L20 9L21 9L21 8L23 8L23 5L24 5L24 7L25 7L25 4L21 4L21 3L22 3L22 2L21 2L21 3L20 3L20 2L18 2L18 3L17 3L17 4L16 4L16 2L17 2L17 0L16 0L16 1L11 1L11 2L10 2L10 0ZM19 0L19 1L20 1L20 0ZM21 0L21 1L25 1L25 0ZM12 2L12 4L13 4L13 5L14 5L14 6L13 6L13 8L16 8L16 9L15 9L15 10L16 10L16 11L15 11L15 12L14 12L14 10L13 10L13 11L12 11L12 13L11 13L11 12L10 12L10 13L11 13L11 15L9 15L9 14L8 14L8 13L6 13L6 12L7 12L7 11L6 11L6 10L8 10L8 9L6 9L6 10L4 10L4 9L3 9L3 10L4 10L4 11L5 11L5 12L4 12L4 13L6 13L6 14L8 14L8 15L9 15L9 16L8 16L8 17L10 17L10 18L9 18L9 19L8 19L8 18L7 18L7 17L6 17L6 16L7 16L7 15L5 15L5 17L4 17L4 18L2 18L2 19L3 19L3 20L4 20L4 19L5 19L5 18L7 18L7 19L6 19L6 20L7 20L7 21L4 21L4 24L5 24L5 22L8 22L8 21L9 21L9 19L10 19L10 18L13 18L13 19L12 19L12 21L11 21L11 20L10 20L10 21L11 21L11 22L10 22L10 23L6 23L6 24L8 24L8 25L9 25L9 26L10 26L10 27L11 27L11 26L13 26L13 27L12 27L12 29L15 29L15 30L16 30L16 29L15 29L15 28L14 28L14 27L15 27L15 26L16 26L16 28L18 28L18 29L17 29L17 31L16 31L16 32L18 32L18 31L19 31L19 32L21 32L21 30L23 30L23 31L24 31L24 32L25 32L25 31L26 31L26 30L28 30L28 29L25 29L25 31L24 31L24 30L23 30L23 29L24 29L24 27L23 27L23 26L21 26L21 27L23 27L23 28L21 28L21 29L20 29L20 26L19 26L19 28L18 28L18 27L17 27L17 26L18 26L18 25L17 25L17 24L18 24L18 23L19 23L19 25L23 25L23 24L24 24L24 23L29 23L29 28L30 28L30 27L31 27L31 28L32 28L32 27L31 27L31 26L30 26L30 25L32 25L32 24L30 24L30 22L29 22L29 21L27 21L27 20L26 20L26 19L25 19L25 17L28 17L28 16L29 16L29 15L27 15L27 14L25 14L25 15L26 15L26 16L25 16L25 17L24 17L24 16L21 16L21 17L20 17L20 14L19 14L19 13L21 13L21 14L22 14L22 15L24 15L24 14L22 14L22 13L23 13L23 12L21 12L21 11L20 11L20 10L19 10L19 9L20 9L20 8L21 8L21 7L22 7L22 6L21 6L21 7L20 7L20 5L21 5L21 4L20 4L20 3L19 3L19 4L17 4L17 5L16 5L16 4L15 4L15 3L14 3L14 2ZM24 2L24 3L25 3L25 2ZM10 3L10 4L11 4L11 3ZM13 3L13 4L14 4L14 3ZM19 4L19 5L20 5L20 4ZM8 5L8 7L9 7L9 5ZM15 5L15 6L14 6L14 7L15 7L15 6L16 6L16 7L17 7L17 6L18 6L18 8L17 8L17 9L16 9L16 10L17 10L17 11L19 11L19 10L17 10L17 9L19 9L19 8L20 8L20 7L19 7L19 6L18 6L18 5L17 5L17 6L16 6L16 5ZM31 9L31 10L30 10L30 11L31 11L31 10L32 10L32 9ZM0 11L0 12L1 12L1 11ZM8 11L8 12L9 12L9 11ZM15 12L15 13L16 13L16 12ZM17 12L17 13L19 13L19 12ZM0 13L0 14L1 14L1 13ZM12 13L12 14L13 14L13 15L12 15L12 17L13 17L13 16L14 16L14 17L15 17L15 16L14 16L14 15L16 15L16 14L14 14L14 13ZM28 13L28 14L29 14L29 13ZM17 14L17 15L18 15L18 16L16 16L16 17L18 17L18 18L17 18L17 19L18 19L18 20L17 20L17 22L15 22L15 21L16 21L16 20L15 20L15 19L16 19L16 18L15 18L15 19L14 19L14 20L15 20L15 21L12 21L12 22L13 22L13 23L12 23L12 25L13 25L13 24L14 24L14 25L16 25L16 26L17 26L17 25L16 25L16 24L17 24L17 22L20 22L20 21L21 21L21 22L25 22L25 21L26 21L26 22L27 22L27 21L26 21L26 20L25 20L25 19L24 19L24 20L25 20L25 21L21 21L21 20L23 20L23 19L21 19L21 18L24 18L24 17L21 17L21 18L20 18L20 17L19 17L19 14ZM0 15L0 16L1 16L1 15ZM19 18L19 20L21 20L21 19L20 19L20 18ZM32 21L32 22L33 22L33 21ZM14 23L14 24L15 24L15 23ZM20 23L20 24L22 24L22 23ZM9 24L9 25L10 25L10 26L11 26L11 24ZM25 25L25 28L28 28L28 25ZM26 26L26 27L27 27L27 26ZM19 29L19 30L20 30L20 29ZM9 30L9 31L10 31L10 30ZM14 31L14 32L15 32L15 31ZM30 31L30 32L31 32L31 33L32 33L32 32L31 32L31 31ZM0 0L0 7L7 7L7 0ZM1 1L1 6L6 6L6 1ZM2 2L2 5L5 5L5 2ZM26 0L26 7L33 7L33 0ZM27 1L27 6L32 6L32 1ZM28 2L28 5L31 5L31 2ZM0 26L0 33L7 33L7 26ZM1 27L1 32L6 32L6 27ZM2 28L2 31L5 31L5 28Z" fill="#000000"/></g></g></svg>
